<?xml version="1.0" encoding="utf-8"?>
<!-- Uploaded to: SVG Repo, www.svgrepo.com, Generator: SVG Repo Mixer Tools -->
<svg width="800px" height="800px" viewBox="0 -13.65 442.767 442.767" xmlns="http://www.w3.org/2000/svg"><defs><style>.a{fill:#211715;}.b{fill:#fcce61;}.c{fill:#ef8561;}.d{fill:#f4b467;}.e{fill:#fac782;}.f{fill:#f29d81;}.g{fill:#ffffff;}.h{fill:#645d5c;}.i{fill:#908b8a;}.j{fill:#ad7b59;}</style></defs><path class="a" d="M23.883,55.834a68.983,68.983,0,0,0-9.52-4.3,54.57,54.57,0,0,0-5.487-1.317.021.021,0,0,0-.023.012,1.855,1.855,0,0,0-.105,1.06.021.021,0,0,0,.021.018,24.717,24.717,0,0,1,4.582.784c1.728.45,8.548,2.573,10.532,3.742"/><path class="a" d="M24.892,54.107a48.819,48.819,0,0,0-13.809-5.482c-1-.219-2.27-.678-3.216-.134a2.8,2.8,0,0,0-1.131,2.686,2.172,2.172,0,0,0,2.358,2.144c.111.007.75.073.434.033.4.051.8.126,1.2.2a47.729,47.729,0,0,1,5.729,1.56c1.269.409,2.534.836,3.784,1.3q.5.184.993.38c.144.057.868.368.409.163a13.259,13.259,0,0,1,1.233.6c2.235,1.288,4.251-2.168,2.019-3.454A40.1,40.1,0,0,0,17,51.092a30.326,30.326,0,0,0-8.228-1.784l1.414.586-.021-.018.586,1.414a2.992,2.992,0,0,1-.029-.444c-.03.186-.009.157.062-.084l-.919,1.2.024-.012-1.541.2a37.882,37.882,0,0,1,7.4,2.039c1.108.447,2.009.835,3.308,1.433s2.582,1.226,3.818,1.943c2.232,1.293,4.248-2.163,2.019-3.454Z"/><path class="b" d="M24.394,56.845a23.909,23.909,0,0,1,1.612,9.218c.041,1.783.074,7.2.127,8.119a4.547,4.547,0,0,0,.1,1.33c.148.332.431.347.777.4a12.907,12.907,0,0,0,4.477-.27,18.563,18.563,0,0,0,5.472-1.84,14.824,14.824,0,0,0,5.926-6.577.882.882,0,0,0-.18-1.067,26.341,26.341,0,0,0-1.818-2.065L39.821,62.92a10.39,10.39,0,0,1-1.066-1.189c.23.014.453-.039.682-.046l.764-.024,1.58-.05,1.529-.048c.255-.009.51-.018.764-.025a1.965,1.965,0,0,0,.7-.083c.443-.209.672-1.144.836-1.584a10.791,10.791,0,0,0,.584-3.987,16.064,16.064,0,0,0-1.274-5.947,16.358,16.358,0,0,0-2.536-4.159,10.484,10.484,0,0,0-1.752-1.662c-.646-.475-1.1-.932-1.755-.209-3.975,4.346-8.449,9.138-13.854,11.643,0,0-.828.351-1.015.4C24.092,56.127,24.394,56.845,24.394,56.845Z"/><path class="a" d="M22.465,57.376C24.682,62.685,24,68.857,24.136,74.5a3.5,3.5,0,0,0,.777,2.548,3.969,3.969,0,0,0,2.769.939,19.027,19.027,0,0,0,6.078-.81,16.491,16.491,0,0,0,9.342-6.37c1.13-1.548,2.559-3.64,1.416-5.528-1.054-1.74-2.828-2.945-4.036-4.556l-1.727,3.01q2.467-.108,4.937-.181a3.453,3.453,0,0,0,3.641-2.541A15.879,15.879,0,0,0,47.1,50.014a18.856,18.856,0,0,0-2.74-4.957c-.989-1.268-2.435-2.977-4.06-3.423C38.28,41.08,37,43.013,35.812,44.288s-2.394,2.523-3.656,3.719a36.813,36.813,0,0,1-4.593,3.785,25.714,25.714,0,0,1-2.634,1.581c-.182.1-1.265.6-.656.341-.26.112-.525.219-.793.312a2.041,2.041,0,0,0-1.2,2.938c.049.11.42.982.18.412a2.068,2.068,0,0,0,2.461,1.4,2.013,2.013,0,0,0,1.4-2.46c-.193-.457-.383-.915-.584-1.368l-1.2,2.938A26.971,26.971,0,0,0,32.8,52.794c1.392-1.169,2.707-2.427,3.98-3.724s2.443-2.832,3.833-4.017l-.883.514.037-.005-1.01-.273c1.631.753,2.825,2.541,3.664,4.061a14.028,14.028,0,0,1,1.737,5.661,11.222,11.222,0,0,1-.1,3.03,11.69,11.69,0,0,1-.367,1.3c-.376,1.178.161-.229.389.2a12.89,12.89,0,0,0-2.688.085c-.878.028-1.754.069-2.631.108-1.359.059-2.7,1.715-1.727,3.009.274.364,3.808,4.6,4.008,4.505q.129-1.116-.106-.548c-.08.163-.164.325-.252.483a13.705,13.705,0,0,1-.8,1.288,13.213,13.213,0,0,1-1.767,2.013,11.8,11.8,0,0,1-4.98,2.719c-1.724.493-4.426,1.331-6.174.623l.882.514-.19-.239.514.882a15.208,15.208,0,0,1-.078-3.2c-.019-1.392-.032-2.783-.051-4.175-.05-3.832-.212-7.714-1.708-11.3a2.068,2.068,0,0,0-2.461-1.4A2.013,2.013,0,0,0,22.465,57.376Z"/><path class="a" d="M275.618,20.429a60.26,60.26,0,0,0-6.457-6.4,47.566,47.566,0,0,0-4.075-2.745.02.02,0,0,0-.023,0,1.622,1.622,0,0,0-.408.833.018.018,0,0,0,.011.021,21.522,21.522,0,0,1,3.5,2.034c1.273.894,6.19,4.7,7.453,6.258"/><path class="a" d="M277.032,19.015a42.554,42.554,0,0,0-9.4-8.5,5.377,5.377,0,0,0-2.548-1.236,2.675,2.675,0,0,0-2.36,2.3,2.1,2.1,0,0,0,.526,1.967l.4.313q.845.358.221.091c.037.057.237.11.3.142.549.268,1.078.579,1.6.9.724.446,1.423.924,2.1,1.432.3.224.594.451.891.677.22.168-.405-.315-.07-.053l.3.233q.312.244.622.491a29.693,29.693,0,0,1,4.579,4.068,2.009,2.009,0,0,0,2.829,0,2.057,2.057,0,0,0,0-2.829,18.2,18.2,0,0,0-2.244-2.145c-.981-.843-1.989-1.656-3.008-2.453a27.72,27.72,0,0,0-6.582-4.208l1.195.919-.011-.022.2,1.541a2.911,2.911,0,0,1,.09-.312.69.69,0,0,1-.2.362l-1.414.586.023,0-1.009-.273c1.287.767,2.531,1.606,3.737,2.494.112.083.222.171.337.251-.627-.433-.4-.315-.264-.2.1.089.21.175.313.264.327.283.647.573.966.866a51.367,51.367,0,0,1,5.037,5.163,2.008,2.008,0,0,0,2.829,0,2.057,2.057,0,0,0,0-2.829Z"/><path class="b" d="M275.727,21.41a20.823,20.823,0,0,1-1.491,8.01c-.509,1.467-2.131,5.893-2.368,6.661a3.98,3.98,0,0,0-.324,1.115c.019.316.246.415.512.564A11.264,11.264,0,0,0,275.79,38.9a16.178,16.178,0,0,0,5.024.164,12.9,12.9,0,0,0,6.836-3.561.769.769,0,0,0,.178-.925,22.947,22.947,0,0,0-.855-2.238l-.511-1.282a8.942,8.942,0,0,1-.507-1.294c.182.081.38.106.569.17l.631.213,1.3.44,1.262.426c.21.071.421.141.631.213a1.71,1.71,0,0,0,.6.146c.424-.035.9-.728,1.163-1.038a9.375,9.375,0,0,0,1.69-3.074,13.972,13.972,0,0,0,.771-5.238,14.224,14.224,0,0,0-.8-4.165,9.128,9.128,0,0,0-.922-1.889c-.383-.585-.61-1.093-1.368-.7-4.566,2.335-9.674,4.882-14.846,5.28,0,0-.782.034-.95.021C275.7,20.732,275.727,21.41,275.727,21.41Z"/><path class="a" d="M273.727,21.41c.14,3.778-1.348,7.3-2.606,10.793-.4,1.113-.789,2.231-1.181,3.347a3.285,3.285,0,0,0-.041,2.909,4.728,4.728,0,0,0,2.512,1.648,16.2,16.2,0,0,0,13.193-.619c1.576-.844,4.226-2.4,4.294-4.421.068-1.991-1.468-3.975-2.015-5.832l-2.46,2.46q1.465.476,2.925.966a8.707,8.707,0,0,0,2.6.714c1.805,0,3.258-2.261,3.97-3.658a15.958,15.958,0,0,0,.78-12.389c-.594-1.639-1.623-4.139-3.683-4.195a5.859,5.859,0,0,0-2.667.977c-.891.451-1.786.9-2.69,1.322-3.359,1.584-7.192,3.2-10.975,3.135a2.014,2.014,0,0,0-2,2c.017.281.028.562.04.843.106,2.565,4.107,2.578,4,0-.012-.281-.023-.562-.04-.843l-2,2c5.355.1,10.639-2.466,15.306-4.813a4.164,4.164,0,0,0,.754-.381q.844-.255-.2-.413-.879-.535-.42.021c.141.594.66,1.2.859,1.812a12.455,12.455,0,0,1,.606,3.9,11.969,11.969,0,0,1-.779,4.225,7.98,7.98,0,0,1-.835,1.629c-.132.2-.274.379-.424.561s-.672.512-.131.342h1.063a33.143,33.143,0,0,1-5-1.609,2.016,2.016,0,0,0-2.46,2.461c.258.875.675,1.728,1.019,2.575.15.371.309.738.456,1.109q.147.361.273.73.18.783.123.036l.515-.883a9.836,9.836,0,0,1-6.052,3.261,13.78,13.78,0,0,1-4.038-.153c-.932-.15-2.561-.278-3.282-.939l.515.883c.163.5.165-.091.256-.349.052-.147.1-.3.148-.443.144-.42.3-.837.444-1.255.43-1.206.867-2.41,1.3-3.615a26.329,26.329,0,0,0,2.025-9.846C277.632,18.843,273.632,18.831,273.727,21.41Z"/><path class="b" d="M402.46,33.643a15.834,15.834,0,0,0,2.665-3.2,23.99,23.99,0,0,0,1.927-4.31,1.822,1.822,0,0,0-1.036-.272,12.571,12.571,0,0,1-.7,2.756c-.369,1.023-1.54,3.9-2.855,5.026"/><path class="c" d="M401.913,33.929c1.42-.521,4.716-.107,6.133.462a10.332,10.332,0,0,1,3.231,2.247,8.926,8.926,0,0,1-3.189,3.074,13.085,13.085,0,0,1,3.373,3.834c.687,1.414,1.674,5.189,1.016,7.242a7.907,7.907,0,0,1-5.034-1.466,20.957,20.957,0,0,1-3.006-2.7l-.629-.718.363,1a11.406,11.406,0,0,1-.638,7.4c-1.888,3.571-4.54,5.382-5.269,5.594a20.6,20.6,0,0,1-3.021-4.238,13.56,13.56,0,0,1-1.307-5.274l.047-.343-.136.3c-.34.75-3.634,3.288-5.421,4.171-2.454,1.213-7.439,1.9-9.028,1.314-.869-2.224.588-6.511,1.663-8.312,1.337-2.244,2.878-4.259,4.138-5.044l.347-.217-.4.081a9.03,9.03,0,0,1-4.755-.809c-1.385-.576-4.388-2.066-5.554-3.956a15.573,15.573,0,0,1,9.272-5.426,39.83,39.83,0,0,1,4.189-.115c-2.251-1.02-5.141-5.471-5.1-7.558a6.213,6.213,0,0,1,3.879-.4,12.131,12.131,0,0,1,4.529,1.8A15.017,15.017,0,0,1,394.7,28.29l.306.337-.02-.072c-.188-.693.813-2.375,1.1-3.02a11.735,11.735,0,0,1,1.426-2.007c1.3.518,3.27,3.343,3.8,4.546a11.537,11.537,0,0,1,.956,5.584"/><path class="a" d="M402.445,35.858c2.637-.836,5.517.451,7.418,2.194l-.313-2.424a6.774,6.774,0,0,1-2.471,2.357c-1.48.728-1.1,2.641,0,3.454a8.55,8.55,0,0,1,2.859,3.658c.526,1.568,1.068,3.517.61,5.159l1.929-1.468c-3.187.044-5.272-2.029-7.254-4.294-1.29-1.473-4.017.081-3.343,1.946a8.973,8.973,0,0,1-.073,6.861,12.135,12.135,0,0,1-2.647,3.548,9.891,9.891,0,0,1-.909.777c-.155.109-.334.2-.482.31-.39.3.167-.029-.037.04l1.946.515a14.72,14.72,0,0,1-2.964-4.43,15.1,15.1,0,0,1-.659-2.38c-.05-.246-.073-.494-.118-.738a3.556,3.556,0,0,1-.013-.4c-.055.354-.059.366-.012.039a2.04,2.04,0,0,0-1.158-2.36,1.982,1.982,0,0,0-2.5.819c0-.008-.3.571-.128.318.142-.213-.327.32-.389.379a15.575,15.575,0,0,1-1.2,1.022,15.822,15.822,0,0,1-3.394,2.161,15.93,15.93,0,0,1-3.99.989,8.38,8.38,0,0,1-3.224,0l1.4,1.4c-.623-1.816.219-4.195.985-5.861a12.842,12.842,0,0,1,4.243-5.454,2.009,2.009,0,0,0-1.541-3.655,7.583,7.583,0,0,1-4.636-.992,9.367,9.367,0,0,1-3.812-2.774l-.313,2.424a14.528,14.528,0,0,1,5.88-4.277,16.091,16.091,0,0,1,6.167-.678c1.915.035,2.817-2.831,1.01-3.727a7.423,7.423,0,0,1-2.692-2.661,11.6,11.6,0,0,1-1.108-1.986,4.239,4.239,0,0,1-.306-1.184l-.99,1.727c1.48-.71,3.612-.034,5,.605a13.894,13.894,0,0,1,4.381,3.229c1.373,1.513,3.849-.08,3.343-1.945.14.515.081.127.219-.205.164-.4.379-.782.574-1.165a8.347,8.347,0,0,1,1.2-1.784l-2.423.313a7.56,7.56,0,0,1,2.77,3.225,8.377,8.377,0,0,1,1.063,4.646,2.069,2.069,0,0,0,1.4,2.46,2.013,2.013,0,0,0,2.46-1.4,12.793,12.793,0,0,0-1.346-7.509c-.931-1.778-2.457-4-4.326-4.879a2.059,2.059,0,0,0-2.423.312,13.756,13.756,0,0,0-2.058,3.059c-.606,1.214-1.341,2.59-.963,3.987l3.343-1.946c-3.318-3.656-9.369-6.789-14.226-4.46a1.968,1.968,0,0,0-.991,1.727,10.173,10.173,0,0,0,1.96,5.189,11.537,11.537,0,0,0,4.127,4.1l1.009-3.727a19.343,19.343,0,0,0-7.572.952,18.431,18.431,0,0,0-7.3,5.175,2.054,2.054,0,0,0-.313,2.423c2.54,3.812,8.478,6.506,12.965,5.6l-1.541-3.655c-2.973,1.853-5.139,5.271-6.355,8.5-.914,2.428-2.452,8.235,1.347,8.875a17.56,17.56,0,0,0,9.662-1.549,21.184,21.184,0,0,0,4.033-2.665,7.722,7.722,0,0,0,2.487-2.64l-3.656-1.542c-.6,4.4,1.955,8.67,4.8,11.8a1.966,1.966,0,0,0,1.946.515c2.8-.951,5.2-3.982,6.464-6.514a12.763,12.763,0,0,0,.477-9.943l-3.343,1.945c2.695,3.08,5.807,5.525,10.083,5.466a2.044,2.044,0,0,0,1.928-1.468A13.1,13.1,0,0,0,409.1,37.985v3.454A10.922,10.922,0,0,0,413,37.647a2.008,2.008,0,0,0-.313-2.423,11.658,11.658,0,0,0-5.548-3.162A11.851,11.851,0,0,0,401.382,32c-2.445.774-1.4,4.638,1.063,3.857Z"/><path class="a" d="M403.469,35.37a6.052,6.052,0,0,0,1.568-1.49c.547-.657,1.078-1.334,1.563-2.038a21.717,21.717,0,0,0,2.381-5.177,2.027,2.027,0,0,0-.919-2.259,4.047,4.047,0,0,0-2.046-.545,2.01,2.01,0,0,0-1.928,1.469,14.876,14.876,0,0,1-.558,2.348q-.142.417-.3.827c-.048.124-.1.248-.148.372s-.207.458.063-.147l-.1.219a18.618,18.618,0,0,1-.98,1.951c-.18.308-.378.6-.582.893-.221.315.317-.369.067-.09-.053.06-.1.122-.157.181a4.569,4.569,0,0,1-.351.345,2.012,2.012,0,0,0,0,2.829,2.048,2.048,0,0,0,2.828,0,11.561,11.561,0,0,0,2.629-4.09,19.305,19.305,0,0,0,1.442-4.575l-1.929,1.468c.085,0,.17.007.254.014-.31-.049-.389-.057-.235-.023.46.17-.334-.205.008.008l-.919-2.258c-.183.525-.381,1.043-.586,1.56-.144.363.177-.4.011-.023l-.119.27q-.127.284-.262.563a14.02,14.02,0,0,1-.984,1.8c-.171.251-.351.5-.534.738-.091.12-.311.383.089-.114-.059.073-.116.148-.174.222-.108.135-.216.269-.326.4-.21.253-.424.5-.651.74-.093.1-.192.187-.287.282-.259.257.481-.306.149-.122a2,2,0,0,0,2.019,3.454Z"/><path class="b" d="M113.814,11.082a15.79,15.79,0,0,1-2.059-3.62,24.009,24.009,0,0,1-1.139-4.582,1.817,1.817,0,0,1,1.068-.085,12.631,12.631,0,0,0,.2,2.836c.184,1.073.83,4.108,1.926,5.451"/><path class="c" d="M114.3,11.46c-1.306-.764-4.623-.937-6.117-.627a10.345,10.345,0,0,0-3.577,1.643,8.924,8.924,0,0,0,2.6,3.588,13.1,13.1,0,0,0-4,3.179c-.925,1.272-2.562,4.813-2.275,6.95a7.907,7.907,0,0,0,5.213-.556,20.88,20.88,0,0,0,3.434-2.124l.745-.6-.534.925a11.42,11.42,0,0,0-.676,7.4c1.23,3.848,3.521,6.1,4.2,6.435a20.631,20.631,0,0,0,3.72-3.639,13.549,13.549,0,0,0,2.216-4.961l.014-.346.081.32c.2.8,3,3.876,4.6,5.061,2.2,1.626,6.988,3.179,8.655,2.884,1.248-2.037.568-6.513-.171-8.476-.921-2.443-2.083-4.7-3.185-5.694l-.3-.274.378.149a9.029,9.029,0,0,0,4.823.042c1.465-.322,4.684-1.261,6.164-2.916a15.579,15.579,0,0,0-8.171-6.975,40.45,40.45,0,0,0-4.1-.851c2.4-.607,6.024-4.479,6.347-6.541a6.207,6.207,0,0,0-3.747-1.081,12.127,12.127,0,0,0-4.774.971A15.038,15.038,0,0,0,122.4,7.179l-.361.278.032-.067c.307-.649-.382-2.481-.55-3.167A11.754,11.754,0,0,0,120.466,2c-1.367.282-3.808,2.715-4.538,3.807A11.542,11.542,0,0,0,114,11.13"/><path class="a" d="M115.311,9.733C111.6,7.78,106.98,8.6,103.6,10.749a2.062,2.062,0,0,0-.718,2.736,10.637,10.637,0,0,0,3.315,4.306V14.337a12.4,12.4,0,0,0-5.223,4.705c-1.176,2.07-2.269,4.724-2.039,7.151a2.055,2.055,0,0,0,1.468,1.929,10.407,10.407,0,0,0,6.223-.521,22.609,22.609,0,0,0,5.116-3.27L108.6,21.908a12.811,12.811,0,0,0-1.411,9.861c.789,2.669,2.554,6.212,5.12,7.63a1.968,1.968,0,0,0,2.019,0c3.284-2.533,6.761-6.262,6.941-10.673l-3.928.531a8.157,8.157,0,0,0,2.046,3.225,21.7,21.7,0,0,0,3.555,3.352,17.584,17.584,0,0,0,8.987,3.188c4.078.133,3.511-5.851,3.067-8.531-.545-3.286-2.131-7.1-4.635-9.358l-1.946,3.343a11.5,11.5,0,0,0,7.215-.047,13.22,13.22,0,0,0,6.1-3.192,2.049,2.049,0,0,0,.313-2.424,18.609,18.609,0,0,0-6.216-6.436,18.974,18.974,0,0,0-7.254-2.309v3.857a11.429,11.429,0,0,0,4.834-3.24,10.315,10.315,0,0,0,2.911-4.7,2.1,2.1,0,0,0-.919-2.258c-4.141-2.984-10.719-.81-14.367,2l2.736,2.736c1.051-2.223-.369-5.533-1.569-7.48a2.05,2.05,0,0,0-2.258-.92c-2.05.554-3.875,2.36-5.168,3.976A12.618,12.618,0,0,0,112,11.13c-.109,2.574,3.891,2.569,4,0a8.813,8.813,0,0,1,1.749-4.453c.76-.986,2.126-2.45,3.245-2.752l-2.258-.92a8.385,8.385,0,0,1,.9,1.944c.111.362.222.726.32,1.092a5.651,5.651,0,0,0,.164.649c.125.3-.242.66.184-.242a2.075,2.075,0,0,0,.313,2.424,2,2,0,0,0,2.424.312c2.533-1.952,7.331-4.162,10.329-2l-.919-2.259c-.4,2.005-2.994,4.576-4.951,5.145-1.755.51-2.049,3.529,0,3.857a16.86,16.86,0,0,1,5.984,1.716,14.325,14.325,0,0,1,5.095,5.191l.313-2.424a9.3,9.3,0,0,1-4.33,2.164,7.847,7.847,0,0,1-5.089.047c-1.877-.74-3.368,2.058-1.946,3.343a12.764,12.764,0,0,1,3.282,6.066c.46,1.724.983,4.3.066,5.954l1.726-.991c-2.235.3-5.176-1.038-7.064-2.22a14.5,14.5,0,0,1-2.777-2.509,17.261,17.261,0,0,1-1.146-1.315c-.131-.172-.242-.354-.364-.532-.234-.344.113.453-.057-.221-.568-2.241-3.839-1.68-3.929.532-.028.692.1-.131-.04.355-.075.259-.152.516-.242.77a12.974,12.974,0,0,1-1.035,2.2,14.24,14.24,0,0,1-3.643,3.9h2.019c-.239-.132-.131-.121.005.038-.115-.134-.279-.243-.408-.368a8.72,8.72,0,0,1-.865-.976,12.616,12.616,0,0,1-2.014-3.934,8.721,8.721,0,0,1,1.008-6.778c1.206-2.089-1.447-3.779-3.141-2.424-2.153,1.723-4.578,3.316-7.447,2.762l1.469,1.928a9.207,9.207,0,0,1,1.493-5.132,9,9,0,0,1,3.787-3.27c1.477-.73,1.1-2.642,0-3.454a7.269,7.269,0,0,1-1.879-2.871l-.718,2.737a7.82,7.82,0,0,1,4.05-1.511,7.981,7.981,0,0,1,3.626.495c2.277,1.2,4.3-2.255,2.019-3.454Z"/><path class="a" d="M115.228,9.668c-.029-.024-.207-.175-.194-.2,0-.009.357.5.175.221-.034-.052-.071-.1-.105-.154-.184-.274-.352-.56-.515-.847-.339-.6-.662-1.211-.944-1.839-.2-.441.171.472.053.126-.056-.164-.115-.326-.17-.489q-.192-.576-.355-1.16a26.86,26.86,0,0,1-.628-2.974l-1.4,2.461a.987.987,0,0,1,.191-.068q.228-.06-.208.017l.134,0c.22.014.182,0-.113-.032L109.684,2.8a19.627,19.627,0,0,0,.585,4.843A12.33,12.33,0,0,0,112.4,12.5a2,2,0,0,0,1.414.586,2.036,2.036,0,0,0,1.414-.586,2.01,2.01,0,0,0,.586-1.414,2.318,2.318,0,0,0-.586-1.414c.433.545.084.1-.008-.054s-.169-.294-.245-.445-.3-.72-.068-.114c-.066-.175-.138-.347-.2-.523a19.107,19.107,0,0,1-.6-2.055c-.132-.556-.245-1.116-.335-1.68-.012-.075-.07-.485-.023-.134s0-.046-.008-.094c-.019-.182-.033-.364-.041-.547-.02-.408-.015-.818-.011-1.227A2.013,2.013,0,0,0,112.216.866a4.118,4.118,0,0,0-2.131.085,2.081,2.081,0,0,0-1.4,2.461,21.464,21.464,0,0,0,1.5,5.452c.289.643.619,1.269.969,1.881A6.283,6.283,0,0,0,112.4,12.5a2.154,2.154,0,0,0,1.414.586,2,2,0,0,0,1.414-3.414Z"/><path class="d" d="M201.611,54.3a19.782,19.782,0,0,0-9.113,1.729c-6.392,3.009-8.476,11.774-3.028,16.469.829,1.164,5.665,2.945,9.024,2.033a13.508,13.508,0,0,0,7.77-5.438c2.059-3.049,2.291-4.975,1.94-8.444-.254-2.521-.279-6.077,2.4-7.6C208.943,53.11,203.574,54.339,201.611,54.3Z"/><path class="a" d="M201.611,52.3c-5.375-.071-11.188,1.238-14.619,5.7a12.147,12.147,0,0,0-1.513,12.56c1.984,4.181,6.448,6.216,10.928,6.222,5.31.008,10.33-3.841,12.638-8.451a14.127,14.127,0,0,0,1.136-7.921c-.163-1.844-.386-4.523,1.437-5.638,1.617-.989,1.043-3.836-1.01-3.727-3.051.161-6.063,1.262-9,1.255-2.574-.007-2.578,3.993,0,4a28.824,28.824,0,0,0,4.865-.614c.844-.144,1.686-.3,2.531-.435a9.742,9.742,0,0,1,1.6-.206L209.6,51.32a7.189,7.189,0,0,0-3.318,5.153,34.871,34.871,0,0,0,.055,6.156c.072,4.147-2.969,7.817-6.68,9.4a8.633,8.633,0,0,1-5.651.447,10.123,10.123,0,0,1-2.238-.769c-.126-.064-.908-.576-.6-.322a11.073,11.073,0,0,1-.9-.877,7.48,7.48,0,0,1-.967-8.755c2.366-4.473,7.636-5.516,12.3-5.454C204.186,56.335,204.187,52.335,201.611,52.3Z"/><path class="a" d="M187.416,72.114a1.788,1.788,0,0,1-.113.355l.2-.478a9.287,9.287,0,0,1-.956,1.612q-.147.21-.3.415l-.073.1q-.144.19.2-.252l-.134.169c-.177.216-.367.419-.558.623q-.729.776-1.518,1.491c-.3.274-.612.54-.926.8q-.272.224-.546.442l-.242.19.154-.12-.207.158,2.423.313c-.049-.041-.095-.084-.144-.126-.237-.2.218.345.106.154a4.215,4.215,0,0,1-.2-.375l.2.478c-.039-.093-.075-.187-.11-.281l-.919,2.258a17.008,17.008,0,0,0,2-1.17q.285-.2.562-.416c.213-.161.875-.646.245-.188.052-.038.1-.077.153-.116.241-.18.485-.357.725-.538a10.578,10.578,0,0,0,3.641-3.953,2.188,2.188,0,0,0,.2-1.541,2,2,0,0,0-2.46-1.4,1.926,1.926,0,0,0-1.195.919,5.659,5.659,0,0,1-.566.992c-.195.279.315-.376.077-.1-.063.073-.124.148-.188.221q-.175.2-.365.387c-.257.257-.528.5-.808.731-.138.115-.281.226-.422.339.561-.453.082-.065-.066.045-.224.167-.45.33-.672.5l-.325.25q-.408.315.006,0l-.094.071c-.169.125-.337.251-.509.372a17.109,17.109,0,0,1-1.955,1.142,2.012,2.012,0,0,0-.919,2.259,4.215,4.215,0,0,0,1.177,1.915,2.2,2.2,0,0,0,1.148.55,1.834,1.834,0,0,0,1.276-.237,32.122,32.122,0,0,0,4.331-3.841,15.646,15.646,0,0,0,1.483-1.935,6.244,6.244,0,0,0,1.046-2.116,2.14,2.14,0,0,0-.2-1.541,2,2,0,0,0-3.655.478Z"/><path class="e" d="M389.611,258.844c-2.455,2.829-6.029,1.889-8.145-.891-3.283,2.656-6.693.872-8.079-2.446-4.5,1.717-7.253-1.67-7.052-5.653-4,1.042-6.419-2.13-6.264-5.842-3.743-.024-5.359-3.386-4.6-6.825-7.786-2.071-7.249-22.126-2.1-25.217-3.547-2.269-2.8-6.262.123-8.655-2.55-2.512-1.5-5.971,1.295-7.975-2.761-3.19-1.287-13.335,4.937-16.706-2.487-3.624-.038-7.084,3.753-8.02-1.356-4.1,1.813-6.721,5.618-6.666-1.653-4.4,1.819-7.174,5.868-6.942-.065-4.715,4.462-6.125,8.323-4.282,1.033-4.387,5.309-4.856,8.546-2.589,2.149-3.872,6.592-3.067,9.13.178,3.151-3.058,6.914-1.3,8.49,2.2,4.055-1.5,6.814,1.673,6.841,5.556,4.212.117,5.632,3.83,4.428,7.332,4.573.448,5.593,4.6,3.776,8.078,4.4,1.1,4.813,5.349,2.524,8.537,3.573,1.385,3.854,5.115,1.877,8.037,4.026,1.289,4.322,5.332,2.112,8.383,4.01.816,4.777,4.841,2.93,8.17,3.675,2.37,2.843,6.393-.164,8.722,3.642,2.7,2.549,6.622-.585,8.7,2.684,3.524.464,7.055-3.218,8.183,1.817,4.4-1.455,7.245-5.423,7.188.99,3.735-1.852,6.144-5.364,6.256l-.671.021,0,.02c.884,3.857-2.366,6.241-6.122,6.036-.429,4.254-4.492,5.354-8,3.685-.984,3.682-4.614,4.381-7.716,2.777"/><path class="f" d="M213.243,258.677c-2.455,2.829-6.029,1.889-8.144-.891-3.284,2.656-6.693.872-8.079-2.446-4.5,1.717-7.254-1.67-7.052-5.652-4,1.041-6.419-2.13-6.265-5.843-7.37-1.4-8.927-11.785-7.045-14.984-3.364-2.007-2.862-5.992-.144-8.578-3.2-2.311-2.385-6.166.488-8.48-3.547-2.269-5.021-12.613,1.417-16.63-2.761-3.19-.69-7,3.045-8.408-2.9-2.986-1.364-6.608,1.893-8.3-2.487-3.623-.039-7.084,3.753-8.019-1.356-4.1,1.812-6.722,5.618-6.667-1.653-4.4,1.819-7.174,5.868-6.942-.066-4.714,4.462-6.124,8.323-4.282,1.033-4.387,5.308-4.856,8.545-2.589,2.15-3.872,6.593-3.066,9.131.179,3.151-3.059,6.914-1.3,8.49,2.2,4.054-1.5,6.814,1.673,6.84,5.556,5.612.4,10.022,11.93,8.2,15.41,4.4,1.1,4.814,5.349,2.525,8.537,3.572,1.385,3.854,5.115,1.877,8.037,4.026,1.289,4.321,5.332,2.112,8.383,4.01.816,4.777,4.841,2.929,8.171,3.676,2.369,2.844,6.392-.163,8.722,3.641,2.7,4.313,13.4-3.8,16.886,1.817,4.4-1.455,7.244-5.422,7.187.99,3.735-1.852,6.144-5.365,6.256l-.67.021,0,.02c.884,3.857-2.366,6.241-6.123,6.036-.428,4.254-4.491,5.354-8,3.685-.985,3.682-4.615,4.381-7.716,2.777"/><path class="e" d="M40.837,258.677c-2.455,2.829-6.029,1.889-8.145-.891-3.283,2.656-6.693.872-8.079-2.446-4.5,1.717-7.253-1.67-7.052-5.652-4,1.041-6.419-2.13-6.264-5.843-3.743-.024-5.359-3.386-4.6-6.825-3.737-1.04-4.327-4.96-2.446-8.159-3.363-2.007-2.862-5.992-.144-8.578-3.2-2.311-2.384-6.166.488-8.48-3.547-2.269-2.8-6.262.123-8.655-2.55-2.512-1.495-5.971,1.3-7.975-2.761-3.19-.69-7,3.044-8.408-2.9-2.986-1.363-6.608,1.893-8.3-2.487-3.623-.038-7.084,3.753-8.019-1.356-4.1,1.813-6.722,5.618-6.667-1.653-4.4,1.819-7.174,5.868-6.942-.065-4.714,4.462-6.124,8.323-4.282,1.033-4.387,5.309-4.856,8.546-2.589,2.149-3.872,6.592-3.066,9.13.179,3.151-3.059,6.914-1.3,8.49,2.2,4.055-1.5,6.814,1.673,6.841,5.556,4.212.117,5.632,3.83,4.428,7.332,4.573.448,5.593,4.6,3.776,8.078,6.925,1.652,6.378,13.652,4.4,16.574,4.026,1.289,4.322,5.332,2.112,8.383,4.01.816,4.777,4.841,2.93,8.171,3.675,2.369,2.843,6.392-.164,8.722,3.642,2.7,2.549,6.621-.585,8.7,2.684,3.524.86,13.582-8.641,15.371.99,3.735-1.852,6.144-5.364,6.256l-.671.021,0,.02c.884,3.857-2.366,6.241-6.122,6.036-.429,4.254-4.492,5.354-8,3.685-.984,3.682-4.614,4.381-7.716,2.777"/><path class="a" d="M36.625,258.289a5.277,5.277,0,0,1-2.518-1.917,1.992,1.992,0,0,0-2.424-.313c-.91.693-1.957,1.31-3.115.849a4.531,4.531,0,0,1-2.228-2.577,2,2,0,0,0-2.258-.919c-1.171.415-2.456.66-3.441-.268a4.452,4.452,0,0,1-1.08-3.456,2.022,2.022,0,0,0-2.531-1.929c-2.616.605-3.782-1.583-3.733-3.914a2.034,2.034,0,0,0-2-2c-2.342-.083-3.078-2.244-2.671-4.294a2.052,2.052,0,0,0-1.4-2.46c-2.456-.759-2.324-3.308-1.251-5.221a2.042,2.042,0,0,0-.717-2.736c-2.213-1.41-1.3-3.884.26-5.437a2.035,2.035,0,0,0-.4-3.141c-2.081-1.6-.682-4.013.893-5.339a2.021,2.021,0,0,0-.4-3.141c-2.311-1.569-1.249-4,.527-5.514a2.024,2.024,0,0,0,0-2.828c-1.514-1.595-.721-3.618.89-4.834a2.048,2.048,0,0,0,.4-3.141c-1.654-2.028.135-4.251,2.162-5.065a2.032,2.032,0,0,0,.882-3.343c-1.812-1.982-.572-4.028,1.488-5.157a2.02,2.02,0,0,0,.718-2.737,2.858,2.858,0,0,1-.4-3.131,4.634,4.634,0,0,1,2.959-1.95,2.025,2.025,0,0,0,1.4-2.46c-.809-2.682,1.133-4.119,3.689-4.135a2.016,2.016,0,0,0,1.929-2.531c-.415-1.192-.588-2.4.382-3.359a4.7,4.7,0,0,1,3.557-1.052,2.026,2.026,0,0,0,2-2c.031-3,2.9-3.653,5.314-2.555a2.032,2.032,0,0,0,2.938-1.195c.769-2.943,3.4-2.877,5.607-1.394a2.024,2.024,0,0,0,2.737-.717c1.6-2.712,4.367-1.407,5.989.583a2.028,2.028,0,0,0,2.829,0c2.152-1.973,4.272-.455,5.348,1.8a2.008,2.008,0,0,0,2.259.92,2.855,2.855,0,0,1,3.088.345,4.555,4.555,0,0,1,1.221,3.282,2.045,2.045,0,0,0,2,2c2.718.146,3.221,2.553,2.5,4.8a2.03,2.03,0,0,0,1.929,2.532c2.723.331,3.108,2.943,2.049,5.069a2.031,2.031,0,0,0,1.2,2.938,1.837,1.837,0,0,1,.685.275c2.279,1.192,4.3-2.259,2.019-3.454a9.458,9.458,0,0,0-1.64-.678l1.2,2.938a8.41,8.41,0,0,0,.508-7.195c-1.092-2.476-3.449-3.582-6.011-3.893l1.928,2.532a8.264,8.264,0,0,0-.452-6.6,6.911,6.911,0,0,0-5.9-3.268l2,2a8.588,8.588,0,0,0-2.6-6.3,6.749,6.749,0,0,0-6.768-1.182l2.258.92a8.287,8.287,0,0,0-5-4.527,6.946,6.946,0,0,0-6.633,1.918H53.6a8.707,8.707,0,0,0-6.267-3.35,6.735,6.735,0,0,0-6,3.577l2.736-.718a8.427,8.427,0,0,0-6.77-1.369,6.877,6.877,0,0,0-4.713,5.153l2.938-1.195a9.039,9.039,0,0,0-7.653-.318,6.774,6.774,0,0,0-3.68,6.327l2-2a8.5,8.5,0,0,0-6.58,2.426,6.855,6.855,0,0,0-1.216,7.048l1.928-2.532a8.445,8.445,0,0,0-6.252,2.465,6.828,6.828,0,0,0-1.294,6.733l1.4-2.46a8.524,8.524,0,0,0-5.5,4.057,6.8,6.8,0,0,0,.546,6.9l.717-2.736a8.275,8.275,0,0,0-4.209,5.008,6.9,6.9,0,0,0,1.912,6.431l.882-3.343a8.943,8.943,0,0,0-5.352,4.934A6.741,6.741,0,0,0,4.6,196.587L5,193.446c-3.668,2.77-5.147,7.486-1.7,11.116v-2.828a8.359,8.359,0,0,0-3.08,5.932,6.861,6.861,0,0,0,3.362,5.864l-.4-3.141a8.425,8.425,0,0,0-3.122,5.8A6.78,6.78,0,0,0,3.1,222.01l-.4-3.141c-3.477,3.451-3.887,8.892.549,11.719l-.717-2.737c-2.376,4.233-1.359,9.551,3.64,11.1l-1.4-2.46c-.923,4.643,1.438,9.176,6.528,9.357l-2-2a8.391,8.391,0,0,0,2.259,6.219,6.857,6.857,0,0,0,6.537,1.552l-2.532-1.928a8.29,8.29,0,0,0,2.45,6.468,6.992,6.992,0,0,0,7.134,1.113l-2.258-.919c1.927,4.325,6.885,6.157,10.815,3.163l-2.424-.313a8.819,8.819,0,0,0,4.283,2.946c2.462.773,3.515-3.088,1.064-3.857Z"/><path class="a" d="M255.286,228.426a4.78,4.78,0,0,1-2.483,1.7,2.021,2.021,0,0,0-1.4,2.46c.44,1.142.747,2.4-.121,3.421a4.356,4.356,0,0,1-3.372,1.235,2.026,2.026,0,0,0-1.929,2.532c.647,2.753-1.816,3.672-4.107,3.745a2.028,2.028,0,0,0-1.928,2.532c.6,2.6-2.07,3.6-4.19,3.524a2.054,2.054,0,0,0-2,2c-.322,2.539-3.027,2.846-4.995,1.958a2.036,2.036,0,0,0-2.938,1.195,2.677,2.677,0,0,1-1.8,2.014c-2.451.758-1.405,4.62,1.064,3.857a6.822,6.822,0,0,0,4.6-4.807l-2.938,1.195a8.681,8.681,0,0,0,7.178.378c2.4-1.063,3.519-3.292,3.836-5.79l-2,2c4.882.166,9.233-3.424,8.047-8.587l-1.929,2.531a9.125,9.125,0,0,0,6.249-2.173,6.74,6.74,0,0,0,1.715-6.636l-1.928,2.532a8.348,8.348,0,0,0,6.381-2.616,6.9,6.9,0,0,0,.97-7.1l-1.4,2.46a9.229,9.229,0,0,0,4.873-3.535c1.472-2.119-1.994-4.121-3.454-2.019Z"/><path class="a" d="M178,198.087a7.1,7.1,0,0,1,1.157-1.187,2.048,2.048,0,0,0,.405-3.141c-1.653-2.028.136-4.251,2.162-5.065a2.032,2.032,0,0,0,.883-3.343c-1.812-1.982-.572-4.028,1.488-5.157a2.02,2.02,0,0,0,.717-2.737,2.856,2.856,0,0,1-.4-3.131,4.631,4.631,0,0,1,2.959-1.95,2.027,2.027,0,0,0,1.4-2.46c-.81-2.682,1.132-4.119,3.689-4.135a2.016,2.016,0,0,0,1.928-2.531c-.414-1.192-.588-2.4.382-3.359a4.7,4.7,0,0,1,3.557-1.052,2.026,2.026,0,0,0,2-2c.032-3,2.9-3.653,5.315-2.555a2.032,2.032,0,0,0,2.938-1.195c.769-2.943,3.4-2.877,5.607-1.394a2.023,2.023,0,0,0,2.736-.717c1.6-2.712,4.367-1.407,5.99.583a2.026,2.026,0,0,0,2.828,0c2.153-1.973,4.272-.455,5.349,1.8a2.006,2.006,0,0,0,2.258.92,2.855,2.855,0,0,1,3.088.345,4.555,4.555,0,0,1,1.221,3.282,2.024,2.024,0,0,0,3.01,1.727l.035-.018-1.01.273c.344,0-.536-.112.116.017.23.045.46.095.688.149a1.975,1.975,0,0,1,.913.362,7.736,7.736,0,0,1,2.269,3.292,2.014,2.014,0,0,0,2.736.717,2.051,2.051,0,0,0,.718-2.736,9.959,9.959,0,0,0-4.158-4.984c-1.185-.6-3.1-1.164-4.326-.526l3.009,1.727a8.588,8.588,0,0,0-2.6-6.3,6.748,6.748,0,0,0-6.768-1.182l2.259.92a8.291,8.291,0,0,0-5-4.527,6.944,6.944,0,0,0-6.632,1.918h2.828a8.707,8.707,0,0,0-6.267-3.35,6.736,6.736,0,0,0-6,3.577l2.737-.718a8.429,8.429,0,0,0-6.77-1.369,6.88,6.88,0,0,0-4.714,5.153l2.938-1.195a9.039,9.039,0,0,0-7.653-.318,6.778,6.778,0,0,0-3.68,6.327l2-2a8.5,8.5,0,0,0-6.58,2.426,6.857,6.857,0,0,0-1.216,7.048l1.929-2.532a8.447,8.447,0,0,0-6.253,2.465,6.833,6.833,0,0,0-1.294,6.733l1.4-2.46a8.519,8.519,0,0,0-5.494,4.057,6.8,6.8,0,0,0,.545,6.9l.718-2.736a8.28,8.28,0,0,0-4.21,5.008,6.9,6.9,0,0,0,1.912,6.431l.883-3.343a8.945,8.945,0,0,0-5.353,4.934,6.741,6.741,0,0,0,1.426,6.817l.4-3.141a11.24,11.24,0,0,0-1.968,1.812c-1.618,1.977,1.2,4.823,2.829,2.829Z"/><path class="a" d="M208.687,258.268a5.317,5.317,0,0,1-2.444-1.9,1.992,1.992,0,0,0-2.424-.313c-.91.693-1.957,1.31-3.115.849a4.529,4.529,0,0,1-2.227-2.577,2,2,0,0,0-2.259-.919c-1.171.415-2.455.66-3.441-.268a4.451,4.451,0,0,1-1.079-3.456,2.022,2.022,0,0,0-2.532-1.929c-2.621.609-3.783-1.582-3.733-3.914.056-2.575-3.944-2.575-4,0a8.413,8.413,0,0,0,2.258,6.214,6.83,6.83,0,0,0,6.539,1.557l-2.532-1.928a8.287,8.287,0,0,0,2.45,6.468,6.992,6.992,0,0,0,7.134,1.113l-2.259-.919c1.928,4.325,6.885,6.157,10.815,3.163l-2.423-.313a8.866,8.866,0,0,0,4.208,2.925c2.451.807,3.5-3.054,1.064-3.857Z"/><path class="a" d="M211.083,285.768c.71-8.973,1.51-19.2,1.829-25.6.288-5.757,1.339-22.176,1.419-24.516.091-2.657-.213-5.592-.236-8.824a25.741,25.741,0,0,1-8.08-5.908c-2.206-2.6-4.769-8.281-4.3-11.692a24.171,24.171,0,0,1,2.946-.669c.6,1.356,2.2,6.391,4.093,8.417,2.514,2.694,3.917,3.242,5.538,3.579.2-4.643.421-10.971.647-15.425.08-1.587.522-10.327.643-12.215.683,0,2.567.12,3.371.12.177,1.444.457,19.129.521,22.663.041,2.3.471,16.736.483,18.524,3.445-2.3,8.215-7.637,9.987-11.518.737-1.614,2.058-4.287,2.582-5.753a9.652,9.652,0,0,1,3.263.8c-.161,3.295-3.244,9.615-5.625,13.26a59.038,59.038,0,0,1-9.97,9.851c-.057,1.472-.23,14.947-.23,20.133,0,5.968.532,15.955,1.02,24.891"/><path class="a" d="M358.014,183.191a4.348,4.348,0,0,1,2.452-3,2.021,2.021,0,0,0,.718-2.737,2.858,2.858,0,0,1-.4-3.131,4.634,4.634,0,0,1,2.959-1.95,2.026,2.026,0,0,0,1.4-2.46c-.809-2.682,1.133-4.119,3.689-4.135a2.016,2.016,0,0,0,1.929-2.531c-.415-1.192-.588-2.4.382-3.359a4.7,4.7,0,0,1,3.557-1.052,2.026,2.026,0,0,0,2-2c.031-3,2.9-3.653,5.314-2.555a2.032,2.032,0,0,0,2.938-1.195c.769-2.943,3.4-2.877,5.607-1.394a2.024,2.024,0,0,0,2.737-.717c1.6-2.712,4.367-1.407,5.989.583a2.026,2.026,0,0,0,2.828,0c2.153-1.973,4.272-.455,5.349,1.8a2.008,2.008,0,0,0,2.259.92,2.855,2.855,0,0,1,3.088.345,4.559,4.559,0,0,1,1.221,3.282,2.045,2.045,0,0,0,2,2c2.718.146,3.221,2.553,2.5,4.8a2.03,2.03,0,0,0,1.929,2.532c2.722.331,3.108,2.943,2.049,5.069a2.028,2.028,0,0,0,1.195,2.938c2.921.806,2.838,3.408,1.329,5.6-.816,1.184.107,2.48,1.195,2.938,2.251.947,1.758,3.433.682,5.1a2.024,2.024,0,0,0,1.195,2.938c2.645.923,2.25,3.526.917,5.445a2.013,2.013,0,0,0,1.2,2.938c2.642.612,2.88,3.068,1.734,5.233a2.055,2.055,0,0,0,.717,2.736c2.385,1.63,1.326,4.048-.568,5.581a2,2,0,0,0,0,2.829c.961.751,1.9,1.7,1.679,3.025a4.234,4.234,0,0,1-1.859,2.536,2.026,2.026,0,0,0-.718,2.737,3.088,3.088,0,0,1,.71,3.112,4.36,4.36,0,0,1-2.733,2.133,2.019,2.019,0,0,0-1.4,2.46c.439,1.142.746,2.4-.122,3.421a4.356,4.356,0,0,1-3.372,1.235,2.025,2.025,0,0,0-1.928,2.532c.646,2.753-1.817,3.672-4.107,3.745a2.029,2.029,0,0,0-1.929,2.532c.6,2.6-2.07,3.6-4.189,3.524a2.053,2.053,0,0,0-2,2c-.323,2.539-3.028,2.846-5,1.958a2.036,2.036,0,0,0-2.938,1.195,2.714,2.714,0,0,1-2.275,2.118c-2.522.507-1.455,4.363,1.063,3.857a6.7,6.7,0,0,0,5.069-4.911l-2.938,1.195a8.681,8.681,0,0,0,7.178.378c2.4-1.063,3.52-3.292,3.837-5.79l-2,2c4.881.166,9.232-3.424,8.046-8.587l-1.928,2.531a9.122,9.122,0,0,0,6.248-2.173,6.741,6.741,0,0,0,1.716-6.636l-1.929,2.532a8.349,8.349,0,0,0,6.382-2.616,6.906,6.906,0,0,0,.969-7.1l-1.4,2.46a8.479,8.479,0,0,0,5.255-4.255,6.771,6.771,0,0,0-.841-6.866l-.718,2.736a8.23,8.23,0,0,0,3.8-5.7,6.83,6.83,0,0,0-2.813-6.141v2.829a8.208,8.208,0,0,0,3.183-5.905,6.956,6.956,0,0,0-3.424-5.958l.718,2.736c2.3-4.339,1.14-9.89-4.125-11.109l1.2,2.938a8.334,8.334,0,0,0,1.456-6.526,6.866,6.866,0,0,0-4.763-4.795l1.195,2.938a8.335,8.335,0,0,0,1.316-6.277,6.813,6.813,0,0,0-4.389-4.7l1.2,2.938a8.34,8.34,0,0,0,1.416-6.722,6.93,6.93,0,0,0-5.136-4.753l1.2,2.938a8.41,8.41,0,0,0,.508-7.195c-1.092-2.476-3.449-3.582-6.011-3.893l1.928,2.532a8.268,8.268,0,0,0-.452-6.6,6.911,6.911,0,0,0-5.9-3.268l2,2a8.592,8.592,0,0,0-2.6-6.3,6.751,6.751,0,0,0-6.769-1.182l2.259.92a8.29,8.29,0,0,0-5-4.527,6.946,6.946,0,0,0-6.633,1.918h2.828a8.7,8.7,0,0,0-6.266-3.35,6.735,6.735,0,0,0-6,3.577l2.736-.718a8.427,8.427,0,0,0-6.77-1.369,6.877,6.877,0,0,0-4.713,5.153l2.938-1.195a9.039,9.039,0,0,0-7.653-.318,6.774,6.774,0,0,0-3.68,6.327l2-2a8.5,8.5,0,0,0-6.58,2.426,6.857,6.857,0,0,0-1.217,7.048l1.929-2.532a8.443,8.443,0,0,0-6.252,2.465,6.828,6.828,0,0,0-1.294,6.733l1.4-2.46a8.524,8.524,0,0,0-5.495,4.057,6.8,6.8,0,0,0,.546,6.9l.717-2.736a8.182,8.182,0,0,0-4.29,5.387c-.5,2.514,3.351,3.59,3.857,1.064Z"/><path class="a" d="M385.409,258.357a5.134,5.134,0,0,1-2.8-1.985,1.991,1.991,0,0,0-2.423-.313c-.91.693-1.957,1.31-3.116.849a4.529,4.529,0,0,1-2.227-2.577,2,2,0,0,0-2.258-.919c-1.171.415-2.456.66-3.441-.268a4.452,4.452,0,0,1-1.08-3.456,2.022,2.022,0,0,0-2.531-1.929c-2.616.605-3.782-1.583-3.733-3.914a2.034,2.034,0,0,0-2-2c-2.342-.083-3.079-2.244-2.671-4.294a2.052,2.052,0,0,0-1.4-2.46,4.384,4.384,0,0,1-2.1-1.326c-1.73-1.914-4.552.922-2.829,2.829a8.409,8.409,0,0,0,3.869,2.354l-1.4-2.46c-.922,4.643,1.439,9.176,6.529,9.357l-2-2a8.391,8.391,0,0,0,2.259,6.219,6.857,6.857,0,0,0,6.537,1.552l-2.532-1.928a8.29,8.29,0,0,0,2.45,6.468,6.992,6.992,0,0,0,7.134,1.113l-2.259-.919c1.928,4.325,6.885,6.157,10.816,3.163l-2.424-.313a8.545,8.545,0,0,0,4.561,3.014c2.5.63,3.562-3.227,1.063-3.857Z"/><path class="a" d="M387.4,286.427c.723-9.126,1.554-19.705,1.882-26.255.288-5.757,1.338-22.176,1.418-24.516.091-2.657-.213-5.592-.236-8.824a25.752,25.752,0,0,1-8.08-5.908c-2.206-2.6-4.769-8.281-4.3-11.692a24.146,24.146,0,0,1,2.947-.669c.6,1.356,2.2,6.391,4.092,8.417,2.514,2.694,3.917,3.242,5.538,3.579.2-4.643.421-10.971.647-15.425.081-1.587.522-10.327.643-12.215.683,0,2.568.12,3.371.12.177,1.444.457,19.129.521,22.663.042,2.3.472,16.736.484,18.524,3.444-2.3,8.214-7.637,9.986-11.518.737-1.614,2.058-4.287,2.583-5.753a9.646,9.646,0,0,1,3.262.8c-.16,3.295-3.244,9.615-5.625,13.26a58.964,58.964,0,0,1-9.97,9.851c-.057,1.472-.229,14.947-.229,20.133,0,6.095.555,16.381,1.05,25.459"/><path class="a" d="M38.944,285.792c.712-8.978,1.512-19.222,1.832-25.62.288-5.757,1.338-22.176,1.418-24.516.091-2.657-.213-5.592-.236-8.824a25.752,25.752,0,0,1-8.08-5.908c-2.206-2.6-4.768-8.281-4.3-11.692a24.146,24.146,0,0,1,2.947-.669c.6,1.356,2.2,6.391,4.092,8.417,2.514,2.694,3.917,3.242,5.538,3.579.2-4.643.421-10.971.647-15.425.081-1.587.523-10.327.643-12.215.683,0,2.568.12,3.371.12.178,1.444.457,19.129.521,22.663.042,2.3.472,16.736.484,18.524,3.444-2.3,8.214-7.637,9.986-11.518.737-1.614,2.058-4.287,2.583-5.753a9.652,9.652,0,0,1,3.263.8c-.161,3.295-3.245,9.615-5.626,13.26a58.964,58.964,0,0,1-9.97,9.851c-.057,1.472-.229,14.947-.229,20.133,0,5.973.533,15.97,1.021,24.91"/><path class="a" d="M354.12,287.851q18.7,0,37.409.008l39.378.014,9.928,0c2.574,0,2.578-4,0-4q-12.663,0-25.324-.008l-42.762-.014q-9.315,0-18.629,0c-2.574,0-2.578,4,0,4Z"/><path class="a" d="M172.831,287.851q18.149,0,36.3,0l48.7.006H269.3c2.574,0,2.578-4,0-4q-15.39,0-30.779,0l-50.257-.006h-15.43c-2.573,0-2.578,4,0,4Z"/><path class="a" d="M4.8,287.851q19.1,0,38.2.008l41.078.014,10.338,0c2.574,0,2.578-4,0-4q-13.064,0-26.129-.008l-44.425-.014q-9.528,0-19.057,0c-2.574,0-2.579,4,0,4Z"/><path class="a" d="M80.139,234.67c-.576,1.316-2.221,3.113-3.831,2.64a2.021,2.021,0,0,0-2.46,2.461c.658,2.8-1.831,3.594-4.1,3.765a2.035,2.035,0,0,0-1.928,2.531c.517,2.6-2.034,3.579-4.194,3.5a2.053,2.053,0,0,0-2,2c-.322,2.539-3.028,2.846-5,1.958a2.036,2.036,0,0,0-2.938,1.195,2.69,2.69,0,0,1-2.131,2.091c-2.506.585-1.445,4.443,1.064,3.857a6.736,6.736,0,0,0,4.925-4.884l-2.938,1.195a8.681,8.681,0,0,0,7.178.378c2.4-1.063,3.519-3.292,3.836-5.79l-2,2a8.656,8.656,0,0,0,6.32-2.178A6.728,6.728,0,0,0,71.674,245l-1.929,2.532c2.311-.173,4.489-.535,6.244-2.193a6.741,6.741,0,0,0,1.716-6.636l-2.46,2.461c3.277.961,7.042-1.493,8.348-4.479a2.065,2.065,0,0,0-.718-2.736,2.014,2.014,0,0,0-2.736.717Z"/><path class="g" d="M298.866,116.305a20.358,20.358,0,0,0-8.264-3.249l-5.9-1.248-2.906,1.221a28.356,28.356,0,0,0-.034,7.057c.139,3.911.344,9.339-3.1,11.506a3.636,3.636,0,0,0-1.547,1.773c-.728,2,1,2.763,2.113,3.815a5.96,5.96,0,0,1,1.523,2.445c.25,2.1,1.166,6.81,2.677,9.262a7.476,7.476,0,0,0,4.352,3.517,18.023,18.023,0,0,0,9.67.132,1.3,1.3,0,0,1,1.582.665c.226.465,2.2,3.882,2.492,6.857,2.748-.985,6.464-2.1,8.932-2.945,2.892-.987,9.454-3.481,13.893-4.533-.072-.373-.145-.761-.22-1.157a13.282,13.282,0,0,1-.042-1.845,7.469,7.469,0,0,1,.687-3.393c-4.666-2.935-8.4-7.88-11.012-11.5a11.457,11.457,0,0,0,2.24-6.758c-.009-1.615-.508-3.423-1.929-4.192a3.467,3.467,0,0,0-3.09.017,6.1,6.1,0,0,0-2.608,2.7c-2.528.093-3.593-5.3-6.493-7.822A29.459,29.459,0,0,0,298.866,116.305Z"/><path class="h" d="M284.705,111.808l-3.048,1.281a21.044,21.044,0,0,1,1.908-7.6,24.795,24.795,0,0,1,22.668-14.631c2.171-.06,17.414-.282,25.741,11.586a28.251,28.251,0,0,1,4.887,15.292c.077,11.189-5.8,19.055-8.158,22.392a34.958,34.958,0,0,0-3.928,6.054c-4.666-2.935-8.4-7.88-11.012-11.5a11.457,11.457,0,0,0,2.24-6.758c-.009-1.615-.508-3.423-1.929-4.192a3.467,3.467,0,0,0-3.09.017,6.1,6.1,0,0,0-2.608,2.7c-2.528.093-3.593-5.3-6.493-7.822a21.758,21.758,0,0,0-11.281-5.578Z"/><path class="a" d="M312.721,136.642c2.979,4.051,6.206,7.967,10.384,10.837a2.011,2.011,0,0,0,2.736-.717,2.051,2.051,0,0,0-.717-2.736c-.234-.161-.466-.324-.694-.492-.037-.027-.488-.371-.139-.1-.113-.087-.224-.176-.335-.265-.468-.377-.923-.77-1.366-1.174-.864-.789-1.684-1.624-2.471-2.489-.763-.84-1.494-1.708-2.2-2.594-.167-.209-.331-.419-.5-.628-.316-.4.155.2-.024-.031l-.235-.308q-.5-.657-.987-1.322a2.049,2.049,0,0,0-2.736-.717,2.023,2.023,0,0,0-.718,2.736Z"/><path class="a" d="M290.07,114.985a20.8,20.8,0,0,1,10.309,4.986,14.908,14.908,0,0,1,2.935,4.163c.808,1.433,1.7,3.063,3.21,3.865,2.272,1.209,4.3-2.243,2.019-3.454-.184-.1-.336-.217-.09-.013a3.84,3.84,0,0,1-.352-.335c-.069-.074-.338-.409-.137-.144-.116-.153-.223-.315-.329-.476-.476-.728-.885-1.5-1.314-2.256a16.2,16.2,0,0,0-3.658-4.641,24.221,24.221,0,0,0-11.529-5.552,2.06,2.06,0,0,0-2.461,1.4,2.017,2.017,0,0,0,1.4,2.46Z"/><path class="a" d="M310.408,126.937a3.73,3.73,0,0,1,1.56-1.438,1.776,1.776,0,0,1,.76-.121c-.25-.027.584.142.367.1-.091-.03-.046,0,.136.088-.122-.111-.132-.12-.028-.028.058.049.383.418.283.282a4.109,4.109,0,0,0,.238.445c-.146-.3.056.181.076.249.058.19.095.384.142.577.1.4.014-.2.036.256.009.2.023.391.025.587a9.871,9.871,0,0,1-.069,1.263c.041-.337-.056.3-.056.3-.04.206-.086.412-.137.616-.1.41-.238.808-.376,1.207-.209.6.147-.276-.122.3-.089.191-.18.381-.278.568a12.04,12.04,0,0,1-.646,1.089,8.843,8.843,0,0,1-1.461,1.677,6.61,6.61,0,0,1-.826.675,11.5,11.5,0,0,1-1.173.706,2,2,0,1,0,2.019,3.453A13.6,13.6,0,0,0,318,127.932c-.023-2.553-1.059-5.251-3.6-6.221-2.989-1.141-5.851.777-7.447,3.208a2,2,0,1,0,3.454,2.018Z"/><path class="a" d="M281.756,144.3a10.393,10.393,0,0,0,2.048-.094,8.176,8.176,0,0,0,1.637-.357,6.146,6.146,0,0,0,2.338-1.354,2.062,2.062,0,0,0,.586-1.414,2,2,0,0,0-3.414-1.415,2.506,2.506,0,0,1-.227.2l.405-.313a4.26,4.26,0,0,1-.932.527l.478-.2a6.779,6.779,0,0,1-1.668.436l.531-.071a9.4,9.4,0,0,1-1.782.058,2,2,0,0,0-1.415,3.414,2.2,2.2,0,0,0,1.415.586Z"/><path class="a" d="M285.786,125.751c-.327,1.146-.089,3.77,1.972,3.972,2.722-.045,2.844-3.222,1.916-4.706C288.915,123.8,286.705,123.317,285.786,125.751Z"/><path class="a" d="M279.71,113.739c-.435,4.4.838,9.012-.321,13.338a5.513,5.513,0,0,1-.987,2.117c-.617.751-1.553,1.134-2.19,1.876a4.471,4.471,0,0,0,.047,6.182,24.69,24.69,0,0,1,1.964,1.774A4.1,4.1,0,0,1,279,141.4a31,31,0,0,0,1.537,5.993,11.966,11.966,0,0,0,3.957,5.587,12.925,12.925,0,0,0,6.426,2.03,19.555,19.555,0,0,0,4.069.031,17.142,17.142,0,0,0,2-.306,2.672,2.672,0,0,0,.828-.223c.383-.272-.433-.412-.481-.231-.1.351.968,1.916,1.115,2.257a13.012,13.012,0,0,1,1.067,3.517,2.061,2.061,0,0,0,2,2,2.012,2.012,0,0,0,2-2,20.215,20.215,0,0,0-2.083-6.543c-.845-1.721-1.985-3.4-4.211-2.973a22.805,22.805,0,0,1-3.023.565,18.537,18.537,0,0,1-3.571-.128c-2.132-.293-3.967-.893-5.238-2.724a16.178,16.178,0,0,1-2.1-5.7c-.466-2.055-.417-3.8-1.619-5.55a11.8,11.8,0,0,0-2.163-2.19,2.149,2.149,0,0,1-.615-.653c.148.324.071-.2.37-.518.646-.695,1.534-1.1,2.153-1.854a9.284,9.284,0,0,0,1.536-2.745c1.8-4.894.253-10.269.752-15.308a2.014,2.014,0,0,0-2-2,2.045,2.045,0,0,0-2,2Z"/><path class="a" d="M283.615,115.1a21.888,21.888,0,0,1,9.47-18.073c5.482-3.855,12.515-4.748,18.706-3.851,7.843,1.137,15.357,4.873,19.487,11.888,5.276,8.963,4.231,19.764-.737,28.589a53.835,53.835,0,0,1-2.946,4.6,56.037,56.037,0,0,0-4.109,6,12.81,12.81,0,0,0-1.109,8.63,39.042,39.042,0,0,0,1.944,7.813,2.068,2.068,0,0,0,2.461,1.4,2.013,2.013,0,0,0,1.4-2.46,36.892,36.892,0,0,1-1.859-7.363,9.256,9.256,0,0,1,1.313-7.189c2.078-3.3,4.611-6.247,6.507-9.671,5.367-9.694,6.449-21.348,1.167-31.336C331,95.927,322.7,90.991,313.787,89.463c-7.018-1.2-14.375-.74-20.7,2.825A26.256,26.256,0,0,0,279.615,115.1c.013,2.573,4.013,2.579,4,0Z"/><path class="a" d="M282.29,114.975l2.947-1.239a2.238,2.238,0,0,0,1.195-.919,1.489,1.489,0,0,0,.237-.744,1.512,1.512,0,0,0-.035-.8,2.025,2.025,0,0,0-.919-1.195l-.478-.2a2.022,2.022,0,0,0-1.064,0l-2.947,1.239a2.065,2.065,0,0,0-1.4,2.46,2.03,2.03,0,0,0,.919,1.2l.478.2a2.022,2.022,0,0,0,1.064,0Z"/><path class="g" d="M264.546,395.426a75.858,75.858,0,0,1,3.748-8.343q-.231-.09-.49-.186a72.327,72.327,0,0,1-11.649-6.077c-.872,1.6-1.941,3.263-2.435,4.19l-5.248,9.864c1.421,1.282,5.095,2.536,6.874,3.085,2.275.7,6,2.037,8.509,1.774.158-1.473.271-2.7.271-2.7A6.489,6.489,0,0,1,264.546,395.426Z"/><path class="g" d="M384.647,374.843a21.655,21.655,0,0,0,3.143,4.008l2.136,1.675c-1.113,2.257-4.236,4.692-6.045,6.242-1.784,1.527-6.129,5-7.45,4.124-.347-1.682-.952-4.518-2.225-5.183a1.672,1.672,0,0,0-.2-.018c-.971-2.236-1.939-4.471-1.939-4.471-.573-1.005-1.529-3.08-2.509-4.772a29.407,29.407,0,0,0,11.328-7.859c.315.633.542,1.083.542,1.083C381.859,370.528,383.248,372.777,384.647,374.843Z"/><path class="g" d="M390.326,378.7a6.423,6.423,0,0,1,3.708,2.031c1.911,1.816,5.279,6.645,5.406,9.406.052,4.139-11.09,12.353-17.013,15.728-3.052,1.738-10.067,6.468-14.256,7.324-4.485.917-10.467-1.062-9.744-5.478.257-1.574,3.607-6.365,4.489-7.414,1.906-2.267,5.15-8.76,7.3-11.451.9-1.124,2.387-3.386,3.994-3.138,1.273.665,1.878,3.5,2.225,5.183,1.321.876,5.666-2.6,7.45-4.124,2.311-1.979,6.766-5.4,6.445-8.067"/><path class="g" d="M265.609,399.094a6.427,6.427,0,0,1,.265,4.22c-.513,2.586-2.8,8.013-5.06,9.6-3.471,2.256-16.368-2.77-22.386-5.972-3.1-1.65-10.848-5.051-13.811-8.134-3.172-3.3-4.7-9.413-.578-11.163,1.468-.624,7.308-.353,8.666-.168,2.935.4,10.156-.33,13.577.045,1.43.157,4.138.207,4.787,1.7.119,1.432-1.955,3.459-3.191,4.651-.034,1.585,5.224,3.4,7.468,4.092,2.908.9,8.184,2.83,10.263,1.135"/><path class="i" d="M390.331,379.216c-.241,2.576-4.286,5.7-6.45,7.552-1.784,1.527-6.129,5-7.45,4.124-.347-1.682-.952-4.518-2.225-5.183-1.607-.248-3.1,2.014-3.994,3.138-2.146,2.691-5.39,9.184-7.3,11.451-.882,1.049-4.232,5.84-4.489,7.414a3.943,3.943,0,0,0,1.388,3.753c4.344-.361,13.037-6.643,19.719-10.676,6.149-3.711,17.21-11.788,18.135-15.263a24.046,24.046,0,0,0-3.635-4.794,6.423,6.423,0,0,0-3.708-2.031A2.331,2.331,0,0,1,390.331,379.216Z"/><path class="i" d="M281.979,194.722c-2.241,3.053-5.059,8.248-8.028,7.808-2.94-.435-6.585-7.881-8.242-10.679a58.747,58.747,0,0,0-3.775-5.736,1.33,1.33,0,0,0-1.6-.4c-2.823,1.28-10.523,5.237-13.666,7.207-.673.422-1.433,1.617-1.061,2.319,2.892,5.464,13,21.7,15.568,25.012,3.492,4.507,6.37,6.642,12.316,6.144a27.461,27.461,0,0,0,12.834-5.022c-.007,3.726-.014,8.117-.014,8.117-1.286,3.858.215,23.576,2.144,29.148,8.468.294,26.083-1.606,36.906-2.088,3.127-.139,12.074.4,14.156-2.894,2.191-3.47-3.642-9.854-4.272-13.291a57.624,57.624,0,0,1-.638-13.88c-2.776-1.283,11.166,6.448,12.475,3.815,1.15-2.312,1.869-5.79,2.6-7.88,1.729-4.913,3.264-9.871,4.975-14.766,1.607-4.594,2.041-8.4-.2-12.89-4.044-8.088-9.247-14.89-15-21.489-3.327-7.023-9.385-11.791-10.591-19.827a1.562,1.562,0,0,0-1.6-1.351c-3.715.136-13.172,3.766-16.813,5.009C306.4,158.5,298.964,160.628,298,161.7c-.576,1.494-.732,5.776-.242,10.147-7.4,4.515-12.654,17.654-15.774,22.877"/><path class="g" d="M315.794,257.159c-8.946.658-19.088,1.531-25.554,1.517.754,2.754,1.615,5.435,2.565,8.06l-.273.7c-5.4,13.809-15.675,37.433-19.543,49.638-2.2,6.951-14.882,44.3-15.952,48.232-.629,2.313-3.953,11.345-3.5,12.455,1.838,2.979,12.48,7.84,14.351,8.533,2.888,1.071,2.966,1.6,4.961-.865,2.515-3.113,10.174-24.029,11.534-27.65,3.02-8.045,8.806-24.892,10.017-28.137,1.259-2.724,8.625-14.265,11.34-18.454a71.153,71.153,0,0,1,5.165-7q.916,1.8,1.818,3.608c8.74,17.606,21.03,30.676,32.173,46.309,4.657,6.534,13.128,15.283,17.877,21.64,2.662,3.176,7.791.389,10.778-1.2,1.606-.855,9.492-6.539,8.275-8.459-.522-1.388-5.731-11.095-6.633-12.419-2.384-3.5-15.074-21.869-18.948-28.728-3.651-6.466-8.992-14.766-11.728-21.729-2.527-6.43-10.8-29.746-11.58-34.012,2.615-1.764,4.314-10.768,4.85-14.092-3.4,1.685-9.863,1.341-12.425,1.455C322.543,256.683,319.258,256.9,315.794,257.159Z"/><path class="g" d="M335.876,227.269c-.484-.249-.884-.465-1.166-.624,0,0-.038-.022-.1-.057a57.491,57.491,0,0,0,.644,13.784,14.1,14.1,0,0,0,1.594,3.692l.869-.293a3.839,3.839,0,0,0,1.832-.832,18.239,18.239,0,0,0,3.024-5.254,63.566,63.566,0,0,1,2.685-6.858C342.706,230.554,338.264,228.5,335.876,227.269Z"/><path class="a" d="M335.863,254.57a68.618,68.618,0,0,1-1.573,7.371c-.19.684-.394,1.365-.623,2.038q-.163.483-.344.958c-.058.153-.119.305-.18.457s.14-.3-.047.1a12.24,12.24,0,0,1-.8,1.5c-.068.1-.148.2-.213.308-.1.161.329-.338.02-.042a3.107,3.107,0,0,0-.226.233c-.29.34.335-.227.058-.031a2.054,2.054,0,0,0-.718,2.736,2.017,2.017,0,0,0,2.737.717c2.337-1.647,3.288-4.778,4.049-7.4a66.18,66.18,0,0,0,1.72-7.89,2.062,2.062,0,0,0-1.4-2.46,2.015,2.015,0,0,0-2.46,1.4Z"/><path class="a" d="M330.232,266.971A56.8,56.8,0,0,0,332.1,273.5c1.126,3.554,2.311,7.09,3.511,10.619,2.192,6.443,4.376,12.907,6.838,19.253a102.518,102.518,0,0,0,7.263,14.323c2.208,3.794,4.358,7.633,6.671,11.364,4.232,6.824,8.78,13.457,13.305,20.089,1.349,1.977,2.8,3.913,4.052,5.956,1.727,2.828,3.242,5.808,4.768,8.747.323.623.645,1.247.957,1.876.112.225.22.452.331.678.2.4.243.536.105.211.435,1.024.074.305.074.058,0-.134-.1-.616,0-.294.055.175-.084.141.036-.047-.1.15-.17.316-.266.467a9.524,9.524,0,0,1-1.328,1.5,30.024,30.024,0,0,1-7.767,5.5c-1.491.731-3.905,1.97-5.6,1.227-.836-.367-1.333-1.327-1.873-2.016-.78-1-1.582-1.976-2.394-2.947-3.453-4.135-7.073-8.127-10.5-12.278-3.512-4.248-6.616-8.817-9.962-13.195-3.55-4.645-7.176-9.231-10.68-13.91-3.515-4.695-6.9-9.49-9.968-14.493-3.195-5.215-5.825-10.716-8.658-16.128-5.532-10.569-11.446-21-15.669-32.191q-1.6-4.244-2.862-8.6c-.713-2.469-4.574-1.419-3.857,1.063,3.479,12.059,9.149,23.27,15,34.318,2.918,5.506,5.71,11.077,8.615,16.589a142.534,142.534,0,0,0,9.621,15.529c6.93,9.847,14.6,19.162,21.7,28.886,3.215,4.4,6.862,8.483,10.43,12.6,1.777,2.052,3.553,4.106,5.263,6.214,1.513,1.864,2.768,4.051,5.307,4.573,3.869.795,8.257-1.5,11.374-3.633a44.2,44.2,0,0,0,4.436-3.455,12.478,12.478,0,0,0,3.164-3.743,3.475,3.475,0,0,0,.3-2.5c-.395-1.318.254.553-.354-.823-.094-.213-.193-.424-.293-.634-.7-1.452-1.457-2.876-2.211-4.3a79.177,79.177,0,0,0-4.291-7.647C367.4,338.693,358.2,325.1,350.3,310.615c-3.686-6.759-6.119-13.96-8.644-21.206-2.423-6.953-4.893-13.922-6.929-21-.237-.825-.48-1.655-.639-2.5-.475-2.527-4.331-1.457-3.857,1.063Z"/><path class="a" d="M290.6,266.9c-6.841,17.458-14.575,34.558-20.434,52.385-4.546,13.832-9.3,27.594-13.795,41.443-.555,1.71-1.056,3.435-1.6,5.148-1.1,3.483-2.626,7-3.173,10.627-.285,1.884.623,3.079,2.038,4.238a35.04,35.04,0,0,0,5.4,3.509,72.9,72.9,0,0,0,9.859,4.565c3.651,1.345,5.811-2.19,7.2-5.021,1.726-3.508,3.173-7.162,4.616-10.793q3.883-9.776,7.432-19.687c1.654-4.59,3.269-9.195,4.883-13.8q1.039-2.961,2.08-5.923.356-1.008.714-2.015c.1-.267.191-.534.288-.8.037-.1.077-.2.11-.3.173-.529-.168.3.013-.039,1.779-3.315,3.788-6.5,5.787-9.689,2.252-3.59,4.466-7.23,6.906-10.7.742-1.054,1.5-2.1,2.291-3.12.2-.261.405-.522.615-.777.225-.272.8-.67.1-.25l-2.424-.313.007.009-.514-1.945-.012.034c-.815,2.448,3.047,3.5,3.858,1.063a2.1,2.1,0,0,0-.511-1.989,2.006,2.006,0,0,0-2.423-.313,5.445,5.445,0,0,0-1.332,1.4q-1.151,1.459-2.24,2.963c-1.274,1.751-2.458,3.557-3.628,5.379-2.349,3.658-4.679,7.331-6.943,11.044a42.026,42.026,0,0,0-3.992,7.794c-1.356,3.814-2.684,7.639-4.027,11.457-2.468,7.019-4.993,14.015-7.623,20.975-1.428,3.78-2.882,7.552-4.41,11.293a65.6,65.6,0,0,1-4.023,8.805c-.107.179-.232.35-.334.532-.031.055-.253.359-.025.047.344-.47-.39.461-.381.451-.133.152-.647.754-.7.7,0,0,.529-.216.548-.064,0-.018-.53-.15-.613-.178-.773-.262-1.532-.584-2.29-.891.509.206-.316-.138-.438-.192-.394-.173-.785-.351-1.176-.532-3.436-1.588-7.376-3.368-10.165-5.806a7.981,7.981,0,0,0-.779-.762c-.291-.183.2.664.152.556-.034-.073.086-.415,0-.124-.1.341.036-.188.041-.212.09-.406.177-.811.281-1.214.51-1.974,1.163-3.911,1.8-5.846.681-2.067,1.308-4.146,1.966-6.22,4.288-13.523,8.959-26.927,13.428-40.391,2.172-6.542,4.364-13.047,6.875-19.471,3.913-10.012,8.1-19.915,12.136-29.877q1.233-3.045,2.436-6.1a2.014,2.014,0,0,0-1.4-2.46,2.047,2.047,0,0,0-2.46,1.4Z"/><path class="a" d="M299.676,171.129c-.276-2.779-.7-6.2.248-8.9l-.514.882c.2-.2-.364.2-.023.018.179-.1.354-.2.537-.291a11.58,11.58,0,0,1,1.186-.5c1.356-.519,2.737-.974,4.117-1.423,2.453-.8,4.916-1.565,7.348-2.429,2.631-.935,5.259-1.882,7.921-2.728,1.316-.418,2.64-.817,3.98-1.15.568-.141,1.139-.272,1.715-.376.137-.025.566-.093.539-.09.077-.009.559.066.418-.092-.3-.331.043,1.293.095,1.509a19.462,19.462,0,0,0,.7,2.294,27.871,27.871,0,0,0,1.915,4.08c1.458,2.553,3.257,4.887,4.9,7.316a29.016,29.016,0,0,1,4.072,7.972,31.544,31.544,0,0,1,.852,11.471c-.656,7.865-3.348,15.4-4.983,23.083a85.212,85.212,0,0,0-2.12,23.1c.206,3.185.51,6.291,1.976,9.159,1.167,2.284,2.874,4.548,3.377,7.106.163.831.1,1.346-.356,1.741a6.336,6.336,0,0,1-2.4,1.02,32.469,32.469,0,0,1-7.366.621c-11.986.119-23.9,1.931-35.891,2.143-1.155.02-2.309.02-3.463-.017l1.928,1.469c-1.565-4.626-1.845-9.855-2.206-14.686-.206-2.775-.349-5.56-.345-8.344,0-1.081.023-2.165.106-3.243.019-.242.043-.483.067-.724.045-.443-.066.34.013-.1a7.525,7.525,0,0,1,.222-.984c.778-2.46-3.082-3.513-3.857-1.063a19.954,19.954,0,0,0-.55,5.743c-.02,2.909.128,5.82.344,8.719.229,3.071.553,6.134.99,9.182a36.805,36.805,0,0,0,1.359,6.567,2.07,2.07,0,0,0,1.929,1.468c13.017.416,25.974-2.011,38.977-2.122,4.456-.038,13.138.312,14.435-5.405.673-2.966-1.084-6.036-2.457-8.535a34.131,34.131,0,0,1-1.922-3.674,17.913,17.913,0,0,1-.826-4.959c-.724-8.5.474-17.1,2.4-25.373,1.994-8.56,4.9-17.079,4.769-25.973a29.715,29.715,0,0,0-2.463-11.922,52.351,52.351,0,0,0-5.165-8.332,32.929,32.929,0,0,1-4.632-8.2c-.536-1.6-.5-3.734-1.721-4.985-1.271-1.3-2.986-1.1-4.605-.815-5.649.986-11.006,3.419-16.428,5.2-3.055,1-6.164,1.889-9.155,3.075a8.85,8.85,0,0,0-3.015,1.586c-1.035,1.021-1.051,3.085-1.14,4.428a39.155,39.155,0,0,0,.164,6.487,2.055,2.055,0,0,0,2,2,2.014,2.014,0,0,0,2-2Z"/><path class="a" d="M297.679,251.428c5.95-.19,11.982-.376,17.9-1.013,5.041-.542,10.049-1.353,15.087-1.927a2.061,2.061,0,0,0,2-2,2.013,2.013,0,0,0-2-2c-5.038.574-10.046,1.385-15.087,1.927-5.921.637-11.953.823-17.9,1.013-2.567.083-2.579,4.083,0,4Z"/><path class="a" d="M327.546,159.385c-.884.43-1.771.854-2.671,1.249l-.257.112c-.062.027-.435.179-.135.059l-.067.027-.3.121q-.524.21-1.054.4c-1.631.593-3.3,1.063-4.971,1.545a2,2,0,1,0,1.063,3.857c1.707-.493,3.42-.974,5.088-1.587a57.945,57.945,0,0,0,5.322-2.332,2.01,2.01,0,0,0,.717-2.736,2.052,2.052,0,0,0-2.736-.718Z"/><path class="a" d="M337.315,173.867a124.919,124.919,0,0,1,10.335,13.182,82.806,82.806,0,0,1,4.267,7.143c1.355,2.56,2.306,5.054,2.041,8-.254,2.814-1.43,5.507-2.322,8.16-1.008,3-1.979,6.013-3,9.01-.852,2.5-1.573,5.035-2.376,7.554-.18.565-.364,1.13-.587,1.68-.2.5-.5.912.1.315-.054.054.269-.044.071-.051a3.362,3.362,0,0,1-.609-.038,31.683,31.683,0,0,1-9.519-3.9c-2.248-1.262-4.266,2.192-2.019,3.453a39.585,39.585,0,0,0,9.816,4.164c1.581.38,3.592.655,4.858-.63a8.353,8.353,0,0,0,1.494-3.166c.475-1.372.841-2.778,1.247-4.17.929-3.186,2.11-6.311,3.15-9.462s2.311-6.286,3.119-9.5a16.529,16.529,0,0,0-.111-9.238,42.137,42.137,0,0,0-4.3-8.4,122.183,122.183,0,0,0-12.831-16.925c-1.7-1.936-4.523.9-2.828,2.829Z"/><path class="a" d="M343.525,229.813a41.742,41.742,0,0,0-2.692,6.78c-.065.186-.127.374-.192.56-.042.12-.088.238-.131.357-.137.383.172-.361-.029.075-.305.664-.627,1.316-.99,1.951-.193.336-.394.668-.606.992q-.129.2-.264.39c-.037.052-.36.476-.218.3s-.185.2-.219.246a1.551,1.551,0,0,1-.156.158c.179-.137.2-.166.076-.086a2.273,2.273,0,0,1-.235.122c.155-.065.164-.073.027-.022-.236.079-.474.145-.715.2a2.02,2.02,0,0,0-1.4,2.46,2.042,2.042,0,0,0,2.461,1.4,5.765,5.765,0,0,0,2.715-1.347,11.475,11.475,0,0,0,1.534-2.048,20.3,20.3,0,0,0,2.031-4.168c.382-1.106.772-2.209,1.183-3.305.247-.658.511-1.308.769-1.961-.2.5.109-.245.179-.4.1-.218.206-.433.323-.642a2,2,0,1,0-3.454-2.019Z"/><path class="g" d="M252.4,174.731c-.009.025-.017.049-.026.073-1.5-1.914-4-5.637-6.851-5.227-3.088.445-7.91,4.839-8.835,6.687-.766,1.532-1.727,2.273-1.438,3.9a11.721,11.721,0,0,0,4.181,7.368c2.36,2.13,5.075,4.906,8.624,4.4l.375-.053c3.3-1.883,8.392-4.5,11.109-5.791-.127-2.683-.281-6.014-.281-6.32,0-3.446.069-4.293-.949-7.654-.475-1.569-1.484-3.392-3.364-3.19C252.174,169.226,253.087,172.647,252.4,174.731Z"/><path class="a" d="M261.773,184.809c-.265-2.681-.355-5.377-.643-8.056-.277-2.565-.534-5.5-2.068-7.672-1.568-2.221-4.914-3.061-6.942-.9-1.6,1.713-1.033,4.072-1.677,6.088l3.343-.883c-1.9-2.439-4.032-5.5-7.393-5.814-3.061-.281-6.114,2.142-8.263,4.037a16.6,16.6,0,0,0-2.842,3.1,10.527,10.527,0,0,0-2.046,4.369c-.357,3.417,1.868,7.058,4.214,9.341,2.845,2.77,6.314,5.981,10.6,5.511a2.058,2.058,0,0,0,2-2,2.014,2.014,0,0,0-2-2,6.261,6.261,0,0,1-4.64-1.56,29.64,29.64,0,0,1-3.88-3.556,9.361,9.361,0,0,1-2.125-4.086,2.2,2.2,0,0,1,.051-1.836c.366-.67.761-1.357,1.173-2a15.314,15.314,0,0,1,6.192-5.053c2.694-1.11,4.737,2.576,6.134,4.374.984,1.265,2.934.4,3.343-.883.441-1.381.248-3.071.668-4.3.075-.218.159-.126-.039-.072a.667.667,0,0,1,.473-.015c.567.216.865,1.32,1.016,1.835,1.135,3.857.962,8.049,1.355,12.02a2.056,2.056,0,0,0,2,2,2.014,2.014,0,0,0,2-2Z"/><path class="a" d="M299.013,169.015c-5.208,2.127-8.735,6.878-11.6,11.528-2.627,4.263-4.614,8.868-7.162,13.169-1.315,2.22,2.141,4.235,3.454,2.019,2.388-4.03,4.268-8.34,6.674-12.365,2.318-3.88,5.366-8.725,9.7-10.494a2.065,2.065,0,0,0,1.4-2.46,2.015,2.015,0,0,0-2.461-1.4Z"/><path class="a" d="M280.252,193.712c-1.541,2.125-2.9,4.976-5.119,6.486a1.625,1.625,0,0,1-.935.356c.336-.012-.306-.133.045.016a2.842,2.842,0,0,1-.551-.33,11.225,11.225,0,0,1-2.075-2.373c-1.444-2.063-2.614-4.292-3.862-6.474-.612-1.071-1.257-2.124-1.921-3.163-.851-1.331-1.8-3.215-3.149-4.093-2.254-1.463-5.313.772-7.358,1.807-2.5,1.262-4.976,2.559-7.412,3.932-2.112,1.191-5.221,2.951-4.232,5.9a29.134,29.134,0,0,0,2.822,5.091c2.583,4.383,5.261,8.713,8,13a68.048,68.048,0,0,0,7.089,9.978,13.82,13.82,0,0,0,6.6,4.189,18.878,18.878,0,0,0,9.03-.242c5.716-1.407,10.609-4.686,14.889-8.617,3.53-3.243,7.028-6.521,10.444-9.883,3.329-3.277,6.991-6.632,9.542-10.582,1.4-2.169-2.06-4.176-3.454-2.019a27.549,27.549,0,0,1-2.91,3.584c-1.522,1.68-3.107,3.3-4.711,4.9-3.138,3.136-6.36,6.187-9.612,9.2-3.177,2.947-6.3,5.769-10.236,7.713-4.459,2.2-10.87,3.9-15.159.449-2.889-2.323-4.831-5.688-6.834-8.784q-3.992-6.166-7.768-12.47c-1.039-1.728-2.069-3.462-3.062-5.217q-.3-.533-.6-1.071a2.383,2.383,0,0,0-.26-.477c-.312-.315-.069.333.062.315.073-.009.585-.475.712-.552.549-.33,1.1-.649,1.664-.964,2.341-1.32,4.724-2.568,7.121-3.785.966-.491,1.935-.976,2.911-1.447a11.533,11.533,0,0,0,1.214-.574c.1.756-1.129-.654-.329.455.226.312.445.629.662.948,1.558,2.3,2.9,4.713,4.27,7.121a28.286,28.286,0,0,0,4.74,6.715c5.663,5.34,10.265-3.01,13.183-7.032a2.015,2.015,0,0,0-.718-2.736,2.044,2.044,0,0,0-2.736.717Z"/><path class="a" d="M315.3,190.486c2.664-6.5.835-15.816-5.331-19.7-2.184-1.376-4.194,2.083-2.019,3.454a6.122,6.122,0,0,1,1.475,1.223,7.456,7.456,0,0,1,1.165,1.565,12.543,12.543,0,0,1,1.529,4.082,14.183,14.183,0,0,1-.676,8.316,2.013,2.013,0,0,0,1.4,2.46,2.049,2.049,0,0,0,2.46-1.4Z"/><path class="a" d="M379.7,370.682a40.4,40.4,0,0,0,2.206,3.642c1.046,1.613,2.132,3.2,3.322,4.711a7.089,7.089,0,0,0,1.55,1.543,2.012,2.012,0,0,0,2.737-.717,2.05,2.05,0,0,0-.718-2.737c-.206-.14.471.426.19.14-.08-.081-.164-.159-.242-.243-.207-.219-.4-.452-.588-.688-.051-.063-.1-.129-.151-.192-.076-.092.319.42.1.132-.12-.159-.241-.318-.359-.479q-.372-.507-.732-1.023-1.507-2.156-2.881-4.4c-.341-.559-.686-1.12-.982-1.7a2.015,2.015,0,0,0-2.737-.718,2.049,2.049,0,0,0-.717,2.737Z"/><path class="a" d="M370.575,383.03c.691,1.227,1.263,2.517,1.957,3.742a2.065,2.065,0,0,0,1.195.919,2.043,2.043,0,0,0,1.541-.2,2.017,2.017,0,0,0,.919-1.195,2.107,2.107,0,0,0-.2-1.541c-.694-1.225-1.266-2.515-1.957-3.742a2,2,0,0,0-2.737-.718,2.021,2.021,0,0,0-.919,1.2,2.112,2.112,0,0,0,.2,1.541Z"/><path class="a" d="M389.8,380.629c2.937.5,4.964,3.81,6.326,6.208a8.342,8.342,0,0,1,1.316,3.45c-.013-.458-.027.08-.08.265-.025.086-.057.171-.089.254-.112.294.12-.252-.029.049a9.492,9.492,0,0,1-.873,1.408,34.047,34.047,0,0,1-6.286,5.99,72.5,72.5,0,0,1-7.553,5.234c-2.437,1.472-4.874,2.959-7.343,4.378-2.522,1.449-5.418,3.286-8.4,3.513-1.929.147-5.876-.206-6.384-2.562-.2-.935.25-1.474.832-2.483.7-1.218,1.483-2.393,2.3-3.54q.273-.385.554-.766a3.034,3.034,0,0,1,.246-.315c.457-.58.9-1.161,1.314-1.775,1.007-1.51,1.906-3.092,2.826-4.655s1.819-3.126,2.857-4.6c.519-.738,1.837-3.038,2.878-2.97l-1.009-.273c.568.357.875,2.07,1.048,2.8a3.973,3.973,0,0,0,.772,2.067,2.775,2.775,0,0,0,1.831.721c2.2.1,4.421-1.682,6.068-2.934A69.659,69.659,0,0,0,388.5,385.4c1.8-1.7,4.009-4.019,3.827-6.7-.173-2.555-4.174-2.574-4,0,.078,1.139-1.069,2.285-1.893,3.128-1.175,1.2-2.478,2.263-3.757,3.346a38.7,38.7,0,0,1-3.182,2.483,14.954,14.954,0,0,1-1.789,1.086,3.781,3.781,0,0,0-.654.262c-.255.056-.267.065-.037.025a1.134,1.134,0,0,1,.427.134l.919,1.195c-.4-1.915-.833-4.1-2.185-5.6-1.784-1.977-4.344-.8-5.884.836-2.729,2.9-4.584,6.544-6.609,9.93-1.654,2.765-3.558,5-5.294,7.784a11.234,11.234,0,0,0-1.961,4.4,5.965,5.965,0,0,0,1.794,5c2.794,2.712,7.5,3.234,11.118,2.252,3.965-1.075,7.627-3.46,11.1-5.574,6.258-3.805,12.739-7.621,17.729-13.089a13.711,13.711,0,0,0,2.953-4.432c.667-1.843.051-3.7-.714-5.412a25.807,25.807,0,0,0-3.717-5.777,10.085,10.085,0,0,0-5.836-3.909,2.058,2.058,0,0,0-2.46,1.4,2.015,2.015,0,0,0,1.4,2.46Z"/><path class="a" d="M390.675,388.531c-.117.379.188-.294-.028.068-.11.185-.22.368-.347.542-.085.116-.549.636-.825.921a32.7,32.7,0,0,1-2.674,2.427,71.638,71.638,0,0,1-6.7,4.873c-2.556,1.66-5.16,3.259-7.746,4.873-2.254,1.406-4.673,3.107-7.309,3.685-2.513.551-1.45,4.409,1.063,3.857,2.968-.65,5.725-2.5,8.265-4.088,2.762-1.723,5.554-3.421,8.269-5.216a77.565,77.565,0,0,0,7.49-5.575c1.673-1.423,3.731-3.124,4.4-5.3.759-2.465-3.1-3.52-3.857-1.063Z"/><path class="i" d="M265.176,399.374c-2.306,1.173-7.107-.576-9.83-1.415-2.244-.692-7.5-2.507-7.468-4.092,1.236-1.192,3.31-3.219,3.191-4.651-.649-1.491-3.357-1.541-4.787-1.7-3.421-.375-10.642.354-13.577-.045-1.358-.185-7.2-.456-8.666.168a3.941,3.941,0,0,0-2.429,3.179c2.626,3.479,12.582,7.468,19.563,10.96,6.422,3.212,19.161,8.244,22.592,7.168a24.048,24.048,0,0,0,2.109-5.634,6.427,6.427,0,0,0-.265-4.22A2.378,2.378,0,0,1,265.176,399.374Z"/><path class="a" d="M266.757,385.739a48.453,48.453,0,0,0-2.574,5.309c-.508,1.158-1.008,2.324-1.444,3.512a8.083,8.083,0,0,0-.613,2.471,2.015,2.015,0,0,0,2,2,2.041,2.041,0,0,0,2-2c.008-.216.123-.3-.051.32.019-.068.026-.142.041-.211.033-.152.075-.3.119-.451.116-.391.253-.776.395-1.158.189-.508.39-1.012.6-1.512.045-.108.091-.216.135-.324-.238.591-.021.052.032-.071q.168-.392.341-.78a47.357,47.357,0,0,1,2.475-5.086,2,2,0,0,0-3.454-2.019Z"/><path class="a" d="M254.54,379.6c-.589,1.094-1.281,2.128-1.867,3.223a2.105,2.105,0,0,0-.2,1.541,2,2,0,0,0,3.655.478c.586-1.1,1.278-2.13,1.867-3.223a2.1,2.1,0,0,0,.2-1.541,2,2,0,0,0-3.655-.478Z"/><path class="a" d="M263.68,399.626c1.171,2.835-.584,6.433-1.965,8.927a13.035,13.035,0,0,1-1.19,1.862,4.968,4.968,0,0,1-.56.609c-.085.076-.462.33-.333.27.194-.091-.291.076-.4.105a3.1,3.1,0,0,1-.366.068c.045-.006.281-.035.037-.017a10.94,10.94,0,0,1-1.7-.021,34.732,34.732,0,0,1-8.475-2.182,71.559,71.559,0,0,1-8.384-3.567c-2.675-1.353-5.38-2.663-8.02-4.083-2.525-1.359-5.478-2.827-7.149-5.255-1.054-1.531-2.743-5.09-.875-6.568.7-.553,1.647-.479,2.77-.509,1.427-.038,2.859,0,4.283.09,3.087.195,6.1.2,9.2.109a49.8,49.8,0,0,1,5.241.009c.843.064,3.146,0,3.549.753l-.273-1.01c0,.793-1.325,1.97-1.931,2.578-1.056,1.059-1.67,2.147-.835,3.578,1.15,1.971,3.959,2.9,5.96,3.648a65.294,65.294,0,0,0,6.614,2.089c2.379.612,5.58,1.294,7.741-.288a2.059,2.059,0,0,0,.718-2.736,2.015,2.015,0,0,0-2.736-.718c-.967.708-2.472.377-3.624.131-1.642-.351-3.236-.884-4.836-1.386-1.28-.4-2.564-.812-3.8-1.335a15.505,15.505,0,0,1-1.875-.932c-.134-.08-.628-.425-.592-.4-.17-.186-.2-.194-.073-.025q-.264-.483.079.443l-.586,1.414c1.447-1.4,3.168-3.01,3.668-5.036.6-2.454-1.654-3.944-3.759-4.369-3.813-.771-7.788-.423-11.641-.317-3.169.086-6.285-.305-9.449-.306a14,14,0,0,0-4.6.46,5.96,5.96,0,0,0-3.722,4.081c-1,3.756,1.01,8.114,3.693,10.7,2.945,2.837,6.912,4.663,10.532,6.462,6.579,3.271,13.254,6.731,20.545,8.107a15,15,0,0,0,5.463.249,6.767,6.767,0,0,0,4.2-3.193,24.816,24.816,0,0,0,3-6.2c.807-2.349,1.3-4.985.32-7.354a2.066,2.066,0,0,0-2.461-1.4,2.014,2.014,0,0,0-1.4,2.46Z"/><path class="a" d="M257.224,404.5c-.233.063-.351.041-.051.025-.183.01-.363,0-.545,0a5.4,5.4,0,0,1-1.173-.168A31.77,31.77,0,0,1,252,403.4a70.089,70.089,0,0,1-7.518-2.958c-2.652-1.216-5.275-2.509-7.905-3.771-2.4-1.15-5.2-2.283-7.1-4.2-1.813-1.832-4.642,1-2.828,2.829,2.16,2.182,5.187,3.518,7.914,4.827,2.817,1.352,5.623,2.75,8.473,4.029a76.8,76.8,0,0,0,8.372,3.252c2.088.657,4.686,1.54,6.885.944,2.482-.673,1.428-4.532-1.063-3.857Z"/><path class="g" d="M105.233,135.328a27.847,27.847,0,0,0-.055,6.089c.069,3.754.174,8.966-3.167,10.987a3.484,3.484,0,0,0-1.514,1.674c-.732,1.907.913,2.668,1.963,3.695a5.73,5.73,0,0,1,1.42,2.372c.2,2.023,1.005,6.552,2.413,8.93a7.177,7.177,0,0,0,4.116,3.447,17.279,17.279,0,0,0,9.274.288,1.245,1.245,0,0,1,1.507.665,20.253,20.253,0,0,1,2.276,6.62l.033.416c5.682-1.968,8.469-2.821,15.978-5.109,1.533-.467,3.942-1.394,6.018-2.05-.064-.375-.131-.765-.2-1.162a12.748,12.748,0,0,1-.009-1.771,7.216,7.216,0,0,1,.712-3.246c-4.45-2.9-7.941-7.794-10.34-11.247a10.989,10.989,0,0,0,2.234-6.408c.018-1.55-.43-3.292-1.78-4.055a3.327,3.327,0,0,0-2.965-.034,4.8,4.8,0,0,0-1.6,1.22c-3.71-.726-11.25-5.872-13.48-7.429a65.181,65.181,0,0,1-10.83-10.146l-.5-.668a19.664,19.664,0,0,0-1.622,8.222"/><path class="j" d="M167.475,154.174c.385-3.393-2.665-8.92-9.776-7.735l-.394.058a30.2,30.2,0,0,0,.769-6.409,27.118,27.118,0,0,0-4.432-14.752c-7.79-11.524-22.417-11.567-24.5-11.546-.43,0-.938.012-1.514.039a23.467,23.467,0,0,0-7.8,1.664,24.528,24.528,0,0,0-12.678,11.954c-.15.341-.292.672-.425,1a64.448,64.448,0,0,0,11.34,10.777c2.23,1.557,9.77,6.7,13.48,7.429a4.8,4.8,0,0,1,1.6-1.22,3.327,3.327,0,0,1,2.965.034c1.35.763,1.8,2.5,1.78,4.055a10.989,10.989,0,0,1-2.234,6.408c2.4,3.453,5.89,8.344,10.343,11.249a33.587,33.587,0,0,1,3.87-5.742l.337-.459.083.724a15.081,15.081,0,0,0,3.842,5.946,13.738,13.738,0,0,0,6.128,3.757c1.948.468,7.566,1.107,9.317-1.627C165.4,166.834,166.9,159.333,167.475,154.174Z"/><path class="a" d="M134.765,158.126c2.737,3.862,5.718,7.581,9.6,10.35a2.009,2.009,0,0,0,2.737-.717,2.055,2.055,0,0,0-.718-2.737q-.327-.234-.648-.477c.376.285-.057-.049-.1-.087l-.251-.206q-.656-.546-1.276-1.132c-.807-.761-1.57-1.565-2.3-2.4q-.526-.6-1.029-1.216c-.166-.2-.329-.406-.491-.61-.081-.1-.16-.2-.24-.3-.138-.177-.192-.21-.016-.02a23.976,23.976,0,0,1-1.81-2.465,2.045,2.045,0,0,0-2.737-.718,2.024,2.024,0,0,0-.717,2.736Z"/><path class="a" d="M132.629,148.482c.2-.29,0-.052.217-.3.144-.168.3-.32.455-.478a3.365,3.365,0,0,1,.686-.467c.107-.042.547-.146.486-.138-.245.029.594.034.343,0-.272-.037.568.161.328.1-.1-.028-.06,0,.117.086q-.2-.173-.048-.033a2.283,2.283,0,0,1,.191.19q-.156-.225-.036-.05a3.255,3.255,0,0,1,.313.555c-.14-.319.028.136.053.224.052.183.09.369.126.556-.068-.348.012.12.018.226.012.187.016.376.015.564s-.011.405-.026.607c0,.073-.072.64-.018.271a8.745,8.745,0,0,1-1.667,4.175,4.712,4.712,0,0,1-.565.706,11.19,11.19,0,0,1-.858.857,4.327,4.327,0,0,1-.793.614,10.787,10.787,0,0,1-1.137.657,2,2,0,1,0,2.018,3.454,13.125,13.125,0,0,0,7.046-11.341c.021-2.491-.977-5.118-3.444-6.083-2.9-1.135-5.679.688-7.274,3.028a2,2,0,0,0,3.454,2.019Z"/><path class="a" d="M104.8,164.724a8.779,8.779,0,0,0,1.723-.027,9.245,9.245,0,0,0,1.838-.355,6,6,0,0,0,2.3-1.3,2,2,0,0,0-2.829-2.829,2.158,2.158,0,0,1-.177.153l.405-.313a3.933,3.933,0,0,1-.833.477l.478-.2a6.281,6.281,0,0,1-1.57.418l.532-.071a8.927,8.927,0,0,1-1.863.045,2.012,2.012,0,0,0-1.414.585,2,2,0,0,0,0,2.829,2.232,2.232,0,0,0,1.414.586Z"/><path class="a" d="M108.851,146.871c-.346,1.141-.155,3.773,1.9,4.012,2.719,0,2.9-3.178,2-4.68C112.01,144.973,109.812,144.448,108.851,146.871Z"/><path class="a" d="M103.233,135.328c-.487,4.171.618,8.543-.5,12.641a5.4,5.4,0,0,1-.957,2.04c-.655.8-1.654,1.186-2.322,1.989a4.323,4.323,0,0,0,.124,5.876,20.576,20.576,0,0,1,1.834,1.73,5.267,5.267,0,0,1,.746,2.609,28.622,28.622,0,0,0,1.413,5.683,11.262,11.262,0,0,0,3.931,5.411,12.867,12.867,0,0,0,5.915,1.852,18.522,18.522,0,0,0,3.9.1,17.5,17.5,0,0,0,1.947-.271,2.833,2.833,0,0,0,.646-.155c.724-.423-.436-.1-.411-.271-.06.425.792,1.613.96,2.018a12.819,12.819,0,0,1,1.007,3.518,2.058,2.058,0,0,0,2,2,2.014,2.014,0,0,0,2-2,19.742,19.742,0,0,0-2-6.517c-.79-1.654-1.925-3.14-4.017-2.753-3.454.638-8.55,1.18-10.972-2.051a14.34,14.34,0,0,1-2.111-5.692c-.394-1.856-.388-3.723-1.424-5.379a10.882,10.882,0,0,0-2.139-2.272,1.915,1.915,0,0,1-.56-.626c.043.1.008.312.069.149a1.377,1.377,0,0,1,.485-.684,13.629,13.629,0,0,0,1.964-1.63,9.216,9.216,0,0,0,1.534-2.713c1.738-4.663.373-9.79.935-14.6a2.012,2.012,0,0,0-2-2,2.047,2.047,0,0,0-2,2Z"/><path class="a" d="M107.118,136.628a21,21,0,0,1,9.353-17.078,22.464,22.464,0,0,1,12.7-3.76,33.422,33.422,0,0,1,5.361.412c7.5,1.248,14.579,4.973,18.395,11.788,4.859,8.679,3.6,18.976-1.308,27.309-2,3.395-4.756,6.281-6.728,9.674a12.21,12.21,0,0,0-1.4,8.448,38.467,38.467,0,0,0,1.768,7.721,2.061,2.061,0,0,0,2.46,1.4,2.014,2.014,0,0,0,1.4-2.46,35.27,35.27,0,0,1-1.65-7.038,9.011,9.011,0,0,1,1.619-7.211c2.043-3,4.4-5.731,6.212-8.89,5.3-9.242,6.474-20.413,1.555-30.088-3.989-7.847-11.85-12.7-20.325-14.339-6.8-1.314-14-.971-20.184,2.429a25.278,25.278,0,0,0-13.221,21.687c-.032,2.575,3.968,2.576,4,0Z"/><path class="a" d="M158.231,148.367a6.362,6.362,0,0,1,6.167,2.1c1.2,1.573,1.178,2.927.931,4.933-.669,5.425-1.785,12.362,3.241,16.1l-.718-2.736c-.631.9-2.28,1.009-3.3,1.045a13.132,13.132,0,0,1-3.962-.39c-3.748-.982-7.109-4.679-8.37-8.253-.85-2.412-4.716-1.374-3.857,1.063,1.748,4.955,6.171,9.9,11.448,11.118,3.795.879,9.021.972,11.5-2.564a2.044,2.044,0,0,0-.717-2.737c-2.078-1.544-1.93-5-1.813-7.274.076-1.474.251-2.941.432-4.405a15.393,15.393,0,0,0,.246-3.575,9.49,9.49,0,0,0-3.3-6.22c-2.578-2.14-5.757-2.551-8.987-2.063a2.015,2.015,0,0,0-1.4,2.461,2.051,2.051,0,0,0,2.461,1.4Z"/><path class="a" d="M105.821,130.489a60.8,60.8,0,0,0,12.2,11.125c3.823,2.613,7.967,5.54,12.462,6.838,2.478.715,3.536-3.144,1.063-3.857a26.036,26.036,0,0,1-5.808-2.792c-1.944-1.143-3.837-2.371-5.7-3.643a57.172,57.172,0,0,1-11.391-10.5,2.016,2.016,0,0,0-2.828,0,2.044,2.044,0,0,0,0,2.829Z"/><path class="d" d="M115.477,200.266c-2.083,3.5-4.33,6.339-5.18,10.092-.45.364-.723.58-.723.58a36.171,36.171,0,0,1-7.352,4.5c-2.876-3.133-7.535-10.179-11.787-15.8-2.182.711-10.17,5.245-11.972,6.328-2.751,1.652-2.307,1.873-1,4.772,1.042,2.312,7.9,15.064,10.747,19.179,2.508,3.626,5.959,8.365,10.6,9.042a9.968,9.968,0,0,0,6.851-1.695c1.385-.856,5.956-4.279,7.206-5.3l1.979-1.62c2.027,5.422,2,11.107,2,17.123,0,4.3-2.2,13.647-4.23,19.8,4.8-.608,39.657.354,46.606.339a27.606,27.606,0,0,1-1.085-6.652l.389-9.086c4.382-3.285,9.189-7.081,10.628-8.488,4.293-4.194,9.856-8.674,11.706-14.773,1.35-5.175-3.983-15.7-6.923-21.409-3.023-7.422-10.119-17.1-17.966-18.471l-1.566-1.969c-2-2.519-4.906-9.428-4.892-12.852a1.218,1.218,0,0,0-1.3-1.248c-2.155.3-6.442,2.038-8.747,2.741-8.63,2.63-11.023,3.363-18.741,6.074-.09.032-.111.152-.117.247-.069,1.181-.663,5.615-.738,9.337a.408.408,0,0,1-.013.092,31.227,31.227,0,0,1-3.62,7.769C116,199.382,115.738,199.829,115.477,200.266Z"/><path class="g" d="M192.17,373.694a21.664,21.664,0,0,0,3.142,4.008l2.136,1.675c-1.113,2.257-4.236,4.692-6.045,6.242-1.784,1.527-6.128,5-7.45,4.124-.346-1.682-.951-4.518-2.225-5.182a1.474,1.474,0,0,0-.2-.019c-.972-2.236-1.94-4.471-1.94-4.471-.572-1.005-1.529-3.079-2.509-4.772a34.692,34.692,0,0,0,4-1.907,35.087,35.087,0,0,0,7.333-5.952c.314.633.541,1.083.541,1.083C189.382,369.379,190.771,371.628,192.17,373.694Z"/><path class="g" d="M91.4,398.341a6.427,6.427,0,0,1,.416,4.207c-.42,2.6-2.5,8.109-4.712,9.772-3.387,2.38-16.457-2.179-22.586-5.163-3.158-1.538-11.022-4.658-14.094-7.632-3.288-3.185-5.032-9.239-.979-11.136,1.444-.676,7.29-.615,8.654-.48,2.947.294,10.138-.694,13.57-.442,1.435.105,4.143.058,4.845,1.525.17,1.427-1.829,3.527-3.021,4.763.022,1.585,5.342,3.21,7.609,3.82,2.939.791,8.281,2.534,10.3.766"/><path class="g" d="M197.905,377.523a6.424,6.424,0,0,1,3.74,1.972c1.94,1.785,5.384,6.56,5.554,9.319.118,4.138-10.891,12.528-16.76,16-3.023,1.787-9.963,6.627-14.138,7.55-4.47.988-10.482-.9-9.83-5.322.233-1.578,3.506-6.422,4.371-7.485,1.87-2.3,5.01-8.84,7.113-11.565.879-1.139,2.333-3.424,3.944-3.2,1.283.645,1.934,3.47,2.307,5.147,1.335.854,5.623-2.688,7.383-4.243,2.28-2.015,6.679-5.511,6.316-8.168"/><path class="g" d="M90,394.19a75.68,75.68,0,0,1,3.747-8.343q-.231-.09-.49-.186a72.327,72.327,0,0,1-11.649-6.077c-.872,1.6-1.941,3.263-2.435,4.19l-5.248,9.864c1.421,1.282,5.095,2.536,6.874,3.084,2.275.7,6,2.038,8.509,1.775.158-1.473.271-2.7.271-2.7A6.458,6.458,0,0,1,90,394.19Z"/><path class="g" d="M88.84,197.35c.9-.635,1.734-4.652,2.04-6.061a10.549,10.549,0,0,0-1.169-7.484c-1.028-2-2.971-5.017-5.406-5.329-2.682-.344-4.257,2.192-2.127,4.312l-1.949-.261C76.72,180.45,61.471,188.9,68.953,193.3l-1.569,2.511c.282,2.3.935,2.932,2.79,4.348,1.417,1.082,2.874,2.17,4.318,3.218l3.46,4.414,12.593-6.37Z"/><path class="g" d="M119.252,267.777c-2.5.012-4.51.02-5.748.021-.941,4.729-3.365,14.444-6.319,24.61-3.029,9.445-12.937,34.97-14.136,38.553-4.817,14.395-9.48,29.522-14.436,42.537a4.213,4.213,0,0,0,1.991,5.24c3.97,2.071,8.936,4.827,13.389,6.99a4.789,4.789,0,0,0,6.555-2.576c2.248-5.777,5.816-15.026,7.713-20.334,2.924-8.182,4.027-11.063,7.454-19.413,4.223-10.285,10.806-19.436,16.611-29.022.443-.732.9-1.439,1.362-2.131,2.909,5.686,14.711,28.738,17.139,33.82,2.365,4.952,13.09,20.46,18.784,28.744a5.171,5.171,0,0,0,7.215,1.31c3.217-2.238,7.1-5.054,10.036-7.248a5.635,5.635,0,0,0,1.385-7.544c-6.225-9.791-19.7-32.217-23.643-46.151-2.073-7.323-1.883-12.081-2.193-19.517.207-7.673-.319-20.549-3.578-28.057C151.27,267.591,130.35,267.725,119.252,267.777Z"/><path class="a" d="M108.16,209.523a32.44,32.44,0,0,1-6.947,4.184l2.423.312C99.352,209.3,96,203.71,92.162,198.628a2.067,2.067,0,0,0-2.259-.919,40.9,40.9,0,0,0-6.071,2.936c-2.007,1.083-4,2.191-5.969,3.35-2.143,1.264-4.134,2.8-3.111,5.537a46.558,46.558,0,0,0,2.505,5.232c2.423,4.628,4.931,9.23,7.647,13.693,2.886,4.742,6.59,10.463,12.186,12.16,3.671,1.113,7.4-.1,10.449-2.2,2.3-1.59,4.571-3.274,6.745-5.038a2.014,2.014,0,0,0,0-2.829,2.048,2.048,0,0,0-2.828,0c-1.544,1.253-3.287,2.525-4.986,3.743-2.03,1.454-4.207,2.906-6.818,2.75-2.815-.168-5.038-2.245-6.8-4.263a43.278,43.278,0,0,1-4.045-5.6c-2.5-4.018-4.772-8.189-7.005-12.361-.812-1.518-1.632-3.037-2.381-4.587-.315-.652-.613-1.313-.9-1.976-.434-1-.025.525-.3.311-.038-.029,1.223-.856,1.347-.931,1.885-1.128,3.812-2.192,5.741-3.241,1.111-.605,2.227-1.2,3.356-1.77a19.371,19.371,0,0,1,2.3-1.053l-2.259-.919c4.04,5.354,7.585,11.224,12.1,16.2a2.06,2.06,0,0,0,2.423.313,36.273,36.273,0,0,0,7.757-4.809,2.011,2.011,0,0,0,0-2.829,2.052,2.052,0,0,0-2.828,0Z"/><path class="a" d="M90.28,198.764a5.484,5.484,0,0,0,1.375-2.423,26.01,26.01,0,0,0,.845-3.014,14.6,14.6,0,0,0,.173-7.586c-1.25-4.286-5.615-11.319-11.015-8.8a4.221,4.221,0,0,0-2.343,2.884A4.882,4.882,0,0,0,80.79,184.2c1.768,1.878,4.593-.954,2.828-2.829a4.359,4.359,0,0,1-.348-.458.264.264,0,0,1-.055-.162c0-.032-.016-.091,0-.1q-.078.179.076-.107c-.11.149-.083.135.079-.039-.216.175.288-.032.038.006.335-.051.009-.065.4-.073a1.752,1.752,0,0,1,.867.217c1.711.875,2.869,3.088,3.639,4.779a9.449,9.449,0,0,1,.444,6.308c-.2.9-.414,1.791-.68,2.671a10.54,10.54,0,0,1-.431,1.246c.152-.341-.116.178-.147.24-.067.135.289-.248-.05.031a2.013,2.013,0,0,0,0,2.828,2.045,2.045,0,0,0,2.828,0Z"/><path class="a" d="M71.051,192.1l-.284-.112c.055.022.394.183.077.03-.164-.079-.329-.154-.49-.238-.289-.151-.555-.332-.832-.5s.342.32-.019-.018c-.084-.079-.172-.155-.253-.238-.066-.067-.335-.429-.12-.111s-.046-.079-.091-.155-.089-.244-.15-.292c.13.1.162.516.08.143-.02-.095-.086-.5-.037-.073s.006-.009.006-.116c0-.088.019-.182.013-.27,0,.008-.125.556-.01.144.025-.091.044-.183.072-.274.088-.286.3-.4-.024.008a5.149,5.149,0,0,0,.287-.547c.064-.106.131-.21.2-.312.036-.052.076-.1.11-.156.172-.269-.27.3-.107.135.386-.4.728-.831,1.143-1.208.206-.187.42-.366.635-.542.4-.326-.193.133.047-.038.141-.1.28-.206.423-.306q.751-.526,1.551-.979.823-.468,1.688-.86l.212-.094c.266-.124-.123.1-.159.065a3.032,3.032,0,0,0,.424-.171c.276-.107.554-.208.835-.3a13.246,13.246,0,0,1,1.589-.425c.123-.024.248-.041.372-.065.317-.063-.56.047-.129.018.237-.016.471-.039.709-.037.09,0,.179.008.269.01.424.01-.18-.034-.171-.031a2.8,2.8,0,0,0,.509.132c.11.014-.563-.254-.206-.076.164.083.332.153.493.245.07.04.617.441.354.219a6.7,6.7,0,0,1,.63.608c.029.031.291.341.16.176s.111.158.134.194c.126.189.236.385.346.582.185.333.064.125.029.034.043.112.083.227.116.343s.056.226.083.34c-.064-.262-.01-.17-.015.049,0,.077-.066.4,0,.157s-.024.037-.034.069c-.111.354-.011.082.022.006-.047.106-.1.21-.159.311-.044.078-.428.617-.2.334a7.42,7.42,0,0,1-.563.613,14.043,14.043,0,0,1-1.171,1.022c-.09.072-.181.143-.272.214.323-.252.021-.017-.047.035-.2.156-.408.313-.621.459a11.649,11.649,0,0,1-1.447.841c-.113.056-.228.108-.341.162-.325.156.069-.02-.132.06-.263.106-.529.2-.8.295a15.021,15.021,0,0,1-1.6.446q-.345.075-.693.134c-.113.019-.226.037-.339.053.493-.068-.055,0-.125,0a8.547,8.547,0,0,1-1.27.022c-.089-.006-.179-.019-.268-.022-.254-.009.438.106.1.007-.18-.052-.359-.086-.537-.149a2.01,2.01,0,0,0-2.46,1.4,2.05,2.05,0,0,0,1.4,2.46c1.959.7,4.4.251,6.326-.323a17.594,17.594,0,0,0,6.235-3.489c2.022-1.665,3.686-4.116,2.706-6.826a7.935,7.935,0,0,0-4.914-4.913c-2.62-.764-5.721.512-8.031,1.655-2.515,1.245-5.262,3.093-6.62,5.633a5.189,5.189,0,0,0-.22,4.862c.875,1.765,2.77,2.725,4.518,3.4a2.009,2.009,0,0,0,2.461-1.4A2.057,2.057,0,0,0,71.051,192.1Z"/><path class="a" d="M75.527,201.652q-1.355-.984-2.7-1.99-.669-.5-1.335-1.009l-.288-.219-.184-.141.228.176c-.159-.131-.324-.255-.483-.387a8,8,0,0,1-.718-.66c-.147-.156-.425-.616-.043-.019-.083-.13-.175-.252-.251-.387-.032-.057-.06-.115-.091-.173-.18-.339.145.391.072.185-.053-.147-.108-.292-.152-.443-.052-.181-.095-.366-.131-.551-.033-.167-.133-.9-.046-.221a2.2,2.2,0,0,0-.586-1.414,2,2,0,0,0-2.829,0,1.92,1.92,0,0,0-.585,1.414,9.013,9.013,0,0,0,.821,3.084,6.392,6.392,0,0,0,1.565,1.891c.889.762,1.848,1.449,2.784,2.153q1.455,1.095,2.929,2.165a2.014,2.014,0,0,0,1.541.2,2,2,0,0,0,.477-3.656Z"/><path class="a" d="M155.826,185.347a22.949,22.949,0,0,1-2.454-4.627,24.043,24.043,0,0,1-1.783-5.806,6.516,6.516,0,0,0-.523-2.671,3.24,3.24,0,0,0-3.373-1.511,34.227,34.227,0,0,0-6.047,1.824c-4.092,1.443-8.283,2.594-12.413,3.924q-2.818.908-5.617,1.879c-1.136.391-2.293.751-3.412,1.188a2.539,2.539,0,0,0-1.608,2.491c-.208,2.087-.441,4.172-.585,6.266a14.328,14.328,0,0,1-.375,3.367,20.859,20.859,0,0,1-1.522,3.456c-2,3.727-4.633,7.157-6.418,10.991-2.192,4.711-2.062,9.671-.614,14.6,1.518,5.165,4.269,9.9,5.189,15.243,1.8,10.442-.324,20.859-3.577,30.779-.8,2.452,3.058,3.5,3.858,1.063a95.028,95.028,0,0,0,3.968-16.562,52.517,52.517,0,0,0,.3-8.338,47.241,47.241,0,0,0-1.087-9.927c-1.537-6.458-5.636-12.242-5.786-19.043-.122-5.514,3.678-9.942,6.3-14.48,1.529-2.648,3.51-5.673,3.643-8.807q.115-2.7.38-5.4c.066-.674.137-1.347.207-2.021.027-.259.054-.519.079-.779.011-.109.128-.95.018-.342l-.515.883.09-.1-.882.515c5.544-1.946,11.123-3.751,16.743-5.465,2.951-.9,5.831-2.035,8.793-2.9.149-.043,1.7-.357,1.713-.417s-.907-.51-.988-.363c-.041.074.028.289.026.374a6.584,6.584,0,0,0,.156,1.2,22.929,22.929,0,0,0,1.019,3.879A29.4,29.4,0,0,0,153,188.176a2.01,2.01,0,0,0,2.828,0,2.053,2.053,0,0,0,0-2.829Z"/><path class="a" d="M142.734,191.733c-4.355,3.824-5.008,11.231-1.713,15.891a2.056,2.056,0,0,0,2.737.717,2.016,2.016,0,0,0,.717-2.736,7.4,7.4,0,0,1-1.374-2.89c-.033-.144-.063-.288-.086-.434-.057-.357.015.229-.014-.141-.024-.3-.034-.6-.037-.9a14.251,14.251,0,0,1,.093-1.824c-.026.219,0,.011.016-.089.024-.135.047-.271.074-.406.054-.266.116-.53.188-.792s.152-.512.243-.763c.044-.124.09-.249.141-.37-.083.2-.015.04.037-.062.12-.231.235-.464.368-.688.082-.14.169-.276.26-.411.018-.028.228-.329.127-.192s.125-.152.147-.178c.085-.1.172-.2.261-.292.2-.216.42-.418.643-.614a2,2,0,1,0-2.828-2.829Z"/><path class="a" d="M156.144,260.957a19.432,19.432,0,0,0,.393,3.793c.2,1.14.462,2.27.758,3.389a2,2,0,1,0,3.857-1.063,37.357,37.357,0,0,1-.939-4.55l.071.531a13.919,13.919,0,0,1-.14-2.1,2.018,2.018,0,0,0-2-2,2.04,2.04,0,0,0-2,2Z"/><path class="a" d="M159.471,265.608c-13.291.072-26.583-.572-39.876-.539a59.191,59.191,0,0,0-6.972.2,2.063,2.063,0,0,0-2,2,2.013,2.013,0,0,0,2,2,51.575,51.575,0,0,1,5.923-.2c3.43-.021,6.859.012,10.288.054,7.637.092,15.272.252,22.908.385,2.576.046,5.153.109,7.729.1s2.579-4.014,0-4Z"/><path class="a" d="M156.144,260.957a19.432,19.432,0,0,0,.393,3.793c.2,1.14.462,2.27.758,3.389a2,2,0,1,0,3.857-1.063,37.357,37.357,0,0,1-.939-4.55l.071.531a13.919,13.919,0,0,1-.14-2.1,2.018,2.018,0,0,0-2-2,2.04,2.04,0,0,0-2,2Z"/><path class="a" d="M159.471,265.608c-13.291.072-26.583-.572-39.876-.539a59.191,59.191,0,0,0-6.972.2,2.063,2.063,0,0,0-2,2,2.013,2.013,0,0,0,2,2,51.575,51.575,0,0,1,5.923-.2c3.43-.021,6.859.012,10.288.054,7.637.092,15.272.252,22.908.385,2.576.046,5.153.109,7.729.1s2.579-4.014,0-4Z"/><path class="a" d="M157.009,268.381c2.939,7.145,3.352,15.365,3.434,23,.09,8.418-.006,16.857,2.429,25.007,2.108,7.056,5.4,13.791,8.785,20.311,3.453,6.66,7.194,13.172,11.093,19.581q1.17,1.92,2.361,3.828c.693,1.11,1.765,2.342,1.976,3.658a3.932,3.932,0,0,1-1.855,3.849q-2.755,2.057-5.555,4.055-1.417,1.016-2.843,2.018A6.4,6.4,0,0,1,174.481,375a3.346,3.346,0,0,1-3.448-1.634q-2.893-4.209-5.777-8.426c-3.876-5.688-7.827-11.371-11.307-17.314-1.962-3.35-3.552-6.939-5.3-10.4q-6.345-12.55-12.792-25.05c-.09-.175-.182-.349-.27-.526l-3.453,2.019c.026.052.053.1.08.156,1.179,2.289,4.631.268,3.454-2.019l-.081-.156c-1.193-2.293-4.59-.275-3.453,2.019,3.846,7.764,7.913,15.423,11.833,23.15,1.875,3.7,3.629,7.473,5.577,11.132,3.116,5.855,7.055,11.335,10.77,16.816q3.133,4.622,6.3,9.217a13.108,13.108,0,0,0,3.4,3.949,7.231,7.231,0,0,0,5.844.844c2.1-.617,3.906-2.269,5.656-3.522q2.886-2.069,5.736-4.184a8.593,8.593,0,0,0,3.642-4.836,7.834,7.834,0,0,0-.919-5.907c-3.5-5.893-7.186-11.654-10.537-17.637a183.624,183.624,0,0,1-10.61-21.433,60.025,60.025,0,0,1-3.337-10.98,87.2,87.2,0,0,1-1.025-13.216c-.144-3.958,0-7.911-.249-11.871a77.69,77.69,0,0,0-1.7-12.562,34.2,34.2,0,0,0-1.654-5.308,2.065,2.065,0,0,0-2.46-1.4,2.014,2.014,0,0,0-1.4,2.46Z"/><path class="a" d="M111.565,267.392A253.362,253.362,0,0,1,105.2,292.05c-1.691,5.4-3.747,10.7-5.718,16-2.12,5.7-4.28,11.389-6.417,17.084-2.173,5.79-4.061,11.67-5.982,17.548-3.066,9.38-6.111,18.773-9.55,28.024-.756,2.036-1.622,3.969-.9,6.162.7,2.141,2.285,3.231,4.186,4.235,4.085,2.159,8.114,4.513,12.327,6.419,3.952,1.788,7.914-.27,9.448-4.133,1.47-3.7,2.88-7.433,4.3-11.158,2.714-7.141,5.178-14.377,7.994-21.479,1.643-4.14,3.275-8.292,5.293-12.267,2.183-4.3,4.685-8.426,7.247-12.508,2.526-4.025,4.982-8.111,7.579-12.089,2.215-3.394,4.777-6.556,6.8-10.074a39.727,39.727,0,0,0,2.865-6.185c.886-2.421-2.978-3.465-3.857-1.063a46.1,46.1,0,0,1-6.082,10.725c-2.437,3.428-4.641,6.964-6.88,10.523-4.944,7.858-10.1,15.636-13.714,24.225-2.962,7.037-5.6,14.182-8.2,21.356-1.3,3.591-2.665,7.162-4.031,10.729q-1.026,2.677-2.061,5.35c-.512,1.322-.893,3.314-2.1,4.2-1.458,1.062-2.878.27-4.282-.434-1.988-1-3.956-2.034-5.919-3.079-1.917-1.02-3.843-2.025-5.753-3.058-1.72-.93-1.547-2.263-.934-3.887,3.355-8.892,6.316-17.929,9.27-26.96,2.009-6.144,3.917-12.329,6.177-18.387,1.949-5.222,3.932-10.431,5.885-15.652,2.069-5.532,4.143-11.066,6.057-16.654,2.559-7.472,4.451-15.24,6.255-22.926.326-1.389.64-2.782.927-4.18.515-2.512-3.339-3.587-3.857-1.063Z"/><path class="d" d="M197.919,378.038c-.2,2.58-4.2,5.766-6.33,7.653-1.76,1.555-6.048,5.1-7.383,4.243-.373-1.677-1.024-4.5-2.307-5.147-1.611-.223-3.065,2.062-3.944,3.2-2.1,2.725-5.243,9.268-7.113,11.565-.865,1.063-4.138,5.907-4.371,7.485a3.942,3.942,0,0,0,1.448,3.73c4.338-.43,12.93-6.85,19.547-10.988,6.089-3.809,17.02-12.06,17.89-15.55a24.074,24.074,0,0,0-3.711-4.735,6.424,6.424,0,0,0-3.74-1.972A2.452,2.452,0,0,1,197.919,378.038Z"/><path class="a" d="M187.138,369.646a40.669,40.669,0,0,0,2.27,3.617c1.065,1.584,2.166,3.153,3.37,4.635a7.2,7.2,0,0,0,1.584,1.543,2.016,2.016,0,0,0,2.737-.718,2.047,2.047,0,0,0-.718-2.736c-.209-.138.476.423.189.145-.088-.086-.179-.169-.264-.257-.2-.208-.388-.428-.572-.65-.106-.127-.209-.256-.312-.386-.055-.069-.108-.139-.164-.208-.13-.161.2.263.174.225l-.114-.149q-.393-.516-.772-1.042-1.543-2.135-2.954-4.366c-.347-.548-.7-1.1-1-1.672a2.016,2.016,0,0,0-2.736-.717,2.044,2.044,0,0,0-.718,2.736Z"/><path class="a" d="M178.034,381.907c.855,1.463,1.568,3,2.426,4.464a2.072,2.072,0,0,0,1.195.919,2,2,0,0,0,2.259-2.938c-.859-1.459-1.571-3-2.426-4.464a2.075,2.075,0,0,0-1.195-.919,2,2,0,0,0-2.259,2.938Z"/><path class="a" d="M197.374,379.451c2.955.458,5.03,3.7,6.438,6.087a9.129,9.129,0,0,1,1.387,3.425c.021.341,0,.028.015-.062a2.083,2.083,0,0,1-.082.329c-.033.083-.056.172-.085.256-.1.3.12-.253-.021.052a9.1,9.1,0,0,1-.851,1.422,33.1,33.1,0,0,1-6.183,6.094,72.393,72.393,0,0,1-7.463,5.359c-2.414,1.511-4.827,3.037-7.273,4.5-2.51,1.5-5.356,3.353-8.334,3.662-1.913.2-5.868-.1-6.447-2.429-.234-.941.2-1.481.767-2.5.683-1.229,1.445-2.417,2.239-3.576q.267-.39.542-.775c.075-.106.153-.211.23-.316.2-.266-.254.329,0-.008.45-.587.891-1.168,1.292-1.791.983-1.525,1.857-3.121,2.752-4.7s1.768-3.155,2.783-4.648c.379-.558.783-1.105,1.2-1.636a7.468,7.468,0,0,1,1.026-1.134,2.306,2.306,0,0,1,.229-.184c.468-.3-.153-.113.361-.088l-1.01-.273c.606.367.922,2.021,1.112,2.771a4.125,4.125,0,0,0,.791,2.063,2.762,2.762,0,0,0,1.832.713c2.267.1,4.521-1.833,6.186-3.134a66.337,66.337,0,0,0,5.353-4.653c1.769-1.718,3.966-4.08,3.742-6.751-.213-2.547-4.215-2.57-4,0,.1,1.152-1,2.3-1.821,3.167-1.155,1.218-2.441,2.3-3.7,3.405a38.953,38.953,0,0,1-3.136,2.54,16.359,16.359,0,0,1-1.772,1.114,5.918,5.918,0,0,0-.647.281q-.381.084-.035.033a1.141,1.141,0,0,1,.424.144l.919,1.195c-.422-1.885-.881-4.126-2.259-5.574-1.832-1.924-4.329-.8-5.87.884-2.686,2.943-4.484,6.607-6.457,10.029-1.639,2.843-3.448,5-5.17,7.867a11.489,11.489,0,0,0-1.907,4.43,5.957,5.957,0,0,0,1.851,4.981c2.837,2.667,7.529,3.148,11.145,2.106,3.952-1.139,7.57-3.57,11.017-5.742,6.2-3.9,12.622-7.818,17.523-13.363a13.852,13.852,0,0,0,2.9-4.471c.646-1.856.013-3.7-.775-5.4a25.59,25.59,0,0,0-3.8-5.722,10.108,10.108,0,0,0-5.889-3.83,2.063,2.063,0,0,0-2.46,1.4,2.014,2.014,0,0,0,1.4,2.46Z"/><path class="a" d="M198.067,387.568c-.111.381.19-.3-.018.067-.089.158-.181.311-.282.462a10.345,10.345,0,0,1-.773.918,31.688,31.688,0,0,1-2.6,2.441,69.69,69.69,0,0,1-6.419,4.836c-2.405,1.62-4.861,3.177-7.3,4.755-2.225,1.443-4.622,3.213-7.243,3.833-2.5.592-1.444,4.45,1.063,3.857,2.963-.7,5.684-2.605,8.2-4.236,2.606-1.69,5.247-3.348,7.809-5.1a76.676,76.676,0,0,0,7.083-5.431c1.638-1.432,3.7-3.161,4.33-5.335.722-2.476-3.137-3.534-3.857-1.063Z"/><path class="d" d="M90.979,398.637c-2.263,1.254-7.123-.321-9.875-1.062-2.267-.61-7.587-2.235-7.609-3.82,1.192-1.236,3.191-3.336,3.021-4.763-.7-1.467-3.41-1.42-4.845-1.525-3.432-.252-10.623.736-13.57.442-1.364-.135-7.21-.2-8.654.48a3.943,3.943,0,0,0-2.314,3.265c2.751,3.382,12.844,7.011,19.945,10.249,6.534,2.98,19.445,7.55,22.835,6.352a24.05,24.05,0,0,0,1.905-5.707,6.427,6.427,0,0,0-.416-4.207A2.444,2.444,0,0,1,90.979,398.637Z"/><path class="a" d="M92.1,384.891a52.016,52.016,0,0,0-2.537,5.762c-.414,1.038-.814,2.082-1.164,3.143a8.418,8.418,0,0,0-.558,2.537,2,2,0,0,0,4,0,.47.47,0,0,1,.009-.168c.119-.238-.115.629-.037.295.035-.153.064-.307.1-.459.106-.417.237-.829.373-1.237.343-1.028.731-2.041,1.132-3.047.213-.534.448-1.061.654-1.6-.225.587-.022.052.031-.071.045-.107.091-.213.137-.32.1-.237.206-.474.311-.711.314-.709.628-1.426,1-2.107a2,2,0,1,0-3.454-2.019Z"/><path class="a" d="M79.674,379.2c-.6,1.21-1.307,2.36-1.9,3.572a2.136,2.136,0,0,0-.2,1.541,2,2,0,0,0,2.46,1.4,1.983,1.983,0,0,0,1.2-.919c.593-1.212,1.3-2.362,1.9-3.572a2.132,2.132,0,0,0,.2-1.541,2.046,2.046,0,0,0-.919-1.2,2.018,2.018,0,0,0-1.541-.2,1.988,1.988,0,0,0-1.2.919Z"/><path class="a" d="M89.675,399.351a6.265,6.265,0,0,1-.127,4.178,23.074,23.074,0,0,1-1.663,4.342,13.448,13.448,0,0,1-1.157,1.96,5.643,5.643,0,0,1-.488.583,4.4,4.4,0,0,1-.364.345c.132-.109.077-.074-.037-.007-.308.177-.042.019.031-.007a2.376,2.376,0,0,1-.334.1c-.114.022-.6.118-.49.1a15,15,0,0,1-1.532.018,34.232,34.232,0,0,1-8.55-1.857,71.681,71.681,0,0,1-8.514-3.246c-2.613-1.206-5.25-2.374-7.838-3.635-2.67-1.3-5.807-2.691-7.667-5.108-1.17-1.52-3.037-5.121-1.049-6.7a5.5,5.5,0,0,1,2.711-.523c1.376-.08,2.759-.093,4.137-.055,3.092.084,6.107-.016,9.2-.222a49.761,49.761,0,0,1,5.237-.179c.764.03,3.22-.11,3.609.562l-.273-1.01c.032.9-1.188,2.021-1.786,2.666-1.037,1.118-1.66,2.23-.748,3.665,1.234,1.942,4.109,2.778,6.157,3.454a62.5,62.5,0,0,0,6.886,1.876c2.661.55,5.53.885,7.791-.9a2.011,2.011,0,0,0,0-2.828,2.051,2.051,0,0,0-2.829,0c-.635.5-2.667.109-3.55-.061-1.578-.3-3.121-.758-4.668-1.183-1.317-.362-2.625-.751-3.9-1.233a13.334,13.334,0,0,1-1.725-.776c-.129-.071-.659-.388-.616-.359-.484-.325-.114-.324-.029.44l-.586,1.414c1.448-1.5,3.221-3.259,3.552-5.413.362-2.364-1.826-3.67-3.862-4.017-3.838-.655-7.793-.162-11.643.082-3.163.2-6.292-.079-9.454.034a13.517,13.517,0,0,0-4.826.707,5.9,5.9,0,0,0-3.45,4.407c-.656,3.839,1.457,8.068,4.376,10.5,3.148,2.618,7.033,4.29,10.734,5.963,6.773,3.062,13.636,6.3,21.079,7.326a12.986,12.986,0,0,0,5.269-.074c1.9-.536,3.13-2.124,4.094-3.759,2.269-3.848,4.331-9.273,2.351-13.589a2.016,2.016,0,0,0-2.737-.718,2.048,2.048,0,0,0-.717,2.737Z"/><path class="a" d="M82.7,403.8c-.218.067-.354.079-.047.044a4.341,4.341,0,0,1-.547.016,7.111,7.111,0,0,1-1.064-.1,29.709,29.709,0,0,1-3.481-.831,70.722,70.722,0,0,1-7.453-2.635c-2.548-1.056-5.072-2.191-7.6-3.3-2.276-1-4.983-1.976-6.819-3.7-1.875-1.761-4.71,1.062-2.829,2.829,2.13,2,4.99,3.171,7.629,4.326,2.844,1.244,5.684,2.518,8.555,3.7a69.727,69.727,0,0,0,8.078,2.812c2.013.552,4.561,1.334,6.641.692,2.452-.757,1.406-4.619-1.064-3.857Z"/><path class="d" d="M147.684,210.919c1.025.969,2.109,1.884,3.145,2.785a45.3,45.3,0,0,1,8.353,9.48,3.765,3.765,0,0,1-.585,4.779c-5.681,5.4-15.765,12.852-17.868,14.735,1.5,2.39,8.318,12.277,10.136,14.55,2.541-1.317,15.737-11.364,18.3-13.865,4.293-4.194,9.856-8.674,11.706-14.773,1.363-5.228-4.091-15.91-7.013-21.582"/><path class="g" d="M127.573,253.344a19.68,19.68,0,0,1,3.546-2.446c-1.991-.81-4.427-.921-4.384-3.562.03-1.824,1.895-2.574,3.454-2.843,3.339-.574,6.869.064,10.193.134h1.61c1.9,2.842,5.136,7.517,7.249,10.443l-3.06,5.48a15.772,15.772,0,0,1-3.476,3.853,11.31,11.31,0,0,1-7.552,3.128c-1.592.083-2.187-.925-3.563-1.841-1.661-1.105-5.3-6.245-5.354-9.255A4.128,4.128,0,0,1,127.573,253.344Z"/><path class="a" d="M140.382,242.627c-2.695-.075-5.386-.471-8.085-.351-2.184.1-4.76.413-6.353,2.09a4.64,4.64,0,0,0-.257,5.927c1.209,1.539,3.175,1.861,4.9,2.534l-.477-3.656c-2.721,1.693-5.825,3.476-5.871,7.109-.041,3.176,2.057,6.352,3.939,8.753a14.212,14.212,0,0,0,2.777,2.651c1.593,1.2,2.841,2,4.929,1.794a13.76,13.76,0,0,0,9.086-4.531,78.135,78.135,0,0,0,5.567-8.017c1.445-2.139-2.019-4.143-3.454-2.019-2.457,3.637-4.64,8.624-9.137,10.113-.922.305-2.48.805-3.4.387a11.027,11.027,0,0,1-1.639-1.235s-.49-.349-.231-.151c.2.151-.036-.03-.063-.054-.182-.16-.355-.328-.523-.5a15.367,15.367,0,0,1-3.645-6,2.427,2.427,0,0,1,.487-2.655,14.912,14.912,0,0,1,3.2-2.192,2.028,2.028,0,0,0-.478-3.655c-.8-.313-2.389-.548-2.827-1.131-.353-.469.18-.915.773-1.14a12.71,12.71,0,0,1,4.836-.421c1.986.07,3.963.294,5.949.349,2.575.072,2.573-3.928,0-4Z"/><path class="a" d="M178.921,243.533a4.185,4.185,0,0,0,1.751,1.52,8.989,8.989,0,0,0,1.195.456c.29.082.584.146.879.2a1.512,1.512,0,0,0,.8.035,1.492,1.492,0,0,0,.744-.237,2.238,2.238,0,0,0,.919-1.195,2.022,2.022,0,0,0-.2-1.541,1.972,1.972,0,0,0-1.195-.92,7.788,7.788,0,0,1-1.508-.418l.478.2a3.187,3.187,0,0,1-.693-.388l.405.313a2.076,2.076,0,0,1-.354-.347l.313.405c-.026-.035-.051-.07-.075-.106a2.127,2.127,0,0,0-1.195-.919,1.526,1.526,0,0,0-.8-.036,1.5,1.5,0,0,0-.744.238,2,2,0,0,0-.717,2.736Z"/><path class="a" d="M148.885,178.246c-.884.43-1.771.853-2.671,1.249l-.257.112c-.062.027-.435.179-.135.059.275-.11-.012,0-.067.026l-.3.122q-.523.21-1.054.4c-1.631.592-3.3,1.063-4.971,1.544a2,2,0,1,0,1.063,3.857c1.706-.492,3.42-.974,5.088-1.587A57.784,57.784,0,0,0,150.9,181.7a2.01,2.01,0,0,0,.717-2.736,2.05,2.05,0,0,0-2.736-.718Z"/><path class="a" d="M151.136,191.111c6.375-2.2,12.2,3.2,15.785,7.882A40.623,40.623,0,0,1,172,207.682c1.315,3.077,3.017,5.985,4.33,9.072a29.931,29.931,0,0,1,2.721,9.1c.237,3.151-1.714,6.122-3.768,8.564a84.658,84.658,0,0,1-12.452,11.65q-3.708,2.926-7.521,5.72a45.985,45.985,0,0,1-5.451,3.731l2.424.313a2.017,2.017,0,0,1-.179-.233c-.171-.229-.342-.457-.51-.686-.422-.574-.838-1.153-1.252-1.732q-1.527-2.139-3.021-4.3c-1.647-2.376-3.318-4.747-4.861-7.193l-.313,2.423c3.777-3.346,7.95-6.27,11.844-9.48q1.812-1.493,3.581-3.034a17.1,17.1,0,0,0,3.321-3.31c2.261-3.537-.325-6.832-2.5-9.589-2.739-3.474-6.078-6.193-9.292-9.194-1.88-1.755-4.715,1.067-2.828,2.829,3.288,3.07,6.741,5.849,9.49,9.451.889,1.165,2.759,2.963,1.672,4.5a22.084,22.084,0,0,1-3.759,3.405c-4.668,4-9.761,7.517-14.359,11.59a2.017,2.017,0,0,0-.312,2.424,169.984,169.984,0,0,0,10.449,14.954,2.017,2.017,0,0,0,2.423.313,43,43,0,0,0,5.015-3.413q3.826-2.792,7.556-5.714a92.3,92.3,0,0,0,13.411-12.305c2.461-2.86,5.019-6.453,5.215-10.354.173-3.436-1.087-6.977-2.326-10.123-1.365-3.465-2.994-6.817-4.69-10.129a67.32,67.32,0,0,0-5.248-9.381c-4.616-6.325-12.269-13.224-20.734-10.3-2.419.835-1.379,4.7,1.063,3.857Z"/></svg>