<?xml version="1.0" encoding="utf-8"?>
<!-- Uploaded to: SVG Repo, www.svgrepo.com, Generator: SVG Repo Mixer Tools -->
<svg width="800px" height="800px" viewBox="-14.12 0 327.97 327.97" xmlns="http://www.w3.org/2000/svg"><defs><style>.a{fill:#ffffff;}.b{fill:#a0a0a0;}.c{fill:#b5886a;}.d{fill:#79c6e0;}.e{fill:#211715;}</style></defs><path class="a" d="M51.821,213.254c-.052-.132-.095-.236-.127-.308,2.288-.843,20.953-7.675,28.469-11.524.827,1.653,2.561,5.718,3.622,7.9l.355.782c-8.67,4.391-20.38,9.623-28.943,11.967l-.392-.839C53.81,218.79,52.347,214.588,51.821,213.254Z"/><path class="b" d="M39.674,133.475a2.8,2.8,0,0,1,1.542-3.553c.7-.3,1.425-.6,2.152-.892a3.168,3.168,0,0,1,4.1,1.794c2.339,5.93,5.817,14.965,7.081,18.437l1.726,4.381a14.378,14.378,0,0,0-4.114-1.345,26.752,26.752,0,0,0-5.606-.422l-.694-1.672C44.075,145.661,41.432,138.253,39.674,133.475Z"/><path class="a" d="M69.218,162.4a13.077,13.077,0,0,1-3.036-5.774c-.812-3.712-2.784-8.583-6.727-8.815-2.614-.154-3.422,1.841-3.77,3.015,0,0-.254.858-.663,2.25a16.289,16.289,0,0,0-2.858-.779c-6.838-1.253-14.308.259-14.552,3.8-.311,1.757.142,3.318,1.527,6.091-1.215,1.216-2.1,4.705-1.169,5.45l.593,1.787a4.557,4.557,0,0,0-4.475,1.376c-1.4,1.537-2.473,4.852-.779,6.062.744.531,1.4,1.068,2.04,1.589l-.1-.015c-2.842-.986-6.789,1.522-6.554,4.118.18,1.993,1.76,3.851,3.391,5.144l.234.185c.731,1.211,1.165,1.932,1.165,1.932a45.411,45.411,0,0,0,10.84,12.265c1.226.962,2.5,1.861,3.688,2.872a25.22,25.22,0,0,1,5.009,5.813l.8,1.4c5.337-1.976,18.431-6.9,25.221-10.182-.129-1.069-.218-1.856-.218-1.856-1.044-13.8-1.544-27.224-4-31.027C73.049,166.35,70.942,164.455,69.218,162.4Z"/><path class="b" d="M2.8,34.224c.116.287.692,1.7,1.641,4.035a3.2,3.2,0,0,0,4.154,1.77l2.115-.848a3.2,3.2,0,0,0,1.781-4.152c-.889-2.247-1.209-3.045-1.6-4.023-.937-2.33-4.03-4.409-6.037-3.747C3.117,27.83,1.7,31.515,2.8,34.224Z"/><path class="c" d="M161.181,129.883a48.369,48.369,0,0,1-7.261-13.647c-.975,6.421-4.5,9.127-8.294,11.74-3.456,2.381-7.209,4.625-9.427,9.186a26.73,26.73,0,0,0-2.134,12.021c.1,4.213,3.48,15.1,7.678,19.64l.93,1.257a110.7,110.7,0,0,0,13.913-5.915l10.188-3.312c4.58-2.84,8.83-5.93,9.68-8.03,1.12-2.78,1.07-6.44,1.05-9.685a41.477,41.477,0,0,1-15.242-11.907Q161.7,130.562,161.181,129.883Z"/><path class="a" d="M258.389,88.4a9.678,9.678,0,0,0-1.014-3.894,6.848,6.848,0,0,0-4.923-3.273,7.252,7.252,0,0,0-5.8,1.7s1.255-41.918-49.412-41.918-47.9,41.918-47.9,41.918a7.251,7.251,0,0,0-5.8-1.7A6.85,6.85,0,0,0,138.61,84.5,9.677,9.677,0,0,0,137.6,88.4a29.01,29.01,0,0,0,2.958,15.378,18.42,18.42,0,0,0,4.768,6.257,11.652,11.652,0,0,0,7.488,2.67,49.418,49.418,0,0,0,9.451,18.53A41.576,41.576,0,0,0,177.5,143.145v.008c.02,3.23.07,6.89-1.05,9.67-.883,2.181-5.435,5.431-10.214,8.359a197.912,197.912,0,0,0,4.67,20.522l1.956.521a109.8,109.8,0,0,0,25.057,3.6c7.991.019,19.36-1.244,27.166-4.348l1.246-.5a162.94,162.94,0,0,0,3.294-19.784c-4.365-2.935-8.561-6.192-9.445-8.376-1.15-2.83-1.08-6.6-1.06-9.88v-.006h0c12.152-5.212,21.928-21.568,23.632-26.2.258-.78.782-2.251,1.248-4l.973-.151a12.219,12.219,0,0,0,5.685-2.562,18.445,18.445,0,0,0,4.768-6.257A29.01,29.01,0,0,0,258.389,88.4Z"/><path class="c" d="M139.051,74.193c.388,2.131,1.3,5.72,1.98,7.928a6.847,6.847,0,0,1,2.5-.892,7.367,7.367,0,0,1,4.653.872c7.648-3.329,13.036-9.872,16.681-15.046C171.955,57,173.979,49.988,175.3,42.92c5.514,7.251,55.8,34.623,70.209,36.8L248,82a7.327,7.327,0,0,1,4.451-.768,7.044,7.044,0,0,1,3.646,1.71,127.95,127.95,0,0,0,1.245-22.272c-1.049-15.052-6.966-31.913-16.445-41.255C228.6,7.294,218.491,2.448,195.484,2.448A58.854,58.854,0,0,0,154.842,18.8c-12.421,12.148-17.867,29.16-16.975,44.761A76.978,76.978,0,0,0,139.042,74"/><path class="d" d="M194.513,185.722a115.624,115.624,0,0,1-21.647-3.5l-1.958-.523c.662,2.281,1.355,4.442,2.065,6.376,2.181,5.941,9.335,26.176,14.2,37.742a258.788,258.788,0,0,0,12.382,25.411c9.6-21.857,20.854-44.423,26.76-70.2l-1.231.443c-7.806,3.1-19.175,4.367-27.166,4.348C196.834,185.823,195.691,185.787,194.513,185.722Z"/><path class="a" d="M297.326,325.565c-2.97-58.96-5.53-109.59-11.13-128.26a25.244,25.244,0,0,0-7.44-11.89,53.968,53.968,0,0,0-9.34-6.07c-8.54-4.12-19.62-9.12-27.23-13.52l-12.5-5.238c-3.407,34.626-18.073,63.194-30.129,90.644a259.014,259.014,0,0,1-12.382-25.411c-4.87-11.566-12.024-31.8-14.2-37.742-2.813-7.665-5.371-18.883-6.763-27.053l-9.624,3.14c-9.2,4.71-20.38,7.85-29.65,12.33a29.752,29.752,0,0,0-8.59,5.73,26.617,26.617,0,0,0-5.63,8.67c-6.775,17.681-7.622,26.369-14.548,44.288-3.834-8.973-7.187-17.3-11-26.646-9.619,5.068-24.946,12.087-34.562,14.171,4.793,15.35,9.6,31.862,16.359,47.233,4.7,10.68,9.726,21.628,21.244,23.481,7.376,1.186,16.154-1.822,21.777-6.741s14.445-15.334,18.667-20.667c0,0,.936-1.072,2.241-2.564,1.189,7.271,2.16,14.214,2.16,17.68,0,6.94-2.54,30.24-3.58,44.44Z"/><path class="a" d="M147.7,263.007c-4.32-6.744-6.593-17.2-7.146-25.425-.569-8.459,1.3-25.8,6.411-38.535,1.364-7.73,2.888-14.464,4.03-20.986,1.7-9.723,6.1-17.022,14.559-21.3.192,1.419.443,3.027.745,4.763-5.386,8.114-8.38,30.8-7.938,38.426,5.223,15.347,16.886,29.811,18.762,46.905.551,5.019-1.076,9.8-3.822,14.037-2.547,3.932-6.462,6.045-10.631,7.991-1.823.851-3.992,1.709-5.742,2.7-1.319.747-2.506,1.807-3.984,2.144-3.242.738-5.712-2.409-6.115-5.3-.309-2.218.151-4.472,2.538-5.647,3.225-1.587,6.394-.561,9.828-2.375,3.218-1.7,5.8-2.434,7.4-8.13,2.116-7.542-2.875-16.831-5.785-23.661-1.532-3.595-7.036-16.33-8.287-18.553-1.362,5.553-3.876,20.308-2.918,27.152.787,5.622,2.918,16.452,6.671,22.706L158.2,263.6l-8.592,2.963Z"/><path class="b" d="M170.362,272.555a4.54,4.54,0,0,0-2.377-4.17l-2.4-.94c-.947.5-1.924.976-2.914,1.438-1.343.627-2.873,1.258-4.286,1.942a17.42,17.42,0,0,0,2.064,3.71,5.29,5.29,0,0,0,3.223,2.021,6.118,6.118,0,0,0,2.428-.226,5.885,5.885,0,0,0,4.053-2.853A2.565,2.565,0,0,0,170.362,272.555Z"/><path class="b" d="M147.19,264.959a4.434,4.434,0,0,1,2.175-2.179A15.857,15.857,0,0,1,154.9,261.6a24.054,24.054,0,0,1,2.294,9.845,2.337,2.337,0,0,0-.269.136c-1.319.747-2.506,1.807-3.984,2.144-3.242.738-5.712-2.409-6.115-5.3A6.328,6.328,0,0,1,147.19,264.959Z"/><path class="e" d="M172.228,184.54a113.006,113.006,0,0,0,21.5,3.534,88.667,88.667,0,0,0,20.72-1.291,57.655,57.655,0,0,0,11.28-2.99,2.473,2.473,0,0,0,1.676-2.953,2.418,2.418,0,0,0-2.952-1.676,67.881,67.881,0,0,1-19.716,4.006,86.09,86.09,0,0,1-19.679-.867,112.98,112.98,0,0,1-11.552-2.392c-2.989-.792-4.264,3.837-1.276,4.629Z"/><path class="e" d="M248.347,84.624a4.753,4.753,0,0,1,6.778.793,8.139,8.139,0,0,1,.947,4.293,25.538,25.538,0,0,1-.3,5.263c-1.074,6.345-4.371,14.076-11.435,15.306a2.42,2.42,0,0,0-1.676,2.952,2.455,2.455,0,0,0,2.952,1.677c9.711-1.692,14.352-12.708,15.157-21.474.389-4.242.281-9.548-3.3-12.474a9.712,9.712,0,0,0-12.518.27,2.42,2.42,0,0,0,0,3.394,2.45,2.45,0,0,0,3.394,0Z"/><path class="e" d="M242.5,107.2a24.182,24.182,0,0,1-1.127,6.024c-.229.771-.481,1.535-.737,2.3-.078.233-.158.464-.238.7-.16.469-.095.235-.032.1a50.888,50.888,0,0,1-3.238,5.924,57.48,57.48,0,0,1-12.836,14.8,24.372,24.372,0,0,1-9.466,4.786c-3.009.694-1.735,5.323,1.276,4.628,7.306-1.685,13.426-6.942,18.242-12.459a62.653,62.653,0,0,0,10.014-14.913A32.126,32.126,0,0,0,247.3,107.2c.106-3.089-4.695-3.085-4.8,0Z"/><path class="e" d="M151.032,81.23a9.711,9.711,0,0,0-12.517-.27c-3.583,2.926-3.692,8.232-3.3,12.474.805,8.766,5.446,19.782,15.156,21.474a2.469,2.469,0,0,0,2.952-1.677,2.42,2.42,0,0,0-1.676-2.952c-7.063-1.23-10.361-8.961-11.434-15.306a25.612,25.612,0,0,1-.3-5.263,8.277,8.277,0,0,1,.946-4.293,4.747,4.747,0,0,1,6.778-.793,2.464,2.464,0,0,0,3.394,0,2.42,2.42,0,0,0,0-3.394Z"/><path class="e" d="M149.478,109.152c3.071,14.516,11.639,28.664,25.317,35.38a34.3,34.3,0,0,0,11.661,3.341,2.417,2.417,0,0,0,2.4-2.4,2.454,2.454,0,0,0-2.4-2.4c-13.461-1.4-24.471-13.04-29.313-25.052a60.68,60.68,0,0,1-3.037-10.145c-.639-3.02-5.267-1.742-4.628,1.276Z"/><path class="e" d="M216.724,142.943a50.387,50.387,0,0,0,.21,6.337,12.509,12.509,0,0,0,1.69,5.667c2.371,3.425,6.2,5.888,9.589,8.188a2.4,2.4,0,1,0,2.422-4.144c-1.614-1.1-3.218-2.214-4.728-3.45-.661-.541-1.308-1.1-1.921-1.7-.268-.26-.531-.526-.781-.8-.127-.141-.25-.283-.371-.429-.245-.293.265.433-.066-.09-.145-.23-.29-.45-.413-.694-.131-.259.131.389,0-.037-.073-.226-.153-.448-.218-.676a13.877,13.877,0,0,1-.45-2.294,53.655,53.655,0,0,1-.158-5.88c.02-3.089-4.78-3.093-4.8,0Z"/><path class="e" d="M175.1,143.153a51.44,51.44,0,0,1-.165,5.757,14.206,14.206,0,0,1-.482,2.362c-.066.222-.142.439-.219.658.054-.152.136-.232.017-.045-.085.133-.549.819-.213.393-2.188,2.771-5.51,4.655-8.479,6.5a2.4,2.4,0,1,0,2.422,4.144c1.939-1.206,3.853-2.459,5.668-3.846a20.629,20.629,0,0,0,4.277-4.045,11.19,11.19,0,0,0,1.7-5.211,47.924,47.924,0,0,0,.278-6.67c-.02-3.088-4.82-3.094-4.8,0Z"/><path class="e" d="M57.12,220.591c-1.184-2.924-2.1-5.963-3.354-8.856l-1.434,3.526c4.153-1.531,8.3-3.085,12.422-4.693,5.595-2.181,11.263-4.346,16.62-7.074l-3.283-.861c1.282,2.6,2.362,5.289,3.621,7.9a2.423,2.423,0,0,0,3.284.861,2.451,2.451,0,0,0,.861-3.284c-1.259-2.608-2.339-5.3-3.622-7.9a2.441,2.441,0,0,0-3.283-.861,171.348,171.348,0,0,1-15.769,6.705q-6.041,2.351-12.127,4.578a2.454,2.454,0,0,0-1.434,3.526c-.363-.834-.042-.078.025.1.112.294.22.589.329.885.249.678.494,1.357.742,2.036.572,1.57,1.146,3.141,1.773,4.69a2.476,2.476,0,0,0,2.952,1.677,2.417,2.417,0,0,0,1.677-2.953Z"/><path class="e" d="M40.714,185.269c.042.059.082.119.122.179.115.171.224.163.04.048l-.065-.146.043.149.018.077c.027.13.026.1,0-.081-.081-.021,0-.25,0,.092,0,.085.005.17,0,.256s-.02.178-.013.261c.025.273.113-.458,0-.02-.044.175-.076.352-.126.526-.023.079-.256.691-.121.387s-.146.264-.185.33a1.314,1.314,0,0,0-.131.208c-.073.229.262-.257.092-.112a1.185,1.185,0,0,0-.2.21c-.146.211.194-.165.18-.131-.054.134-.467.268-.571.338-.212.141.078-.023.121-.039-.095.037-.191.071-.287.1a6.729,6.729,0,0,1-.8.216c-.1.021-.206.04-.31.056.105-.016.466-.029.01-.017-.209.006-.416.016-.625.009-.137-.005-.272-.018-.409-.029.045,0,.393.093.143.009-.269-.091-.549-.147-.819-.244s-.046-.012,0,.01c-.113-.049-.223-.1-.333-.158q-.389-.192-.76-.411c-.5-.3-.98-.623-1.448-.966q-.2-.147-.4-.3c.044.034.207.162-.006-.007s-.417-.335-.618-.511a14.422,14.422,0,0,1-1.145-1.148c-.006-.006-.254-.3-.107-.117s-.085-.116-.091-.125c-.152-.219-.3-.441-.429-.672-.066-.117-.332-.74-.185-.331-.1-.275-.155-.554-.236-.833.09.308.031.122.018-.092-.022-.361-.168.461.027-.038.005-.015.066-.223.073-.221.056.014-.253.426-.078.213a2.148,2.148,0,0,0,.162-.28c.041-.07.272-.331.055-.095s-.01.021.029-.018c.1-.1.206-.205.307-.307.062-.063.133-.116.2-.176-.22.2-.224.151.017,0,.181-.115.36-.229.549-.33.109-.058.223-.106.331-.164-.163.088-.328.117-.06.032.236-.074.468-.151.709-.2.089-.02.182-.029.27-.052.292-.077-.551,0-.006.016.206,0,.422.018.627.014.3-.006-.358-.163-.112,0a2.245,2.245,0,0,0,.426.119,2.419,2.419,0,0,0,2.952-1.676,2.454,2.454,0,0,0-1.676-2.952,7.987,7.987,0,0,0-7.684,2.046,6.083,6.083,0,0,0-1.888,3.778,7.067,7.067,0,0,0,1.205,4.273,13.219,13.219,0,0,0,3.064,3.33,18.728,18.728,0,0,0,3.932,2.563c2.869,1.276,6.508,1.181,8.963-.989,2.055-1.816,3.077-5.929,1.381-8.273a2.457,2.457,0,0,0-3.283-.861,2.428,2.428,0,0,0-.861,3.284Z"/><path class="e" d="M41.852,168.125a8.822,8.822,0,0,0-6.121-1.012,7.212,7.212,0,0,0-4.207,3.1,8.4,8.4,0,0,0-1.469,4.973,4.925,4.925,0,0,0,.786,2.5,10.863,10.863,0,0,0,2.39,2.111c2.3,1.859,4.727,3.534,7.1,5.287a18.621,18.621,0,0,0,3.121,2,7.37,7.37,0,0,0,5.162.272,6.733,6.733,0,0,0,4.577-4.05,7.113,7.113,0,0,0-.913-6.732A2.467,2.467,0,0,0,49,175.722a2.42,2.42,0,0,0-.861,3.284,4.985,4.985,0,0,1,.64,1.067c-.091-.241.142.783.088.342.019.153,0,.789.018.647.033-.276-.047.187-.063.248a3.705,3.705,0,0,1-.17.529c.172-.408-.121.14-.188.264-.171.316.242-.305.021-.015-.039.05-.347.358-.14.171s-.137.094-.2.129c-.1.057-.2.11-.293.167-.39.226-.17.075-.062.036q-.278.1-.562.176c-.153.041-.307.073-.462.105-.39.083.333-.017-.058.011-.266.019-.526.009-.791.017-.451.014-.115-.016.006.016a.877.877,0,0,1-.2-.05c-.5-.306.389.234-.1-.043a26.16,26.16,0,0,1-2.439-1.572q-2.369-1.715-4.744-3.408c-1.117-.8-2.487-2.132-3.611-2.832-.258-.161.173.245-.029-.046.22.316.127.239.051.059-.153-.36,0-.073,0,.066,0-.169.076-.885-.015-.4a6.745,6.745,0,0,1,.217-.853c.046-.141.095-.284.152-.421-.164.4.043-.062.084-.134a9.109,9.109,0,0,1,.5-.818c-.291.4.259-.233.364-.335.253-.247-.3.182,0,0,.147-.089.293-.176.442-.263.106-.063.4-.125,0-.006.135-.041.276-.075.41-.119.4-.133.148-.031.016-.021a5.6,5.6,0,0,1,.579-.015c.054,0,.542.052.292.015-.226-.033.39.1.448.114a4.955,4.955,0,0,1,1.087.434,2.457,2.457,0,0,0,3.284-.861,2.424,2.424,0,0,0-.861-3.283Z"/><path class="e" d="M49.645,174.3c-2.666-2.161-5.254-4.41-7.875-6.625q-.738-.624-1.486-1.237a4.146,4.146,0,0,0-.44-.358c-.2-.124-.28-.384.039.162.268.46.13.391.085.19.139.614.016.163.016-.042,0-.132.012-.261.019-.393-.027.5-.008.037.026-.1.082-.333.159-.663.269-.988.049-.143.1-.29.159-.429-.162.377,0,.028.034-.034.089-.148.173-.3.259-.453s.067-.117-.1.094a2.43,2.43,0,0,1,.206-.224,2.836,2.836,0,0,1,2.987-.4c-.109-.041-.408-.213.194.1.191.1.38.2.568.3q.613.33,1.21.689a23.733,23.733,0,0,1,2.289,1.548,28.4,28.4,0,0,1,3.409,3.233,11.327,11.327,0,0,1,2.154,3.587c.044.12.1.588.063.142a3.247,3.247,0,0,1-.013.7c.075-.538-.3.805-.134.408a4.115,4.115,0,0,1-.228.437s-.411.6-.187.321a4.13,4.13,0,0,1-.328.358c-.038.038-.566.429-.248.225a2.752,2.752,0,0,1-.4.231c.372-.158-.4.051-.019-.012-.388.064-.285-.024-.127,0,.016,0-.725-.235-.419-.108a6.875,6.875,0,0,1-1.255-.75,9.218,9.218,0,0,1-.733-.57,2.473,2.473,0,0,0-3.394,0,2.418,2.418,0,0,0,0,3.394c1.768,1.433,3.765,2.981,6.185,2.812a6.758,6.758,0,0,0,5.4-4.145c1.086-2.435.7-4.613-.453-6.941a19.032,19.032,0,0,0-4.041-5.106,29.037,29.037,0,0,0-5.488-4.144c-2.217-1.287-4.45-2.086-7.033-1.537a6.858,6.858,0,0,0-4.9,4.36c-.7,1.7-1.179,3.991-.177,5.672a9.9,9.9,0,0,0,2.287,2.109c.786.659,1.564,1.327,2.342,1.994,1.943,1.665,3.9,3.315,5.884,4.926a2.471,2.471,0,0,0,3.394,0A2.418,2.418,0,0,0,49.645,174.3Z"/><path class="e" d="M58,151.464c.261-.851.462-1.482,1.715-1.2,1.294.29,2.216,1.738,2.842,2.992a34.929,34.929,0,0,1,1.608,5.106,16.948,16.948,0,0,0,3.206,5.553c1.3,1.588,2.785,3.018,4.087,4.607a14.165,14.165,0,0,1,1.464,2.069c.073.13.362.764.157.272.14.335.254.683.362,1.03a51.779,51.779,0,0,1,1.669,10.567c.541,5.879.873,11.776,1.316,17.662a2.459,2.459,0,0,0,2.4,2.4,2.419,2.419,0,0,0,2.4-2.4c-.443-5.886-.775-11.783-1.316-17.662-.377-4.087-.639-8.477-2.017-12.38-1.46-4.13-5.1-6.713-7.588-10.159-1.3-1.8-1.65-3.682-2.282-5.755A16.447,16.447,0,0,0,64.95,148.2a7.5,7.5,0,0,0-6.865-2.688c-2.494.417-4.008,2.375-4.714,4.676-.908,2.96,3.723,4.226,4.628,1.276Z"/><path class="e" d="M51.705,162.135a53.483,53.483,0,0,0,2.77,10.27c1.01,3.1,1.844,6.344.905,9.564-.867,2.971,3.764,4.24,4.628,1.276,1.065-3.651.517-7.45-.562-11.03-1-3.325-2.529-6.6-2.941-10.08a2.475,2.475,0,0,0-2.4-2.4,2.415,2.415,0,0,0-2.4,2.4Z"/><path class="e" d="M49.069,163.6c3.3.523,7.722.948,10.485-1.4a6.168,6.168,0,0,0-.07-9.235c-3.019-2.679-7.434-3.374-11.332-3.491-3.375-.1-7.439.249-10.293,2.254a6.682,6.682,0,0,0-1.89,1.9,4.893,4.893,0,0,0-.551,1.215c-.057.194-.247,1.507-.16.867a11.893,11.893,0,0,0,1.391,6.819,2.418,2.418,0,0,0,3.283.861,2.454,2.454,0,0,0,.861-3.283,12.174,12.174,0,0,1-.707-1.875,3.205,3.205,0,0,1-.161-1.369c0-.084.163-.98.069-.632-.121.453.217-.475.03-.071s.306-.4.066-.09c-.221.288.511-.456.27-.261-.167.136.293-.187.384-.241.2-.12.41-.228.622-.329.243-.115.049-.026,0,0,.16-.067.328-.124.491-.18.3-.1.612-.194.922-.275a16.349,16.349,0,0,1,3.674-.5,18.145,18.145,0,0,1,8.373,1.31c.251.123.5.258.737.4.073.045.581.394.347.212a5.965,5.965,0,0,1,.585.55c.191.195-.01-.038-.038-.076a3.94,3.94,0,0,1,.218.336c.182.309,0-.195.1.241s.023-.1.064.335c.036.383.01.252.031.088a2.277,2.277,0,0,1-.084.354c-.076.256.006.051.029,0a2.2,2.2,0,0,1-.244.427c.187-.253-.431.323-.256.207a1.429,1.429,0,0,1-.535.239c-.137.041-.279.068-.419.1s-.784.115-.322.061a17.4,17.4,0,0,1-4.693-.089,2.475,2.475,0,0,0-2.952,1.677,2.418,2.418,0,0,0,1.676,2.952Z"/><path class="e" d="M31.411,191.022a48.1,48.1,0,0,0,9.155,11.032c1.839,1.629,3.881,3,5.748,4.592a23.6,23.6,0,0,1,4.634,5.327c1.651,2.6,5.806.195,4.144-2.423a28.232,28.232,0,0,0-4.833-5.814c-1.824-1.652-3.893-3-5.76-4.606a43.847,43.847,0,0,1-8.944-10.53c-1.6-2.637-5.754-.227-4.144,2.422Z"/><path class="e" d="M7.516,40.5c3.7,9.746,7.271,19.539,10.858,29.325q7.617,20.78,15.067,41.618c2.215,6.226,4.419,12.457,6.531,18.719.982,2.912,5.62,1.663,4.629-1.276-4.153-12.313-8.587-24.533-13.007-36.752q-7.164-19.8-14.471-39.555c-1.648-4.456-3.294-8.913-4.979-13.355A2.467,2.467,0,0,0,9.192,37.55,2.418,2.418,0,0,0,7.516,40.5Z"/><path class="e" d="M48.178,149.565c-1.141-2.906-2.216-5.838-3.287-8.769q-.865-2.367-1.725-4.737-.369-1.013-.739-2.025a4.747,4.747,0,0,1-.522-1.7c-.053.307.109-.1.062-.065a2.913,2.913,0,0,1,.637-.353c.342-.151.691-.293,1.039-.431.166-.065.33-.137.5-.192.083-.027.6-.1.325-.087a.692.692,0,0,1,.717.355,2.341,2.341,0,0,0,.126.289c.175.4.32.814.479,1.22q1.729,4.407,3.425,8.826c1.022,2.661,2.046,5.321,3.023,8a2.464,2.464,0,0,0,2.952,1.676,2.419,2.419,0,0,0,1.676-2.952c-2.254-6.179-4.6-12.346-7.081-18.437a5.7,5.7,0,0,0-4.773-3.737,5.6,5.6,0,0,0-2.645.412,12.351,12.351,0,0,0-3.362,1.647,5.229,5.229,0,0,0-1.645,5.6c.516,1.659,1.2,3.284,1.794,4.916,1.436,3.948,2.859,7.9,4.395,11.812a2.474,2.474,0,0,0,2.953,1.676,2.418,2.418,0,0,0,1.676-2.952Z"/><path class="e" d="M100.74,235.153c4.291-11.24,7.174-22.886,10.955-34.29,2.007-6.053,3.845-12.226,8.348-16.941a26.732,26.732,0,0,1,7.746-5.18c2.93-1.44,5.953-2.676,8.994-3.859,7.056-2.745,14.252-5.209,21.014-8.646,2.755-1.4.328-5.542-2.422-4.144-6.129,3.114-12.635,5.37-19.037,7.84-6.142,2.369-12.7,4.757-17.876,8.938a27.218,27.218,0,0,0-6.4,7.8,60.858,60.858,0,0,0-3.9,9.707c-1.947,5.574-3.606,11.236-5.256,16.9-2.023,6.949-4.209,13.834-6.791,20.6a2.419,2.419,0,0,0,1.676,2.952,2.452,2.452,0,0,0,2.952-1.676Z"/><path class="e" d="M106.218,247.573c-5.911-13.085-11.314-26.38-16.732-39.674a2.446,2.446,0,0,0-3.525-1.435q-8.377,4.406-17.1,8.127a97.162,97.162,0,0,1-16.891,5.8,2.423,2.423,0,0,0-1.676,2.952c3.178,10.182,6.236,20.405,9.789,30.464,3.233,9.152,6.722,18.468,11.415,26.992,3.915,7.112,9.682,13.566,18.076,14.934,8.969,1.461,18.359-2.063,24.957-8.116,6.536-6,12.32-12.97,17.822-19.909a2.475,2.475,0,0,0,0-3.394,2.417,2.417,0,0,0-3.394,0,211.106,211.106,0,0,1-15.068,17.238,34.053,34.053,0,0,1-8.8,6.85,25.745,25.745,0,0,1-11.917,2.872,16.935,16.935,0,0,1-10.084-3.452,27.786,27.786,0,0,1-6.752-8.215c-4.538-7.771-7.79-16.437-10.84-24.871C61.607,243.971,58.334,233,54.924,222.07l-1.676,2.953a102.168,102.168,0,0,0,17.67-6.132q8.9-3.772,17.465-8.282l-3.525-1.434c5.574,13.677,11.133,27.358,17.215,40.821a2.419,2.419,0,0,0,3.284.861,2.458,2.458,0,0,0,.861-3.284Z"/><path class="e" d="M240.975,167.9c5.768,3.321,11.8,6.183,17.8,9.037,6.156,2.925,12.378,5.6,17.8,9.8,6.868,5.322,8.426,14.47,9.771,22.538,1.524,9.146,2.433,18.487,3.254,27.939,1.1,12.68,1.915,25.384,2.659,38.09.982,16.749,1.817,33.507,2.661,50.264.155,3.074,4.956,3.093,4.8,0-1.43-28.39-2.7-56.811-5.049-85.144-.835-10.1-1.8-20.207-3.344-30.225-1.339-8.663-2.887-17.82-8.923-24.593a37.3,37.3,0,0,0-8.456-6.491,104.665,104.665,0,0,0-10.017-5.025c-6.922-3.278-13.9-6.51-20.54-10.334-2.682-1.544-5.1,2.6-2.422,4.144Z"/><path class="e" d="M266.958,325.57c-.7-9.447-1.648-18.873-2.481-28.309-.566-6.41-1.469-12.987-.929-19.428,1.264-15.068,4.758-30.185,7.33-45.238,1.89-11.065,3.286-22.229,5.466-33.242a2.461,2.461,0,0,0-1.676-2.952,2.422,2.422,0,0,0-2.952,1.676c-1.927,9.736-3.213,19.6-4.822,29.389-1.285,7.821-2.851,15.589-4.213,23.395-1.412,8.1-2.785,16.226-3.681,24.4-.684,6.246-.145,12.373.384,18.617.895,10.566,2,21.116,2.774,31.693a2.459,2.459,0,0,0,2.4,2.4,2.42,2.42,0,0,0,2.4-2.4Z"/><path class="e" d="M120.553,199.877c1.362,10.655,2.759,21.308,4.422,31.921,1.206,7.692,2.658,15.337,4.018,23,1.321,7.444,2.691,14.936,3.414,22.258.595,6.035-.149,12.132-.668,18.149-.874,10.121-1.915,20.23-2.661,30.362a2.421,2.421,0,0,0,2.4,2.4,2.446,2.446,0,0,0,2.4-2.4c.666-9.038,1.568-18.057,2.372-27.083.353-3.957.7-7.915.966-11.879a56.386,56.386,0,0,0,.157-7.6,216.928,216.928,0,0,0-3.151-22.062c-1.231-7.1-2.606-14.174-3.788-21.282-1.978-11.887-3.553-23.836-5.081-35.787a2.478,2.478,0,0,0-2.4-2.4,2.413,2.413,0,0,0-2.4,2.4Z"/><path class="e" d="M.483,34.862Q1.041,36.236,1.6,37.61a12.416,12.416,0,0,0,1.19,2.6,5.6,5.6,0,0,0,4.973,2.425,9.745,9.745,0,0,0,2.878-.861A8.132,8.132,0,0,0,13.4,40.241a5.7,5.7,0,0,0,1.477-2.436c.576-1.841-.092-3.453-.761-5.136a34.508,34.508,0,0,0-1.373-3.327c-1.481-2.817-5.258-5.41-8.537-4.4C2.29,25.538,1.139,27.339.5,29.137a8.567,8.567,0,0,0-.02,5.725,2.455,2.455,0,0,0,2.952,1.676,2.425,2.425,0,0,0,1.676-2.952,8.538,8.538,0,0,1-.264-.874c-.119-.444-.02.038,0,.095a1.7,1.7,0,0,1-.032-.458c-.01-.277,0-.55.022-.826.037-.591-.091.364,0,.006.044-.174.07-.353.115-.527.028-.108.28-.646.239-.751.074.186-.208.4-.007.034.065-.119.123-.24.191-.357.052-.09.113-.175.165-.265.244-.426-.292.256-.063.073a2.131,2.131,0,0,0,.239-.254c.281-.321-.451.29-.082.055.025-.016.21-.12.211-.118.024.133-.643.2-.159.1.314-.065-.643,0-.149.019.093.005.2,0,.291,0,.426-.012-.165.018-.189-.034a3.377,3.377,0,0,0,.459.108c.105.03.206.068.309.1.52.165-.447-.244.044.025.256.14.51.277.753.441.1.066.194.138.291.206-.424-.3-.153-.122-.066-.038.217.209.44.4.643.627a1.489,1.489,0,0,1,.232.269c-.21-.5-.055-.066.039.08a5.377,5.377,0,0,0,.406.741c-.062-.009-.206-.5-.1-.221.032.083.066.166.1.248q.219.544.436,1.088.288.723.574,1.446c.123.309.248.617.368.927.056.147.113.292.155.444l.041.167c.05.268.044.222-.016-.137a2.633,2.633,0,0,1,0,.332c.019.481.15-.283.006-.068-.041.062-.045.371-.116.392-.039.012.314-.536.038-.127-.026.038-.334.467-.086.164s-.116.1-.142.127c-.233.262-.035-.12.094-.061-.006,0-.425.241-.447.253.426-.225-.058.016-.174.063l-.588.235c-.313.126-.624.261-.941.377-.164.06-.329.1-.5.154-.385.12.154-.081.137-.015a2,2,0,0,1-.332,0c-.488.024.413.149-.011-.011L7.1,37.8c-.247-.088-.208-.067.118.061a1.63,1.63,0,0,1-.424-.248c0-.031.43.431.1.064a2.437,2.437,0,0,1-.172-.18c-.117-.132-.078-.079.115.157-.084-.026-.168-.294-.217-.369q-.1-.205.039.106l-.135-.333q-.225-.55-.449-1.1l-.963-2.369A2.462,2.462,0,0,0,2.159,31.91,2.424,2.424,0,0,0,.483,34.862Z"/><path class="e" d="M173.763,44.826c2.269,2.687,5.547,4.7,8.443,6.625,4.71,3.139,9.589,6.027,14.511,8.82a324.006,324.006,0,0,0,34.31,17.155c4.424,1.858,9.069,3.865,13.845,4.6a2.477,2.477,0,0,0,2.953-1.677,2.419,2.419,0,0,0-1.677-2.952,54.047,54.047,0,0,1-11.694-3.716c-2.479-1-4.84-2.036-7.49-3.247q-4.235-1.935-8.4-4.006A322.786,322.786,0,0,1,186.387,48.46c-2.063-1.334-4.1-2.709-6.065-4.185l-.263-.2c-.354-.268.272.214.044.033-.179-.142-.359-.283-.536-.426-.322-.261-.641-.527-.952-.8a13.958,13.958,0,0,1-1.458-1.45,2.42,2.42,0,0,0-3.394,0,2.45,2.45,0,0,0,0,3.394Z"/><path class="e" d="M150.641,83.6c6.045-3.053,10.8-7.952,14.83-13.308A67.189,67.189,0,0,0,175.1,53.1a57.693,57.693,0,0,0,2.305-8.441,2.46,2.46,0,0,0-1.676-2.952,2.423,2.423,0,0,0-2.953,1.676A55.608,55.608,0,0,1,164.9,62.72c-4.279,6.673-9.481,13.094-16.681,16.731-2.757,1.393-.33,5.535,2.423,4.144Z"/><path class="e" d="M178.145,42.642q-3.227-3.671-6.338-7.438a2.406,2.406,0,0,0-1.7-.7,2.439,2.439,0,0,0-1.7.7,2.411,2.411,0,0,0-.7,1.7,2.73,2.73,0,0,0,.7,1.7q3.111,3.768,6.337,7.439a2.415,2.415,0,0,0,3.4,0,2.46,2.46,0,0,0,0-3.395Z"/><path class="e" d="M151.288,117.222c-1,3.9-3.516,6.36-6.738,8.588-3.605,2.493-7.268,4.9-9.63,8.7-4.531,7.3-3.8,16.577-1.1,24.35,1.434,4.132,3.259,8.376,6.223,11.657,2.075,2.3,5.461-1.106,3.394-3.394-2.137-2.366-3.635-5.784-4.757-8.885a50.118,50.118,0,0,1-1.58-5.2,18.942,18.942,0,0,1-.632-3.676c-.208-4.325.389-9.08,2.808-12.767,2.114-3.221,5.586-5.119,8.64-7.309,3.864-2.772,6.79-6.092,8-10.793.769-2.994-3.859-4.271-4.628-1.276Z"/><path class="e" d="M223.61,244.182c-3.19,2.932-6.426,5.816-9.749,8.6a2.41,2.41,0,0,0,0,3.394,2.465,2.465,0,0,0,3.4,0c3.322-2.78,6.559-5.665,9.748-8.6a2.418,2.418,0,0,0,0-3.394,2.452,2.452,0,0,0-3.394,0Z"/><path class="e" d="M193.424,278.989a7.422,7.422,0,0,0-1.986,8.053,6.816,6.816,0,0,0,2.043,3.033,8.176,8.176,0,0,0,4.5,1.741,7.226,7.226,0,0,0,7.229-4.041,6.943,6.943,0,0,0,.322-4.835,8.87,8.87,0,0,0-2.222-3.747,7.551,7.551,0,0,0-4.849-1.962,7.136,7.136,0,0,0-5.039,1.758,2.412,2.412,0,0,0,0,3.394,2.46,2.46,0,0,0,3.394,0q.078-.067.159-.132l-.486.375a4.489,4.489,0,0,1,.968-.565l-.573.242a5.173,5.173,0,0,1,1.185-.316l-.638.085a5.88,5.88,0,0,1,1.44,0l-.638-.086a5.786,5.786,0,0,1,1.462.395l-.573-.242a4.881,4.881,0,0,1,1,.583l-.485-.375a4.564,4.564,0,0,1,.725.745l-.375-.486a7.478,7.478,0,0,1,.937,1.571l-.242-.573a5.828,5.828,0,0,1,.405,1.442L201,284.4a4.731,4.731,0,0,1,0,1.183l.086-.638a4.509,4.509,0,0,1-.261.976l.241-.574a4.737,4.737,0,0,1-.6,1.032l.375-.486a5.531,5.531,0,0,1-.9.9l.486-.375a4.487,4.487,0,0,1-.927.531l.574-.242a5.724,5.724,0,0,1-1.361.362l.638-.086a6.525,6.525,0,0,1-1.658,0l.638.085a6.113,6.113,0,0,1-1.419-.381l.573.242a5.225,5.225,0,0,1-1.092-.623l.486.375a4.39,4.39,0,0,1-.769-.76l.376.486a4.924,4.924,0,0,1-.584-1.031l.242.573a6.043,6.043,0,0,1-.4-1.457l.086.638a5.5,5.5,0,0,1,0-1.381l-.086.638a5.1,5.1,0,0,1,.343-1.238l-.241.573a5.251,5.251,0,0,1,.606-1.027l-.375.486a6.345,6.345,0,0,1,.748-.8,2.416,2.416,0,0,0,0-3.394A2.455,2.455,0,0,0,193.424,278.989Z"/><path class="e" d="M163.382,158.4a168.893,168.893,0,0,0,8.23,32.926c3.686,10.192,7.335,20.4,11.346,30.473a293.344,293.344,0,0,0,17.09,35.237c3.266,5.805,6.848,11.5,9.671,17.536a61.522,61.522,0,0,1,3.306,8.125,21.061,21.061,0,0,1,.522,2.2c.231,1.228.287,1.695.414,2.865a162.685,162.685,0,0,1,.625,18.538c-.045,6.422-.244,12.84-.43,19.258-.089,3.09,4.711,3.087,4.8,0,.333-11.5.873-23.09.083-34.586a67.354,67.354,0,0,0-.782-6.9,30.708,30.708,0,0,0-1.918-6.219,147.4,147.4,0,0,0-9.1-17.87c-6.645-11.685-13.058-23.472-18.208-35.907-4.259-10.285-8.006-20.784-11.785-31.251-1.845-5.108-3.654-10.192-5.04-15.451a185.2,185.2,0,0,1-4.2-20.258,2.415,2.415,0,0,0-2.952-1.676,2.462,2.462,0,0,0-1.676,2.952Z"/><path class="a" d="M246.578,240.814a10.447,10.447,0,0,1-8.8,2.048,9,9,0,0,1-3.587-1.514c-4.694-3.354-5.11-10.106-3.875-15.307.459-1.935,2.644-6.93,7.871-8.076,2.951-18.787,1.054-43.08-6.733-55.809l-1.77-1.558q.216-2.187.372-4.407c7.855,3.3,13.047,9.2,14.619,14.979a98.589,98.589,0,0,1,1.37,47.821c4.731,2.471,6.128,8.541,5.148,13.671A13.767,13.767,0,0,1,246.578,240.814Z"/><path class="e" d="M227.577,157.316c-2.025,25.842-11.134,50.108-21.56,73.6-2.762,6.222-5.587,12.416-8.331,18.647a2.477,2.477,0,0,0,.861,3.284,2.419,2.419,0,0,0,3.284-.861c10.272-23.327,21.491-46.4,27.058-71.431a167.443,167.443,0,0,0,3.488-23.244,2.421,2.421,0,0,0-2.4-2.4,2.448,2.448,0,0,0-2.4,2.4Z"/><path class="e" d="M238.421,240.548c-5.177-1.088-6.574-6.3-6.242-10.975a16.169,16.169,0,0,1,.482-3c.052-.2.11-.4.175-.593.055-.166.431-1.048.147-.428a14.136,14.136,0,0,1,.977-1.814c.082-.126.637-.882.364-.54a10.892,10.892,0,0,1,.979-1.069,7.324,7.324,0,0,1,4.132-1.968,9.351,9.351,0,0,1,6.406,1.507c3.315,2.476,3.785,7.553,2.835,11.29-1.215,4.778-5.079,8.493-10.255,7.587a2.47,2.47,0,0,0-2.953,1.676,2.42,2.42,0,0,0,1.677,2.952,13.481,13.481,0,0,0,9.535-1.507,14.64,14.64,0,0,0,5.681-6.745c2.392-5.551,2.138-12.618-1.847-17.387-3.817-4.569-11.558-5.569-16.545-2.413a14.424,14.424,0,0,0-6.325,10.171,19.831,19.831,0,0,0,.872,10.388,12.025,12.025,0,0,0,8.629,7.493C240.158,245.81,241.447,241.184,238.421,240.548Z"/><path class="e" d="M172.524,151.694c-7.348,1.84-14.013,5.581-18.438,11.849-4.588,6.5-5.436,14.4-6.952,21.986-.483,2.419-.972,4.836-1.441,7.257a46.814,46.814,0,0,1-1.728,7.4,88.208,88.208,0,0,0-3.515,12.646,99.472,99.472,0,0,0-2.361,23.529A70.572,70.572,0,0,0,140.1,250.3a46.68,46.68,0,0,0,5.528,13.923c1.644,2.606,5.8.2,4.145-2.423-4.334-6.868-6.14-15.479-6.766-23.483a84.284,84.284,0,0,1,1.472-21.059,99.606,99.606,0,0,1,2.988-12.464,51.809,51.809,0,0,0,1.984-6.066c.442-2.457.916-4.908,1.4-7.357q1.322-6.662,2.579-13.335a32.523,32.523,0,0,1,3.089-9.283c3.592-6.734,9.96-10.593,17.281-12.427,2.995-.75,1.726-5.38-1.276-4.628Z"/><path class="e" d="M158.347,258.708c-3.562-6.036-5.042-13.426-6.148-20.271a22.683,22.683,0,0,1-.383-3.5c-.058-1.521-.013-3.046.074-4.565.2-3.415.609-6.818,1.133-10.2.493-3.177,1.054-6.354,1.813-9.479l-4.386.573c2.5,4.515,4.364,9.472,6.413,14.2,2.657,6.131,5.939,12.271,7.371,18.827.765,3.5.7,7.326-1.248,10.461a5.7,5.7,0,0,1-1.089,1.3,8.252,8.252,0,0,1-1.412.97,17.338,17.338,0,0,1-4.045,1.877c-2.133.559-4.393.405-6.5,1.079a7.692,7.692,0,0,0-4.8,3.726,9.4,9.4,0,0,0,2.346,10.747,6.841,6.841,0,0,0,5.755,1.649c2.186-.393,3.881-1.951,5.809-2.934,3.7-1.888,7.665-3.235,11.067-5.686a23,23,0,0,0,7.807-10.3,23.874,23.874,0,0,0,1.213-13.211c-1.354-8.443-4.984-16.331-8.8-23.91-1.9-3.764-3.866-7.49-5.692-11.289-.86-1.79-1.7-3.593-2.45-5.431q-.558-1.363-1.064-2.747a3.593,3.593,0,0,1-.4-1.595,87.5,87.5,0,0,1,1.569-16.508c.562-3.277,1.239-6.539,2.106-9.75.4-1.48.839-2.95,1.343-4.4a27.855,27.855,0,0,1,1.391-3.419,17.661,17.661,0,0,1,1.713-2.865,2.414,2.414,0,0,0-.861-3.283,2.456,2.456,0,0,0-3.283.861c-3.265,4.355-4.665,10.3-5.841,15.515a125.223,125.223,0,0,0-2.773,18.8c-.155,2.218-.6,5.05.148,7.186a103.227,103.227,0,0,0,4.789,11.149c3.59,7.34,7.7,14.47,10.548,22.151a54.8,54.8,0,0,1,3.051,11.6,18.929,18.929,0,0,1-2.4,11.982,18.7,18.7,0,0,1-8.309,7.591c-1.817.94-3.7,1.741-5.557,2.587-.9.407-1.792.824-2.646,1.314a24.5,24.5,0,0,1-2.831,1.727c-2.608,1.051-4.1-2.736-3.67-4.78.34-1.634,2.257-2.013,3.689-2.234,2.168-.336,4.3-.376,6.362-1.228,2.762-1.143,5.569-2.656,7.376-5.1a16.659,16.659,0,0,0,2.817-10.779c-.506-7.474-4.254-14.309-7.156-21.069-2.172-5.059-4.339-10.13-6.677-15.116-.329-.7-.655-1.407-1.03-2.085a2.426,2.426,0,0,0-4.387.574,121.781,121.781,0,0,0-3.029,19.621,42.5,42.5,0,0,0,.2,9.439,97.819,97.819,0,0,0,2.085,10.3A47.965,47.965,0,0,0,154.2,261.13c1.569,2.659,5.72.247,4.145-2.422Z"/><path class="e" d="M141.145,240.389q4.082-.246,8.146-.709a2.613,2.613,0,0,0,1.7-.7,2.4,2.4,0,0,0,0-3.394,2.32,2.32,0,0,0-1.7-.7q-4.064.464-8.146.709a2.4,2.4,0,0,0,0,4.8Z"/><path class="e" d="M165.183,236.845l.34-.146-.573.242a38.684,38.684,0,0,1,6.214-2.007,2.419,2.419,0,0,0,1.676-2.952,2.451,2.451,0,0,0-2.952-1.676,41.966,41.966,0,0,0-7.128,2.394,2.4,2.4,0,0,0-1.1,1.434,2.454,2.454,0,0,0,.242,1.85,2.425,2.425,0,0,0,1.434,1.1l.638.085a2.391,2.391,0,0,0,1.212-.327Z"/><path class="e" d="M240.6,218a120.319,120.319,0,0,0,1.149-23.958,92.858,92.858,0,0,0-3.74-22.815,46.676,46.676,0,0,0-4.477-10.278c-1.6-2.64-5.75-.23-4.145,2.422,3.337,5.514,5.045,11.9,6.175,18.2a116.311,116.311,0,0,1,.41,35.156,2.479,2.479,0,0,0,1.676,2.952A2.417,2.417,0,0,0,240.6,218Z"/><path class="e" d="M248.472,219.1a101.735,101.735,0,0,0-1.478-48.569,23.285,23.285,0,0,0-6.52-10.427,33.063,33.063,0,0,0-14.414-7.782c-2.991-.783-4.267,3.845-1.276,4.629,7.328,1.919,15.094,6.806,17.424,14.315a89.944,89.944,0,0,1,3.711,28.323,104.669,104.669,0,0,1-2.075,18.235,2.46,2.46,0,0,0,1.676,2.952,2.422,2.422,0,0,0,2.952-1.676Z"/><path class="e" d="M153.042,263.265a24.624,24.624,0,0,1,1.625,6.006l-.086-.638q.124.936.18,1.878a2.4,2.4,0,1,0,4.8,0,26.423,26.423,0,0,0-1.891-8.522,2.634,2.634,0,0,0-1.1-1.434,2.4,2.4,0,0,0-3.283.861,2.313,2.313,0,0,0-.242,1.849Z"/><path class="e" d="M166.976,270.112c.163.069.307.156.463.239.352.187-.237-.259.021.017.127.137.259.266.383.407-.329-.373-.046-.047.023.062.1.165.189.339.282.511.206.386-.088-.324.021.063.053.186.117.366.16.555.112.5.061.034.019.021.046.014.013.481.015.535.016.414.117-.388.008-.03-.17.557.227-.285-.022.129-.087.145-.168.291-.26.432.242-.373-.152.154-.23.23-.1.1-.388.326-.111.121a9.35,9.35,0,0,1-1.112.649c-.131.059-.1.05.079-.029-.107.044-.216.085-.325.124-.19.068-.383.129-.577.185-.214.062-.429.118-.646.166-.134.03-.268.057-.4.08q.24-.024.024,0c-.239.022-.474.018-.713.019q-.382-.032-.048,0c-.087-.016-.173-.036-.257-.059s-.65-.252-.264-.068a5.436,5.436,0,0,1-.54-.3c-.075-.047-.149-.1-.221-.147.166.137.16.133-.017-.014-.156-.139-.31-.277-.455-.427s-.285-.3-.413-.465c.177.224-.187-.282-.225-.341a20.468,20.468,0,0,1-1.373-2.636,2.008,2.008,0,0,0-2.736-.717,2.056,2.056,0,0,0-.718,2.736,12.829,12.829,0,0,0,3.16,4.735,7.334,7.334,0,0,0,2.653,1.475,7.231,7.231,0,0,0,3.408.026,9.053,9.053,0,0,0,4.834-2.468,5.348,5.348,0,0,0,1.323-5.028A6.151,6.151,0,0,0,169,266.658a2.059,2.059,0,0,0-2.737.717,2.022,2.022,0,0,0,.718,2.737Z"/><path class="e" d="M228.878,52.1a43.082,43.082,0,0,1,16.505,28.773,2.473,2.473,0,0,0,2.4,2.4,2.415,2.415,0,0,0,2.4-2.4A47.691,47.691,0,0,0,232.273,48.7a2.482,2.482,0,0,0-3.4,0,2.416,2.416,0,0,0,0,3.394Z"/><path class="e" d="M258.493,83.086a113.457,113.457,0,0,0,1.311-21.2,76.9,76.9,0,0,0-4.718-23.312C252.412,31.21,248.679,24,243.2,18.324a63.724,63.724,0,0,0-14.581-11.56,51.221,51.221,0,0,0-17.674-5.72,85.591,85.591,0,0,0-25.17-.207,58.824,58.824,0,0,0-48.085,42.642,66.409,66.409,0,0,0-1.939,24.027,71.351,71.351,0,0,0,.979,7.134,2.423,2.423,0,0,0,2.952,1.677,2.45,2.45,0,0,0,1.676-2.953c-2.926-15.159-.492-31.179,8.024-44.18A54.708,54.708,0,0,1,181.468,6.622c7.869-2.039,16.027-2.066,24.086-1.395a54.327,54.327,0,0,1,17.269,4,50.937,50.937,0,0,1,13.59,9.232,47.933,47.933,0,0,1,6.636,7.126,55.835,55.835,0,0,1,5.554,9.692,74.286,74.286,0,0,1,6.035,22.087,96.7,96.7,0,0,1-.231,19.908c-.142,1.519-.308,3.034-.543,4.541a2.478,2.478,0,0,0,1.676,2.953,2.419,2.419,0,0,0,2.953-1.677Z"/><path class="e" d="M136.737,74.831a72.26,72.26,0,0,0,1.889,7.63,2.4,2.4,0,1,0,4.628-1.276,72.26,72.26,0,0,1-1.889-7.63,2.414,2.414,0,0,0-1.1-1.434,2.4,2.4,0,0,0-3.283.861,2.693,2.693,0,0,0-.242,1.849Z"/><path class="e" d="M239.774,234.1a2.671,2.671,0,0,1-1.066-.449c-1.394-1-1.517-3-1.151-4.547a3.171,3.171,0,0,1,4.112-2.315c1.854.508,2.417,2.571,2.09,4.281C243.408,232.909,241.974,234.517,239.774,234.1Z"/><path class="e" d="M194.887,88.272c.422-.105.845-.2,1.272-.276.183-.033.366-.061.55-.091.622-.1-.53.048.1-.01a22.189,22.189,0,0,1,2.405-.111q.555.01,1.11.052c.215.017.431.037.646.061.092.01.184.02.276.032-.332-.046-.361-.048-.087-.008a23.531,23.531,0,0,1,2.359.523,2.4,2.4,0,0,0,1.276-4.628,21.745,21.745,0,0,0-11.18-.173,2.424,2.424,0,0,0-1.676,2.952,2.449,2.449,0,0,0,2.952,1.677Z"/><path class="e" d="M239.023,84.5q.446-.082.894-.143l-.638.085a17.128,17.128,0,0,1,3.365-.105,2.4,2.4,0,0,0,1.7-4.1l-.486-.376a2.384,2.384,0,0,0-1.211-.327,19.532,19.532,0,0,0-4.9.335,2.414,2.414,0,0,0-1.434,1.1,2.4,2.4,0,0,0,.861,3.283l.573.242a2.4,2.4,0,0,0,1.276,0Z"/><path class="e" d="M161.806,79.868a19.524,19.524,0,0,0-4.9-.335,2.543,2.543,0,0,0-1.7.7,2.4,2.4,0,0,0,0,3.394,2.383,2.383,0,0,0,1.7.7,17.128,17.128,0,0,1,3.365.105l-.638-.085q.449.06.893.143a2.582,2.582,0,0,0,1.85-.242,2.4,2.4,0,0,0,.861-3.283,2.363,2.363,0,0,0-1.435-1.1Z"/><path class="e" d="M196.062,83.264a7.191,7.191,0,0,0-2.728-4.934,14.21,14.21,0,0,0-5.573-1.99,46.936,46.936,0,0,0-12.634-.8c-3.963.269-8.349.825-11.965,2.571-3.692,1.782-4.411,5.39-4.525,9.13-.1,3.3.027,6.743,1.433,9.781,1.608,3.473,5.282,5.017,8.814,5.819a45.173,45.173,0,0,0,11.816.723c3.619-.142,7.657-.1,10.745-2.282,5.58-3.949,5.553-11.95,4.617-18.014a2.416,2.416,0,0,0-2.952-1.676,2.459,2.459,0,0,0-1.676,2.952c.535,3.466.739,8.73-1.549,11.693-1.473,1.907-4.008,2.286-6.366,2.405a82,82,0,0,1-9.432.118c-2.747-.178-6.295-.584-8.546-2.333-1.732-1.346-1.993-3.979-2.093-6-.06-1.225-.04-2.451,0-3.675.041-1.1-.022-2.48.657-3.422.764-1.058,2.3-1.385,3.465-1.707a37.346,37.346,0,0,1,4.975-1.029,45.4,45.4,0,0,1,11.057-.087,32.881,32.881,0,0,1,5.425,1.094,3.847,3.847,0,0,1,1.674.754,3.9,3.9,0,0,1,.728,2.194,2.419,2.419,0,0,0,2.952,1.676A2.456,2.456,0,0,0,196.062,83.264Z"/><path class="e" d="M207.47,84.54c.208-1.266.351-2.2,1.608-2.7a23.725,23.725,0,0,1,5.023-1.171,44.014,44.014,0,0,1,10.246-.294,28.418,28.418,0,0,1,9.142,1.885c2.477,1.114,2.176,3.861,2.2,6.188.019,2.278.034,5.057-1.275,7.035-1.418,2.143-4.912,2.715-7.252,3.06a49.848,49.848,0,0,1-9.311.2c-2.516-.1-5.764.034-7.8-1.5-3.48-2.628-3.158-8.966-2.579-12.706a2.476,2.476,0,0,0-1.676-2.952,2.417,2.417,0,0,0-2.952,1.676c-.852,5.5-.955,12.163,2.987,16.581,2.428,2.721,6.145,3.422,9.622,3.6a67.276,67.276,0,0,0,11.47-.062c3.636-.44,8.136-1.311,10.683-4.2,2.267-2.573,2.789-6.167,2.872-9.477.084-3.381.21-7.478-2.365-10.04-2.746-2.733-7.476-3.317-11.135-3.8a48.984,48.984,0,0,0-14.151.184,21.192,21.192,0,0,0-6.459,1.784,7.034,7.034,0,0,0-3.524,5.437,2.472,2.472,0,0,0,1.676,2.952A2.419,2.419,0,0,0,207.47,84.54Z"/><path class="e" d="M190.133,122.048a19.4,19.4,0,0,0,9.349,2.163,15.2,15.2,0,0,0,9.428-2.778,2.413,2.413,0,0,0,0-3.394,2.462,2.462,0,0,0-3.394,0c.725-.565.155-.128-.032-.008s-.381.232-.579.335c-.164.086-.874.368-.22.126-.267.1-.529.2-.8.291a14.006,14.006,0,0,1-2.236.51c.351-.052-.085.006-.221.02-.219.021-.439.04-.659.054-.529.034-1.059.047-1.589.044-.474,0-.949-.019-1.422-.051-.218-.015-.435-.032-.652-.054-.019,0-.8-.11-.323-.035a16.028,16.028,0,0,1-2.089-.464c-.292-.087-.577-.192-.866-.291-.616-.211.344.179-.212-.083q-.537-.254-1.061-.53a2.453,2.453,0,0,0-3.284.861,2.427,2.427,0,0,0,.861,3.284Z"/><path class="e" d="M198.277,100.005a44,44,0,0,1,1.035,4.732l-.086-.638a2.852,2.852,0,0,1,.018.653l.085-.638a1.5,1.5,0,0,1-.072.294l.242-.574a1.19,1.19,0,0,1-.1.189l.375-.486a.975.975,0,0,1-.155.153l.486-.375a3.27,3.27,0,0,1-.375.2l.574-.242a2.741,2.741,0,0,1-.632.184l.638-.085a2.5,2.5,0,0,1-.593,0l.638.086c-.224-.031-.443-.085-.667-.115a1.812,1.812,0,0,0-.957-.043,1.783,1.783,0,0,0-.892.284,2.4,2.4,0,0,0-.861,3.284,2.3,2.3,0,0,0,1.434,1.1c.507.068,1,.2,1.514.22a4.843,4.843,0,0,0,2.227-.529,3.208,3.208,0,0,0,1.78-2.116,5.327,5.327,0,0,0-.022-2.283c-.258-1.524-.61-3.035-1-4.53a2.4,2.4,0,1,0-4.629,1.276Z"/><path class="e" d="M173.432,86.713c-.758,2.465-.264,8.136,4.407,8.619,6.173-.037,6.5-6.894,4.423-10.118C180.561,82.575,175.558,81.477,173.432,86.713Z"/><path class="e" d="M224.522,86.713c.759,2.465.265,8.136-4.406,8.619-6.173-.037-6.5-6.894-4.424-10.118C217.393,82.575,222.4,81.477,224.522,86.713Z"/></svg>